<svg width="162" height="48" viewBox="0 0 162 48" fill="none" xmlns="http://www.w3.org/2000/svg">
<g clip-path="url(#clip0_662_16927)">
<path fill-rule="evenodd" clip-rule="evenodd" d="M5.6748 48H156.236C159.364 48 162 45.4464 162 42.3204V5.6712C162 2.544 159.364 0 156.236 0H5.6748C2.5464 0 0 2.544 0 5.6712V42.3204C0 45.4464 2.5464 48 5.6748 48ZM156.238 46.9177C158.782 46.9177 160.838 44.8609 160.838 42.3217L160.837 5.67008C160.837 3.13208 158.782 1.06808 156.236 1.06808H5.67488C3.13208 1.06808 1.06808 3.13208 1.06808 5.67008V42.3217C1.06808 44.8609 3.13208 46.9177 5.67488 46.9177H156.238Z" fill="#A6A6A6"/>
<path d="M36.1529 23.7409C36.1181 19.8733 39.3197 17.9917 39.4661 17.9041C37.6529 15.2605 34.8425 14.8993 33.8549 14.8705C31.4945 14.6221 29.2049 16.2829 28.0025 16.2829C26.7761 16.2829 24.9245 14.8945 22.9289 14.9353C20.3609 14.9749 17.9585 16.4617 16.6409 18.7705C13.9217 23.4781 15.9497 30.3961 18.5549 34.2013C19.8581 36.0649 21.3809 38.1457 23.3741 38.0725C25.3241 37.9921 26.0525 36.8293 28.4057 36.8293C30.7373 36.8293 31.4213 38.0725 33.4541 38.0257C35.5469 37.9921 36.8645 36.1537 38.1221 34.2733C39.6281 32.1373 40.2329 30.0337 40.2569 29.9257C40.2077 29.9089 36.1925 28.3765 36.1529 23.7409Z" fill="white"/>
<path d="M32.3125 12.3672C33.3613 11.0556 34.0789 9.27125 33.8797 7.46045C32.3617 7.52765 30.4633 8.51045 29.3701 9.79325C28.4029 10.9237 27.5389 12.7764 27.7621 14.5189C29.4673 14.646 31.2181 13.6584 32.3125 12.3672Z" fill="white"/>
<path d="M64.3746 37.8046H61.6494L60.1566 33.1138H54.9678L53.5458 37.8046H50.8926L56.0334 21.835H59.2086L64.3746 37.8046ZM59.7066 31.1458L58.3566 26.9758C58.2138 26.5498 57.9462 25.5466 57.5514 23.9674H57.5034C57.3462 24.6466 57.093 25.6498 56.745 26.9758L55.419 31.1458H59.7066Z" fill="white"/>
<path d="M77.5951 31.9054C77.5951 33.8638 77.0659 35.4118 76.0075 36.5482C75.0595 37.5598 73.8823 38.065 72.4771 38.065C70.9603 38.065 69.8707 37.5202 69.2071 36.4306H69.1591V42.4966H66.6007V30.0802C66.6007 28.849 66.5683 27.5854 66.5059 26.2894H68.7559L68.8987 28.1146H68.9467C69.7999 26.7394 71.0947 26.053 72.8323 26.053C74.1907 26.053 75.3247 26.5894 76.2319 27.6634C77.1415 28.7386 77.5951 30.1522 77.5951 31.9054ZM74.9887 31.999C74.9887 30.8782 74.7367 29.9542 74.2303 29.227C73.6771 28.4686 72.9343 28.0894 72.0031 28.0894C71.3719 28.0894 70.7983 28.3006 70.2859 28.717C69.7723 29.137 69.4363 29.6854 69.2791 30.3646C69.1999 30.6814 69.1603 30.9406 69.1603 31.1446V33.0646C69.1603 33.9022 69.4171 34.609 69.9307 35.1862C70.4443 35.7634 71.1115 36.0514 71.9323 36.0514C72.8959 36.0514 73.6459 35.6794 74.1823 34.9378C74.7199 34.195 74.9887 33.2158 74.9887 31.999Z" fill="white"/>
<path d="M90.84 31.9054C90.84 33.8638 90.3108 35.4118 89.2512 36.5482C88.3044 37.5598 87.1272 38.065 85.722 38.065C84.2052 38.065 83.1156 37.5202 82.4532 36.4306H82.4052V42.4966H79.8468V30.0802C79.8468 28.849 79.8144 27.5854 79.752 26.2894H82.002L82.1448 28.1146H82.1927C83.0447 26.7394 84.3396 26.053 86.0784 26.053C87.4356 26.053 88.5696 26.5894 89.4792 27.6634C90.3852 28.7386 90.84 30.1522 90.84 31.9054ZM88.2336 31.999C88.2336 30.8782 87.9804 29.9542 87.474 29.227C86.9208 28.4686 86.1804 28.0894 85.248 28.0894C84.6156 28.0894 84.0432 28.3006 83.5296 28.717C83.016 29.137 82.6812 29.6854 82.524 30.3646C82.446 30.6814 82.4052 30.9406 82.4052 31.1446V33.0646C82.4052 33.9022 82.662 34.609 83.1732 35.1862C83.6868 35.7622 84.354 36.0514 85.1772 36.0514C86.1408 36.0514 86.8908 35.6794 87.4272 34.9378C87.9648 34.195 88.2336 33.2158 88.2336 31.999Z" fill="white"/>
<path d="M105.647 33.3263C105.647 34.6847 105.176 35.7899 104.229 36.6431C103.189 37.5755 101.74 38.0411 99.879 38.0411C98.1606 38.0411 96.783 37.7099 95.7402 37.0463L96.333 34.9139C97.4562 35.5931 98.6886 35.9339 100.031 35.9339C100.995 35.9339 101.745 35.7155 102.284 35.2811C102.82 34.8467 103.088 34.2635 103.088 33.5363C103.088 32.8883 102.867 32.3423 102.424 31.8995C101.984 31.4567 101.248 31.0451 100.221 30.6647C97.425 29.6219 96.0282 28.0943 96.0282 26.0855C96.0282 24.7727 96.5178 23.6963 97.4982 22.8587C98.475 22.0199 99.7782 21.6011 101.408 21.6011C102.861 21.6011 104.068 21.8543 105.032 22.3595L104.392 24.4451C103.492 23.9555 102.475 23.7107 101.336 23.7107C100.436 23.7107 99.7326 23.9327 99.2286 24.3743C98.8026 24.7691 98.589 25.2503 98.589 25.8203C98.589 26.4515 98.8326 26.9735 99.3222 27.3839C99.7482 27.7631 100.522 28.1735 101.645 28.6163C103.019 29.1695 104.029 29.8163 104.678 30.5579C105.325 31.2971 105.647 32.2223 105.647 33.3263Z" fill="white"/>
<path d="M114.107 28.2094H111.287V33.8002C111.287 35.2222 111.783 35.9326 112.779 35.9326C113.237 35.9326 113.616 35.893 113.916 35.8138L113.987 37.7566C113.483 37.945 112.819 38.0398 111.997 38.0398C110.987 38.0398 110.197 37.7314 109.627 37.1158C109.059 36.499 108.774 35.4646 108.774 34.0114V28.207H107.094V26.287H108.774V24.1786L111.287 23.4202V26.287H114.107V28.2094Z" fill="white"/>
<path d="M126.83 31.9522C126.83 33.7222 126.323 35.1754 125.313 36.3118C124.253 37.4818 122.847 38.065 121.094 38.065C119.404 38.065 118.059 37.5046 117.056 36.3838C116.052 35.263 115.551 33.8482 115.551 32.143C115.551 30.3586 116.067 28.897 117.102 27.7606C118.136 26.623 119.53 26.0542 121.283 26.0542C122.973 26.0542 124.332 26.6146 125.358 27.7366C126.34 28.825 126.83 30.2302 126.83 31.9522ZM124.175 32.035C124.175 30.973 123.948 30.0622 123.489 29.3026C122.952 28.3834 122.186 27.925 121.192 27.925C120.164 27.925 119.382 28.3846 118.846 29.3026C118.386 30.0634 118.16 30.9886 118.16 32.083C118.16 33.145 118.386 34.0558 118.846 34.8142C119.399 35.7334 120.172 36.1918 121.169 36.1918C122.146 36.1918 122.913 35.7238 123.466 34.7902C123.938 34.0162 124.175 33.0958 124.175 32.035Z" fill="white"/>
<path d="M135.145 28.5394C134.892 28.4926 134.622 28.4686 134.339 28.4686C133.439 28.4686 132.743 28.8082 132.253 29.4886C131.827 30.0886 131.614 30.847 131.614 31.7626V37.8046H129.056L129.08 29.9158C129.08 28.5886 129.048 27.3802 128.984 26.2906H131.213L131.306 28.4938H131.377C131.647 27.7366 132.073 27.127 132.656 26.6698C133.226 26.2582 133.842 26.053 134.506 26.053C134.742 26.053 134.956 26.0698 135.145 26.0998V28.5394Z" fill="white"/>
<path d="M146.587 31.5023C146.587 31.9607 146.557 32.3471 146.494 32.6627H138.818C138.848 33.8003 139.219 34.6703 139.932 35.2703C140.579 35.8067 141.415 36.0755 142.442 36.0755C143.579 36.0755 144.616 35.8943 145.548 35.5307L145.949 37.3067C144.859 37.7819 143.573 38.0183 142.088 38.0183C140.303 38.0183 138.901 37.4927 137.881 36.4427C136.864 35.3927 136.354 33.9827 136.354 32.2139C136.354 30.4775 136.828 29.0315 137.777 27.8783C138.77 26.6471 140.113 26.0315 141.803 26.0315C143.462 26.0315 144.719 26.6471 145.572 27.8783C146.248 28.8563 146.587 30.0659 146.587 31.5023ZM144.148 30.8387C144.164 30.0803 143.998 29.4251 143.651 28.8719C143.208 28.1603 142.528 27.8051 141.612 27.8051C140.776 27.8051 140.095 28.1519 139.576 28.8479C139.15 29.4011 138.896 30.0647 138.818 30.8375H144.148V30.8387Z" fill="white"/>
<path d="M58.8609 12.0107C58.8609 13.4231 58.4373 14.4863 57.5913 15.2003C56.8077 15.8591 55.6941 16.1891 54.2517 16.1891C53.5365 16.1891 52.9245 16.1579 52.4121 16.0955V8.37829C53.0805 8.27029 53.8005 8.21509 54.5781 8.21509C55.9521 8.21509 56.9877 8.51389 57.6861 9.11149C58.4685 9.78709 58.8609 10.7531 58.8609 12.0107ZM57.5349 12.0455C57.5349 11.1299 57.2925 10.4279 56.8077 9.93829C56.3229 9.44989 55.6149 9.20509 54.6825 9.20509C54.2865 9.20509 53.9493 9.23149 53.6697 9.28669V15.1535C53.8245 15.1775 54.1077 15.1883 54.5193 15.1883C55.4817 15.1883 56.2245 14.9207 56.7477 14.3855C57.2709 13.8503 57.5349 13.0703 57.5349 12.0455Z" fill="white"/>
<path d="M65.892 13.2445C65.892 14.1145 65.6436 14.8273 65.1468 15.3865C64.626 15.9613 63.936 16.2481 63.0744 16.2481C62.244 16.2481 61.5828 15.9733 61.0896 15.4213C60.5976 14.8705 60.3516 14.1757 60.3516 13.3381C60.3516 12.4621 60.6048 11.7433 61.1136 11.1853C61.6224 10.6273 62.3064 10.3477 63.168 10.3477C63.9984 10.3477 64.6656 10.6225 65.1708 11.1733C65.6508 11.7085 65.892 12.3997 65.892 13.2445ZM64.5876 13.2853C64.5876 12.7633 64.4748 12.3157 64.2504 11.9425C63.9864 11.4913 63.6108 11.2657 63.1224 11.2657C62.6172 11.2657 62.2332 11.4913 61.9692 11.9425C61.7436 12.3157 61.632 12.7705 61.632 13.3081C61.632 13.8301 61.7448 14.2777 61.9692 14.6509C62.2416 15.1021 62.6208 15.3277 63.1104 15.3277C63.5904 15.3277 63.9672 15.0985 64.2384 14.6389C64.4712 14.2585 64.5876 13.8073 64.5876 13.2853Z" fill="white"/>
<path d="M75.319 10.4629L73.549 16.1197H72.397L71.6638 13.6633C71.4778 13.0501 71.3266 12.4405 71.209 11.8357H71.1862C71.077 12.4573 70.9258 13.0657 70.7314 13.6633L69.9526 16.1197H68.7874L67.123 10.4629H68.4154L69.055 13.1521C69.2098 13.7881 69.337 14.3941 69.439 14.9677H69.4618C69.5554 14.4949 69.7102 13.8925 69.9286 13.1641L70.7314 10.4641H71.7562L72.5254 13.1065C72.7114 13.7509 72.8626 14.3713 72.979 14.9689H73.0138C73.099 14.3869 73.2274 13.7665 73.3978 13.1065L74.0842 10.4641H75.319V10.4629Z" fill="white"/>
<path d="M81.8393 16.1196H80.5817V12.8796C80.5817 11.8812 80.2025 11.382 79.4417 11.382C79.0685 11.382 78.7673 11.5188 78.5333 11.7936C78.3017 12.0684 78.1841 12.3924 78.1841 12.7632V16.1184H76.9265V12.0792C76.9265 11.5824 76.9109 11.0436 76.8809 10.4604H77.9861L78.0449 11.3448H78.0797C78.2261 11.07 78.4445 10.8432 78.7313 10.662C79.0721 10.4508 79.4537 10.344 79.8713 10.344C80.3993 10.344 80.8385 10.5144 81.1877 10.8564C81.6221 11.2752 81.8393 11.9004 81.8393 12.7308V16.1196Z" fill="white"/>
<path d="M85.3072 16.1196H84.0508V7.86719H85.3072V16.1196Z" fill="white"/>
<path d="M92.7103 13.2445C92.7103 14.1145 92.4619 14.8273 91.9651 15.3865C91.4443 15.9613 90.7531 16.2481 89.8927 16.2481C89.0611 16.2481 88.3999 15.9733 87.9079 15.4213C87.4159 14.8705 87.1699 14.1757 87.1699 13.3381C87.1699 12.4621 87.4231 11.7433 87.9319 11.1853C88.4407 10.6273 89.1247 10.3477 89.9851 10.3477C90.8167 10.3477 91.4827 10.6225 91.9891 11.1733C92.4691 11.7085 92.7103 12.3997 92.7103 13.2445ZM91.4047 13.2853C91.4047 12.7633 91.2919 12.3157 91.0675 11.9425C90.8047 11.4913 90.4279 11.2657 89.9407 11.2657C89.4343 11.2657 89.0503 11.4913 88.7875 11.9425C88.5619 12.3157 88.4503 12.7705 88.4503 13.3081C88.4503 13.8301 88.5631 14.2777 88.7875 14.6509C89.0599 15.1021 89.4391 15.3277 89.9287 15.3277C90.4087 15.3277 90.7843 15.0985 91.0555 14.6389C91.2895 14.2585 91.4047 13.8073 91.4047 13.2853Z" fill="white"/>
<path d="M98.7963 16.1197H97.6671L97.5735 15.4681H97.5387C97.1523 15.9877 96.6015 16.2481 95.8863 16.2481C95.3523 16.2481 94.9203 16.0765 94.5951 15.7357C94.2999 15.4261 94.1523 15.0409 94.1523 14.5837C94.1523 13.8925 94.4403 13.3657 95.0199 13.0009C95.5983 12.6361 96.4119 12.4573 97.4595 12.4657V12.3601C97.4595 11.6149 97.0683 11.2429 96.2847 11.2429C95.7267 11.2429 95.2347 11.3833 94.8099 11.6617L94.5543 10.8361C95.0799 10.5109 95.7291 10.3477 96.4947 10.3477C97.9731 10.3477 98.7147 11.1277 98.7147 12.6877V14.7709C98.7147 15.3361 98.7423 15.7861 98.7963 16.1197ZM97.4907 14.1757V13.3033C96.1035 13.2793 95.4099 13.6597 95.4099 14.4433C95.4099 14.7385 95.4891 14.9593 95.6511 15.1069C95.8131 15.2545 96.0195 15.3277 96.2655 15.3277C96.5415 15.3277 96.7995 15.2401 97.0347 15.0661C97.2711 14.8909 97.4163 14.6689 97.4703 14.3965C97.4835 14.3353 97.4907 14.2609 97.4907 14.1757Z" fill="white"/>
<path d="M105.943 16.1196H104.827L104.768 15.2112H104.733C104.377 15.9024 103.77 16.248 102.917 16.248C102.235 16.248 101.667 15.9804 101.217 15.4452C100.767 14.91 100.543 14.2152 100.543 13.362C100.543 12.4464 100.787 11.7048 101.276 11.1384C101.75 10.6104 102.331 10.3464 103.022 10.3464C103.782 10.3464 104.313 10.602 104.616 11.1144H104.64V7.86719H105.899V14.5956C105.899 15.1464 105.913 15.654 105.943 16.1196ZM104.64 13.734V12.7908C104.64 12.6276 104.628 12.4956 104.605 12.3948C104.534 12.0924 104.382 11.838 104.15 11.6328C103.916 11.4276 103.634 11.3244 103.309 11.3244C102.84 11.3244 102.473 11.5104 102.203 11.8836C101.935 12.2568 101.799 12.7332 101.799 13.3152C101.799 13.8744 101.928 14.328 102.186 14.6772C102.458 15.0492 102.825 15.2352 103.285 15.2352C103.698 15.2352 104.028 15.0804 104.279 14.7696C104.521 14.4828 104.64 14.1372 104.64 13.734Z" fill="white"/>
<path d="M116.699 13.2445C116.699 14.1145 116.45 14.8273 115.953 15.3865C115.433 15.9613 114.744 16.2481 113.881 16.2481C113.052 16.2481 112.391 15.9733 111.896 15.4213C111.404 14.8705 111.158 14.1757 111.158 13.3381C111.158 12.4621 111.411 11.7433 111.92 11.1853C112.429 10.6273 113.113 10.3477 113.976 10.3477C114.805 10.3477 115.473 10.6225 115.977 11.1733C116.457 11.7085 116.699 12.3997 116.699 13.2445ZM115.395 13.2853C115.395 12.7633 115.283 12.3157 115.058 11.9425C114.793 11.4913 114.419 11.2657 113.929 11.2657C113.425 11.2657 113.041 11.4913 112.776 11.9425C112.55 12.3157 112.439 12.7705 112.439 13.3081C112.439 13.8301 112.551 14.2777 112.776 14.6509C113.048 15.1021 113.427 15.3277 113.917 15.3277C114.397 15.3277 114.775 15.0985 115.046 14.6389C115.278 14.2585 115.395 13.8073 115.395 13.2853Z" fill="white"/>
<path d="M123.461 16.1196H122.205V12.8796C122.205 11.8812 121.826 11.382 121.064 11.382C120.69 11.382 120.389 11.5188 120.156 11.7936C119.924 12.0684 119.807 12.3924 119.807 12.7632V16.1184H118.548V12.0792C118.548 11.5824 118.534 11.0436 118.504 10.4604H119.608L119.667 11.3448H119.702C119.849 11.07 120.068 10.8432 120.353 10.662C120.695 10.4508 121.076 10.344 121.494 10.344C122.021 10.344 122.46 10.5144 122.81 10.8564C123.245 11.2752 123.461 11.9004 123.461 12.7308V16.1196Z" fill="white"/>
<path d="M131.924 11.4048H130.539V14.1528C130.539 14.8512 130.785 15.2004 131.272 15.2004C131.498 15.2004 131.685 15.1812 131.833 15.1416L131.865 16.0956C131.617 16.1892 131.29 16.236 130.888 16.236C130.391 16.236 130.005 16.0848 129.725 15.7824C129.445 15.48 129.305 14.9712 129.305 14.2572V11.4048H128.479V10.4628H129.305V9.42596L130.538 9.05396V10.4616H131.923V11.4048H131.924Z" fill="white"/>
<path d="M138.583 16.1196H137.324V12.9036C137.324 11.8896 136.945 11.382 136.185 11.382C135.602 11.382 135.204 11.676 134.985 12.264C134.948 12.3876 134.926 12.5388 134.926 12.7164V16.1184H133.67V7.86719H134.926V11.2764H134.95C135.346 10.656 135.914 10.3464 136.65 10.3464C137.17 10.3464 137.601 10.5168 137.943 10.8588C138.369 11.2848 138.583 11.9184 138.583 12.756V16.1196Z" fill="white"/>
<path d="M145.449 13.0237C145.449 13.2493 145.432 13.4389 145.402 13.5937H141.631C141.648 14.1529 141.828 14.5789 142.177 14.8741C142.496 15.1381 142.908 15.2701 143.412 15.2701C143.97 15.2701 144.478 15.1813 144.937 15.0025L145.134 15.8761C144.597 16.1089 143.966 16.2253 143.235 16.2253C142.359 16.2253 141.669 15.9673 141.17 15.4513C140.668 14.9353 140.42 14.2429 140.42 13.3741C140.42 12.5209 140.652 11.8105 141.118 11.2441C141.606 10.6393 142.264 10.3369 143.096 10.3369C143.91 10.3369 144.528 10.6393 144.945 11.2441C145.282 11.7241 145.449 12.3181 145.449 13.0237ZM144.249 12.6985C144.259 12.3253 144.176 12.0037 144.006 11.7325C143.787 11.3833 143.455 11.2081 143.005 11.2081C142.594 11.2081 142.26 11.3785 142.004 11.7205C141.795 11.9929 141.672 12.3181 141.631 12.6985H144.249Z" fill="white"/>
</g>
<defs>
<clipPath id="clip0_662_16927">
<rect width="162" height="48" fill="white"/>
</clipPath>
</defs>
</svg>
