<svg width="151" height="56" viewBox="0 0 151 56" fill="none" xmlns="http://www.w3.org/2000/svg"><path d="M83.0828 40.7279H77.2109L86.158 14.8105H93.2195L102.154 40.7279H96.282L89.79 20.7331H89.5875L83.0828 40.7279ZM82.7158 30.5407H96.5857V34.818H82.7158V30.5407Z" fill="white"/><path d="M105.273 40.7279V14.8105H115.499C117.456 14.8105 119.126 15.1607 120.51 15.8609C121.902 16.5527 122.961 17.5356 123.686 18.8095C124.42 20.075 124.787 21.5641 124.787 23.2767C124.787 24.9978 124.416 26.4784 123.674 27.7186C122.931 28.9504 121.856 29.8953 120.447 30.5533C119.046 31.2114 117.35 31.5404 115.359 31.5404H108.513V27.1365H114.473C115.52 27.1365 116.389 26.9931 117.08 26.7062C117.772 26.4194 118.287 25.9891 118.624 25.4154C118.97 24.8417 119.143 24.1288 119.143 23.2767C119.143 22.4162 118.97 21.6906 118.624 21.1001C118.287 20.5095 117.768 20.0624 117.068 19.7586C116.376 19.4465 115.503 19.2904 114.448 19.2904H110.753V40.7279H105.273ZM119.27 28.9335L125.711 40.7279H119.662L113.36 28.9335H119.27Z" fill="white"/><path d="M128.66 40.7279V14.8105H134.139V26.238H134.481L143.808 14.8105H150.376L140.758 26.4151L150.489 40.7279H143.934L136.835 30.0724L134.139 33.3627V40.7279H128.66Z" fill="white"/><path d="M0 15.2727C0 6.83783 6.83783 0 15.2727 0H40.7273C49.1622 0 56 6.83783 56 15.2727V40.7273C56 49.1622 49.1622 56 40.7273 56H15.2727C6.83783 56 0 49.1622 0 40.7273V15.2727Z" fill="#B01E20"/><path fill-rule="evenodd" clip-rule="evenodd" d="M5.70166 45.595L27.8908 22.7369L50.3029 45.818L28.0023 10.1816L5.70166 45.595ZM31.1048 31.8353H31.1244V31.8576L31.1048 31.8353ZM31.1048 31.8353L27.7347 27.9996L24.1666 31.8353H31.1048ZM33.6667 34.0654L37.7254 38.1241H17.7441V38.0572L21.669 34.1323V34.11L33.6667 34.0654Z" fill="white"/></svg>