<svg width="56" height="56" viewBox="0 0 56 56" fill="none" xmlns="http://www.w3.org/2000/svg">
<path d="M11.434 36.6917C10.6562 35.2917 10.1118 33.8819 9.80065 32.4625C9.48954 31.0431 9.33398 29.5944 9.33398 28.1167C9.33398 23.0222 11.1715 18.6375 14.8465 14.9625C18.5215 11.2875 22.9062 9.45 28.0007 9.45H30.509L25.8423 4.78333L28.1173 2.50833L36.809 11.2L28.1173 19.8917L25.784 17.5583L30.3923 12.95H28.0007C23.8395 12.95 20.2715 14.4375 17.2965 17.4125C14.3215 20.3875 12.834 23.9556 12.834 28.1167C12.834 29.2444 12.9409 30.3139 13.1548 31.325C13.3687 32.3361 13.6312 33.2889 13.9423 34.1833L11.434 36.6917ZM27.7673 53.6667L19.0757 44.975L27.7673 36.2833L30.0423 38.5583L25.3757 43.225H28.0007C32.1618 43.225 35.7298 41.7375 38.7048 38.7625C41.6798 35.7875 43.1673 32.2194 43.1673 28.0583C43.1673 26.9306 43.0701 25.8611 42.8756 24.85C42.6812 23.8389 42.3895 22.8861 42.0006 21.9917L44.509 19.4833C45.2868 20.8833 45.8409 22.2931 46.1715 23.7125C46.502 25.1319 46.6673 26.5806 46.6673 28.0583C46.6673 33.1528 44.8298 37.5375 41.1548 41.2125C37.4798 44.8875 33.0951 46.725 28.0007 46.725H25.3757L30.0423 51.3917L27.7673 53.6667Z" fill="#29282A"/>
</svg>
