<svg width="103" height="40" viewBox="0 0 103 40" fill="none" xmlns="http://www.w3.org/2000/svg"><g clip-path="url(#clip0_3310_335)"><path d="M14.7863 26.9345H24.6583V24.3354H17.7785V21.1466H23.4789V18.5476H17.7785V15.5991H24.702V13H14.7863V26.9345ZM36.5398 21.78L30.0749 13H25.6193L27.0172 14.7691V26.9782H29.9875V17.8268L36.6708 26.9345H39.532V13H36.5398V21.78ZM10.2871 19.7707C11.5975 19.5304 12.6895 18.3073 12.6895 16.5819C12.6895 14.7254 11.3354 13 8.64899 13H0L1.35413 14.7254V26.9563H8.95476C11.6412 26.9563 13.039 25.2746 13.039 23.1778C12.9735 21.4524 11.7941 19.9672 10.2871 19.7707ZM4.32449 15.6209H8.05928C9.06396 15.6209 9.69735 16.2106 9.69735 17.0842C9.69735 17.9579 9.06396 18.5476 8.05928 18.5476H4.32449V15.6209ZM8.19033 24.3573H4.32449V21.1466H8.19033C9.32605 21.1466 9.95944 21.8674 9.95944 22.741C9.95944 23.7457 9.28237 24.3354 8.19033 24.3573ZM83.1701 21.78H84.7208V23.4181C83.9126 24.0733 82.908 24.4446 81.8596 24.4665C79.3697 24.4665 77.6225 22.5663 77.6225 20.0109C77.6225 17.4555 79.3916 15.5554 81.8596 15.5554C83.1482 15.5554 84.3495 16.2324 85.0484 17.3245L87.4072 16.014C86.4025 14.4197 84.6334 13 81.8378 13C77.8846 13 74.6084 15.7301 74.6084 19.9672C74.6084 24.2044 77.8409 26.9345 81.8378 26.9345C84.0219 26.9782 86.0967 26.039 87.5382 24.4228V19.2683H81.1607L83.1701 21.78ZM69.7379 21.78L63.2512 13H58.8175L60.1935 14.7691V26.9782H63.1857V17.8268L69.869 26.9345H72.7083V13H69.7379V21.78ZM97.4103 13H91.6662L93.0421 14.7691L92.8019 15.4462L88.3463 26.9782H91.7098L92.5835 24.6193H98.5897L99.4633 26.9782H102.827L97.4103 13ZM93.3479 21.9984L95.532 15.9922L97.7161 21.9984H93.3479ZM54.0998 13H57.092V27H54.0998V13ZM51.7192 15.4025V13H41.2137V15.5991H47.8097L41.2137 24.5538V26.9345H51.8284V24.3354H45.0796L51.7192 15.4025Z" fill="white"/></g><defs><clipPath id="clip0_3310_335"><rect width="102.827" height="40" fill="white"/></clipPath></defs></svg>