<svg width="230" height="48" viewBox="0 0 230 48" fill="none" xmlns="http://www.w3.org/2000/svg"><g clip-path="url(#clip0_3215_183)"><path d="M93.7931 48H5.5908C2.50115 48 0 45.4989 0 42.4092V5.5908C0 2.50115 2.50115 0 5.5908 0H93.7931V48Z" fill="url(#paint0_linear_3215_183)"/><path d="M224.294 48H93.793V0H224.294C227.384 0 229.885 2.50115 229.885 5.5908V42.4276C229.885 45.4989 227.384 48 224.294 48Z" fill="url(#paint1_linear_3215_183)"/><path d="M28.6527 29.1125C28.6527 30.9332 28.3953 32.386 27.8987 33.4711C27.4022 34.5561 26.7401 35.3837 25.9493 35.9355C25.1585 36.5056 24.2757 36.8734 23.301 37.0573C22.3263 37.2412 21.37 37.3332 20.432 37.3332H11.1079V10.8688H21.37C22.6941 10.8688 23.7608 11.0895 24.6068 11.5309C25.4527 11.9722 26.1148 12.5423 26.6114 13.2596C27.1079 13.9768 27.4389 14.7676 27.6229 15.632C27.8068 16.4964 27.8803 17.3607 27.8619 18.1883C27.8251 20.5975 27.2183 22.2343 26.0412 23.0987C26.8137 23.4665 27.4389 24.1286 27.9355 25.0849C28.4137 26.0596 28.6527 27.4021 28.6527 29.1125ZM22.9148 18.2803C22.9148 17.4527 22.8229 16.8274 22.6206 16.4228C22.4183 16.0182 22.032 15.8159 21.4435 15.8159H16.1286V21.0941H20.9654C21.7194 21.0941 22.216 20.8366 22.4918 20.34C22.7677 19.8251 22.9148 19.1263 22.9148 18.2803ZM23.6137 29.1492C23.6137 28.4136 23.5585 27.8251 23.4297 27.4021C23.3194 26.9791 23.1539 26.6297 22.97 26.3906C22.7861 26.1515 22.5838 25.986 22.3447 25.9125C22.124 25.8389 21.9033 25.8021 21.6826 25.8021H16.1286V32.1469H21.2596C22.1424 32.1469 22.7677 31.9079 23.0987 31.4481C23.4481 30.9699 23.6137 30.2159 23.6137 29.1492ZM48.7723 37.3332H31.9631V10.8688H48.478V15.9998H36.9654V20.8734H47.5585V26.0044H36.9654V32.1653H48.7723V37.3332ZM68.2297 29.5171C68.2297 35.0895 65.232 37.8849 59.2366 37.8849C56.3309 37.8849 54.1056 37.0573 52.5792 35.4205C51.0527 33.7653 50.2987 31.2274 50.2987 27.7883H55.1723C55.2091 28.5424 55.301 29.2596 55.4297 29.8849C55.5585 30.5286 55.7976 31.0619 56.1286 31.5217C56.4596 31.9814 56.8826 32.3309 57.416 32.5883C57.9493 32.8458 58.6297 32.9745 59.4573 32.9745C60.8182 32.9745 61.793 32.7171 62.3999 32.2205C63.0068 31.724 63.3194 30.7309 63.3194 29.2964C63.3194 28.5423 63.1907 27.9906 62.9516 27.6596C62.7125 27.3286 62.3263 27.0711 61.8114 26.8688C61.2229 26.6481 60.5056 26.4826 59.678 26.3538C58.8504 26.2251 57.8941 26.0228 56.8274 25.7286C55.9999 25.4895 55.2274 25.2136 54.5286 24.901C53.8297 24.5883 53.2045 24.1653 52.6711 23.5952C52.1378 23.0251 51.7332 22.2895 51.4389 21.3883C51.1447 20.4872 50.9976 19.2918 50.9976 17.8205C50.9976 16.7355 51.1263 15.7975 51.4022 15.0067C51.6596 14.2159 52.0274 13.5355 52.4688 12.9837C52.9102 12.432 53.4252 11.9906 53.9953 11.6412C54.5838 11.2918 55.1723 11.0343 55.7792 10.8504C56.3861 10.6665 56.993 10.5378 57.5999 10.4826C58.2068 10.4274 58.7769 10.3906 59.2734 10.3906C61.0022 10.3906 62.4183 10.6665 63.4849 11.1998C64.57 11.7332 65.3976 12.4504 66.0045 13.2964C66.6114 14.1607 67.016 15.1355 67.2183 16.2021C67.4206 17.2872 67.5309 18.3538 67.5309 19.4021H62.7493C62.6757 18.9607 62.6206 18.4642 62.5654 17.9309C62.5286 17.3975 62.3999 16.9194 62.216 16.5332C62.0504 16.1837 61.7746 15.8711 61.3516 15.5952C60.9286 15.3194 60.2665 15.1722 59.3654 15.1722C58.6665 15.1722 58.078 15.2274 57.6183 15.3561C57.1585 15.4849 56.8091 15.6688 56.5516 15.9079C56.2941 16.1469 56.1102 16.478 56.0183 16.8642C55.9263 17.2504 55.8711 17.7286 55.8711 18.2619C55.8711 18.9056 56.0183 19.3653 56.2941 19.6412C56.57 19.9171 57.1033 20.1561 57.8757 20.3584C58.6849 20.5791 59.4941 20.763 60.3217 20.9102C61.1493 21.0573 61.9401 21.2412 62.7125 21.4435C63.4849 21.6458 64.2022 21.9217 64.8642 22.2711C65.5263 22.6205 66.1148 23.0803 66.6114 23.6872C67.1079 24.2941 67.5125 25.0665 67.7884 26.0044C68.101 26.9423 68.2297 28.1194 68.2297 29.5171ZM86.4918 15.9814H80.4412V37.3332H75.4205V15.9814H69.37V10.8688H86.4734V15.9814H86.4918Z" fill="white"/><path d="M118.934 27.6049C118.823 28.9842 118.584 30.29 118.216 31.5405C117.849 32.7911 117.315 33.8762 116.616 34.7957C115.917 35.7336 114.998 36.4693 113.876 37.021C112.754 37.5727 111.393 37.8486 109.793 37.8486C107.954 37.8486 106.391 37.5359 105.104 36.9107C103.816 36.2854 102.786 35.3658 101.977 34.1888C101.186 32.9934 100.598 31.5221 100.249 29.775C99.8807 28.0279 99.6968 26.0417 99.6968 23.798C99.6968 21.7382 99.8991 19.8624 100.285 18.2072C100.671 16.552 101.278 15.1359 102.106 13.9589C102.934 12.8003 103.982 11.8992 105.232 11.2739C106.501 10.6486 108.009 10.3359 109.757 10.3359C111.522 10.3359 112.957 10.6118 114.078 11.1635C115.2 11.7152 116.083 12.4325 116.763 13.3152C117.426 14.198 117.904 15.2095 118.198 16.3313C118.492 17.4532 118.694 18.5934 118.823 19.7152H114.078C113.968 19.1267 113.839 18.5566 113.692 18.0233C113.563 17.49 113.343 17.0118 113.067 16.6256C112.791 16.2394 112.405 15.9267 111.927 15.6877C111.449 15.4486 110.805 15.3382 109.996 15.3382C109.021 15.3382 108.193 15.5038 107.531 15.8164C106.869 16.129 106.317 16.644 105.913 17.3612C105.508 18.0785 105.214 19.0164 105.03 20.175C104.846 21.3336 104.773 22.7681 104.773 24.4785C104.773 26.2072 104.901 27.5865 105.14 28.6716C105.38 29.7382 105.729 30.5842 106.17 31.1727C106.612 31.7796 107.145 32.1842 107.789 32.4049C108.432 32.6256 109.131 32.7359 109.922 32.7359C110.731 32.7359 111.357 32.6072 111.835 32.3681C112.313 32.129 112.681 31.7796 112.957 31.3198C113.232 30.8601 113.453 30.3267 113.6 29.7015C113.766 29.0762 113.913 28.3773 114.078 27.5865H118.934V27.6049ZM139.071 37.3336H134.069V25.9129H126.529V37.3336H121.527V10.8693H126.529V20.7451H134.069V10.8693H139.071V37.3336ZM160.166 37.3336H154.924L153.545 31.8716H146.888L145.527 37.3336H140.469L147.715 10.8693H152.681L160.166 37.3336ZM152.294 26.9428L150.235 18.4279L148.12 26.9428H152.294ZM174.86 37.3336L167.209 21.2233V37.3336H162.207V10.8693H167.117L174.823 26.8693V10.8693H179.789V37.3336H174.86ZM202.354 37.3336H198.29V34.6486C197.996 35.2923 197.628 35.8072 197.186 36.2118C196.745 36.6164 196.267 36.929 195.752 37.1681C195.237 37.4072 194.685 37.5543 194.134 37.6463C193.582 37.7382 193.03 37.775 192.497 37.775C190.658 37.775 189.113 37.4256 187.881 36.7084C186.648 35.9911 185.655 35.0164 184.901 33.7658C184.147 32.5152 183.614 31.0256 183.301 29.3152C182.989 27.6049 182.823 25.7658 182.823 23.798C182.823 14.8233 186.189 10.3359 192.938 10.3359C194.612 10.3359 196.009 10.6118 197.168 11.1451C198.327 11.6785 199.265 12.4141 199.982 13.2969C200.699 14.198 201.214 15.2279 201.527 16.3681C201.839 17.5267 202.005 18.7221 202.005 19.9359H196.892C196.892 19.4026 196.855 18.8509 196.782 18.2808C196.708 17.7107 196.543 17.2141 196.285 16.7727C196.028 16.3313 195.623 15.9635 195.09 15.6877C194.557 15.4118 193.839 15.2647 192.92 15.2647C192 15.2647 191.209 15.4118 190.584 15.7244C189.94 16.0371 189.426 16.5152 189.021 17.1773C188.616 17.8394 188.322 18.7038 188.138 19.752C187.954 20.8003 187.862 22.0693 187.862 23.5405C187.862 25.1589 187.936 26.5566 188.101 27.7152C188.267 28.8739 188.543 29.8118 188.947 30.5106C189.352 31.2279 189.885 31.7428 190.547 32.0739C191.209 32.4049 192.055 32.5704 193.085 32.5704C193.674 32.5704 194.226 32.4785 194.759 32.2946C195.292 32.1107 195.752 31.8164 196.138 31.4302C196.524 31.044 196.837 30.529 197.058 29.9221C197.278 29.3152 197.37 28.5796 197.352 27.7152H192.644V22.8417H202.391V37.3336H202.354ZM222.271 37.3336H205.499V10.8693H221.977V16.0003H210.501V20.8739H221.058V26.0049H210.501V32.1658H222.271V37.3336Z" fill="#363636"/></g><defs><linearGradient id="paint0_linear_3215_183" x1="46.8971" y1="48" x2="46.8971" y2="0" gradientUnits="userSpaceOnUse"><stop stop-color="#1C1C1C"/><stop offset="1" stop-color="#4B4B4B"/></linearGradient><linearGradient id="paint1_linear_3215_183" x1="161.839" y1="48" x2="161.839" y2="0" gradientUnits="userSpaceOnUse"><stop stop-color="#BCBCBC"/><stop offset="1" stop-color="#F3F3F3"/></linearGradient><clipPath id="clip0_3215_183"><rect width="229.885" height="48" fill="white"/></clipPath></defs></svg>