<svg width="48" height="48" viewBox="0 0 48 48" fill="none" xmlns="http://www.w3.org/2000/svg">
<g id="business_center_FILL0_wght400_GRAD0_opsz48 1">
<path id="Vector" d="M7 42C6.2 42 5.5 41.7 4.9 41.1C4.3 40.5 4 39.8 4 39V14.55C4 13.75 4.3 13.05 4.9 12.45C5.5 11.85 6.2 11.55 7 11.55H16.5V7C16.5 6.2 16.8 5.5 17.4 4.9C18 4.3 18.7 4 19.5 4H28.5C29.3 4 30 4.3 30.6 4.9C31.2 5.5 31.5 6.2 31.5 7V11.55H41C41.8 11.55 42.5 11.85 43.1 12.45C43.7 13.05 44 13.75 44 14.55V39C44 39.8 43.7 40.5 43.1 41.1C42.5 41.7 41.8 42 41 42H7ZM19.5 11.55H28.5V7H19.5V11.55ZM41 29.45H28.55V32.45H19.55V29.45H7V39H41V29.45ZM22.55 29.45H25.55V26.45H22.55V29.45ZM7 26.45H19.55V23.45H28.55V26.45H41V14.55H7V26.45Z" fill="#02C076"/>
</g>
</svg>
