<svg width="95" height="40" viewBox="0 0 95 40" fill="none" xmlns="http://www.w3.org/2000/svg"><g clip-path="url(#clip0_3310_348)"><mask id="mask0_3310_348" style="mask-type:luminance;" maskUnits="userSpaceOnUse" x="0" y="0" width="95" height="40"><path d="M94.4808 0H0V40H94.4808V0Z" fill="white"/></mask><g mask="url(#mask0_3310_348)"><path d="M17.7865 24.2441L15.6719 26.3587H10.5188L8.12744 23.9673V16.2401L10.5188 13.834H15.5286L17.6433 15.9535L16.8527 16.7441L15.0099 14.9209H11.0573L9.34287 16.6353V23.5523L11.0573 25.2667H15.158L17.0009 23.4437L17.7865 24.2441Z" fill="#F0F0F0" stroke="#F0F0F0" stroke-width="1.67787" stroke-miterlimit="10"/><path d="M22.9247 17.9298V18.6215H21.8278L20.6322 19.832V23.3548H19.9404V17.9199H20.563L20.5976 19.1601L21.8377 17.9199L22.9247 17.9298Z" fill="#F0F0F0" stroke="#F0F0F0" stroke-width="0.806324" stroke-miterlimit="10"/><path d="M29.6046 17.9297L26.7934 24.9109L26.0029 25.6915H24.8467V25.0789H25.7212L26.2153 24.5849L26.7489 23.2212L24.4663 17.9297H25.1976L27.0997 22.4258L28.8685 17.9297H29.6046Z" fill="#F0F0F0" stroke="#F0F0F0" stroke-width="0.806324" stroke-miterlimit="10"/><path d="M35.8103 19.071V21.8428L34.328 23.3546H31.8034V25.6915H31.1265V17.9297H31.754L31.7885 19.0611L32.915 17.9297H34.6838L35.8103 19.071ZM35.1186 21.6303V19.3378L34.3429 18.5572H32.9595L31.8034 19.7183V22.7271H34.0218L35.1186 21.6303Z" fill="#F0F0F0" stroke="#F0F0F0" stroke-width="0.806324" stroke-miterlimit="10"/><path d="M39.3974 18.5574V22.0801L40.0496 22.7273H41.2551V23.3548H39.7235L38.7058 22.3667V18.5574H37.2729V17.9299H38.7552L38.8984 15.7461H39.3925V17.9299H41.2551V18.5574H39.3974Z" fill="#F0F0F0" stroke="#F0F0F0" stroke-width="0.806324" stroke-miterlimit="10"/><path d="M47.668 19.071V22.233L46.5267 23.3744H44.0167L42.8755 22.233V19.071L44.0167 17.9297H46.5267L47.668 19.071ZM46.9713 21.9811V19.318L46.2203 18.5572H44.3182L43.5721 19.318V21.9811L44.3182 22.7271H46.2203L46.9713 21.9811Z" fill="#F0F0F0" stroke="#F0F0F0" stroke-width="0.806324" stroke-miterlimit="10"/><path d="M49.5654 15.3809H50.262V16.5765H49.5654V15.3809ZM49.5654 17.9303H50.262V23.365H49.5654V17.9303Z" fill="#EE2A7B" stroke="#EE2A7B" stroke-width="0.498024" stroke-miterlimit="10"/><path d="M56.6453 21.1758V22.4356L55.7312 23.3546H52.7668L51.8774 22.4604L52.3369 22.0009L53.0731 22.7419H55.4002L55.9387 22.2034V21.4079L55.5139 20.983L52.8656 20.8052L52.0702 20.0098V18.8487L52.9891 17.9297H55.6324L56.4921 18.7745L56.0326 19.234L55.3359 18.5572H53.3004L52.7619 19.0809V19.7627L53.1868 20.1876L55.8399 20.3654L56.6453 21.1758Z" fill="#EE2A7B" stroke="#EE2A7B" stroke-width="0.498024" stroke-miterlimit="10"/><path d="M62.7468 22.3714L61.7587 23.3595H59.2883L58.1421 22.233V19.071L59.2883 17.9297H61.6944L62.6826 18.9179L62.2329 19.3774L61.4178 18.5621H59.5946L58.8436 19.3229V21.986L59.5897 22.7271H61.4672L62.2823 21.9119L62.7468 22.3714Z" fill="#EE2A7B" stroke="#EE2A7B" stroke-width="0.498024" stroke-miterlimit="10"/><path d="M68.8736 19.071V22.233L67.7322 23.3744H65.2175L64.0811 22.233V19.071L65.2175 17.9297H67.7273L68.8736 19.071ZM68.1819 21.9811V19.318L67.4358 18.5572H65.5336L64.7826 19.318V21.9811L65.5287 22.7271H67.4309L68.1819 21.9811Z" fill="#EE2A7B" stroke="#EE2A7B" stroke-width="0.498024" stroke-miterlimit="10"/><path d="M78.4138 18.8931V23.3398H77.7172V19.1501L77.1243 18.5572H75.815L74.9454 19.4267V23.3793H74.2488V19.1946L73.6163 18.5572H72.4553L71.4672 19.5453V23.3596H70.7705V17.9248H71.398L71.4326 18.8734L72.3812 17.9248H73.9375L74.8565 18.8289L75.7607 17.9248H77.4603L78.4138 18.8931Z" fill="#EE2A7B" stroke="#EE2A7B" stroke-width="0.498024" stroke-miterlimit="10"/><path d="M80.4346 15.3809H81.1312V16.5765H80.4346V15.3809ZM80.4346 17.9303H81.1312V23.365H80.4346V17.9303Z" fill="#EE2A7B" stroke="#EE2A7B" stroke-width="0.498024" stroke-miterlimit="10"/><path d="M87.8065 18.8933V23.3399H87.1149V19.1502L86.5215 18.5573H85.069L83.9132 19.7183V23.3548H83.2212V17.9199H83.849L83.8832 19.0513L85.0099 17.9199H86.8474L87.8065 18.8933Z" fill="#EE2A7B" stroke="#EE2A7B" stroke-width="0.498024" stroke-miterlimit="10"/><path d="M94.2734 24.4069L92.9742 25.6915H90.5042L89.7084 24.8961L90.1684 24.4465L90.7959 25.0739H92.6634L93.5776 24.2094V22.233L92.4509 23.3644H90.7017L89.5601 22.233V19.4415L91.0726 17.9297H94.2734V24.4069ZM93.5776 21.5414V18.5769H91.3542L90.2567 19.6738V21.9663L91.0376 22.7271H92.3917L93.5776 21.5414Z" fill="#EE2A7B" stroke="#EE2A7B" stroke-width="0.498024" stroke-miterlimit="10"/><path d="M20.3212 27.1443L16.4723 30.9536H8.42392L4.8419 27.3765V12.8953L8.42392 9.31325H16.2006L20.0543 13.1275L23.4585 9.92592L18.2411 4.70356H13.9229V0H12.1196V4.70356H10.7658V0H8.96242V4.70356H5.89921L0 10.6027V29.664L5.89921 35.5632H8.96242V40H10.7658V35.5632H12.1196V40H13.9229V35.5632H18.5623L23.7797 30.3458L20.3212 27.1443Z" fill="url(#paint0_linear_3310_348)"/></g></g><defs><linearGradient id="paint0_linear_3310_348" x1="0" y1="20" x2="23.7797" y2="20" gradientUnits="userSpaceOnUse"><stop stop-color="#533FEA"/><stop offset="0.11" stop-color="#593FE2"/><stop offset="0.79" stop-color="#EE2A7B"/></linearGradient><clipPath id="clip0_3310_348"><rect width="95" height="40" fill="white"/></clipPath></defs></svg>