<svg width="137" height="40" viewBox="0 0 137 40" fill="none" xmlns="http://www.w3.org/2000/svg"><g clip-path="url(#clip0_3310_253)"><path d="M69.9621 33.0754H68.83C68.3772 33.0754 67.981 32.6792 67.981 32.2263V31.2075C67.981 30.7546 68.3772 30.3584 68.83 30.3584H69.9621C70.4149 30.3584 70.8111 30.7546 70.8111 31.2075V32.2263C70.7545 32.6792 70.4149 33.0754 69.9621 33.0754Z" fill="#D34A46"/><path d="M70.019 33.3017H68.7171C68.1511 33.3017 67.7549 32.8489 67.7549 32.3395V31.2074C67.7549 30.6413 68.2077 30.2451 68.7171 30.2451H70.019C70.5851 30.2451 70.9813 30.6979 70.9813 31.2074V32.3395C71.0379 32.8489 70.5851 33.3017 70.019 33.3017ZM68.7738 30.6413C68.4907 30.6413 68.2643 30.8678 68.2643 31.1508V32.2829C68.2643 32.5659 68.4907 32.7923 68.7738 32.7923H70.0756C70.3587 32.7923 70.5851 32.5659 70.5851 32.2829V31.1508C70.5851 30.8678 70.3587 30.6413 70.0756 30.6413H68.7738Z" fill="black"/><path opacity="0.3" d="M70.0757 30.3584H68.6606C68.2077 30.3584 67.8115 30.8678 67.8115 31.4339V32.1697C67.8115 31.5471 68.1511 31.0942 68.6606 31.0942H70.0757C70.5285 31.0942 70.9247 31.6037 70.9247 32.1697V31.3773C70.8681 30.8112 70.5285 30.3584 70.0757 30.3584Z" fill="black"/><path d="M64.9246 29.2834L64.3585 29.1136C64.0755 29.0004 63.7359 29.1702 63.6227 29.4532L63.1698 30.9249L63.0566 31.6608V31.8872L63.1698 32.623L63.6227 34.0947C63.7359 34.3777 64.0755 34.5475 64.3585 34.4343L64.9246 34.2645C65.9434 33.9249 66.9057 33.4721 67.8114 32.8494C67.9812 32.7362 68.0378 32.5664 68.0378 32.3966V31.1513C68.0378 30.9815 67.9246 30.8117 67.8114 30.6985C66.9057 30.1325 65.9434 29.623 64.9246 29.2834Z" fill="#EF5D52"/><path d="M64.1319 34.717L63.7357 34.6038C63.5659 34.4906 63.3961 34.3208 63.3395 34.1509L62.8866 32.6792L62.7734 31.8868V31.6604L62.8866 30.8679L63.3395 29.3962C63.3961 29.1698 63.5659 29.0566 63.7357 28.9434C63.9621 28.8302 64.1885 28.8302 64.3583 28.8868L64.9244 29.0566C65.9998 29.3962 66.9621 29.9057 67.8678 30.5283C68.0942 30.6981 68.2074 30.9245 68.2074 31.1509V32.3962C68.2074 32.6226 68.0942 32.9057 67.8678 33.0189C66.9621 33.6415 65.9998 34.1509 64.9244 34.4906L64.3583 34.6604L64.1319 34.717ZM64.1319 29.283L63.9621 29.3396L63.7923 29.5094L63.3395 30.9811L63.2263 31.6604V31.8868L63.3395 32.566L63.7923 34.0377L63.9621 34.2075H64.2451L64.8112 34.0377C65.8225 33.7163 66.7774 33.2388 67.6414 32.6226L67.7546 32.3962V31.1509L67.6414 30.9245C66.7774 30.3083 65.8225 29.8309 64.8112 29.5094L64.2451 29.3396L64.1319 29.283Z" fill="black"/><path d="M73.8681 29.2834L74.4341 29.1136C74.7171 29.0004 75.0568 29.1702 75.17 29.4532L75.6228 30.9249L75.736 31.6608V31.8872L75.6228 32.623L75.17 34.0947C75.0568 34.3777 74.7171 34.5475 74.4341 34.4343L73.8681 34.2645C72.8492 33.9249 71.887 33.4721 70.9813 32.8494C70.911 32.7967 70.8539 32.7283 70.8146 32.6497C70.7753 32.5711 70.7549 32.4845 70.7549 32.3966V31.1513C70.7549 30.9815 70.8681 30.8117 70.9813 30.6985C71.887 30.1325 72.8492 29.623 73.8681 29.2834Z" fill="#EF5D52"/><path d="M74.6604 34.717L74.3774 34.6604L73.8113 34.4906C72.7359 34.1509 71.7736 33.6415 70.8679 33.0189C70.6415 32.8491 70.5283 32.6226 70.5283 32.3962V31.1509C70.5283 30.9245 70.6415 30.6415 70.8679 30.5283C71.7736 29.9057 72.7359 29.3962 73.8113 29.0566L74.3774 28.8868C74.6038 28.8302 74.8302 28.8302 75 28.9434C75.1698 29.0566 75.3396 29.2264 75.3962 29.3962L75.8491 30.8679L75.9623 31.6604V31.8868L75.8491 32.6792L75.3962 34.1509C75.3396 34.3774 75.1698 34.4906 75 34.6038L74.6604 34.717ZM74.6604 29.283H74.5472L73.9811 29.4528C72.9623 29.7925 72.0566 30.2453 71.151 30.8679L71.0378 31.0943V32.3396L71.151 32.566C72.0149 33.1822 72.9698 33.6597 73.9811 33.9811L74.5472 34.1509H74.8302L75 33.9811L75.4529 32.5094L75.5661 31.8302V31.6038C75.5561 31.3736 75.5181 31.1455 75.4529 30.9245L75 29.4528L74.8302 29.283H74.6604Z" fill="black"/><path d="M75.7358 30.9249L75.2829 29.4532C75.1697 29.1702 74.8301 29.0004 74.5471 29.1136L73.9811 29.2834C72.9622 29.623 71.9999 30.0759 71.0943 30.6985C70.9811 30.7551 70.9245 30.8683 70.8678 31.0381C71.6603 30.5287 72.5094 30.1325 73.415 29.8494L73.9811 29.6796C74.2641 29.5664 74.6037 29.7362 74.7169 30.0192L75.1697 31.4909L75.2829 32.2268V32.4532L75.1697 33.1891L74.7735 34.4909C74.9999 34.4909 75.2263 34.3211 75.2829 34.0947L75.7358 32.623L75.849 31.8872V31.6608L75.7358 30.9249ZM62.9999 30.9249L63.4528 29.4532C63.566 29.1702 63.9056 29.0004 64.1886 29.1136L64.7546 29.2834C65.7735 29.623 66.7358 30.0759 67.6414 30.6985C67.7546 30.7551 67.8112 30.8683 67.8679 31.0381C67.0754 30.5287 66.2263 30.1325 65.3207 29.8494L64.7546 29.6796C64.4716 29.5664 64.132 29.7362 64.0188 30.0192L63.566 31.4909L63.4528 32.2268V32.4532L63.566 33.1891L63.9622 34.4909C63.847 34.4847 63.7365 34.4434 63.6455 34.3725C63.5544 34.3017 63.4872 34.2048 63.4528 34.0947L62.9999 32.623L62.8867 31.8872V31.6608L62.9999 30.9249Z" fill="black"/><path d="M65.6602 30.8682L67.9809 31.604L65.6602 30.8682Z" fill="#EF5D52"/><path d="M67.9812 31.8869H67.9246L65.6039 31.0944C65.5495 31.0709 65.5039 31.031 65.4734 30.9802C65.443 30.9295 65.4292 30.8704 65.4341 30.8114C65.4907 30.6982 65.6039 30.6416 65.7171 30.6416L68.0378 31.4341C68.151 31.4907 68.2076 31.6039 68.2076 31.7171C68.2076 31.7737 68.0944 31.8869 67.9812 31.8869Z" fill="black"/><path d="M67.9809 31.8867L65.6602 32.6792L67.9809 31.8867Z" fill="#EF5D52"/><path d="M65.6602 32.9052C65.547 32.9052 65.4904 32.8486 65.4338 32.7354C65.3772 32.6222 65.4338 32.4524 65.6036 32.4524L67.9244 31.6599C68.0376 31.6033 68.2074 31.6599 68.2074 31.8297C68.264 31.9429 68.2074 32.1127 68.0376 32.1127L65.7168 32.9052H65.6602Z" fill="black"/><path d="M73.1323 30.8682L70.8115 31.604L73.1323 30.8682Z" fill="#EF5D52"/><path d="M70.8111 31.8866C70.6979 31.8866 70.6413 31.83 70.5847 31.7168C70.5281 31.6036 70.5847 31.4338 70.7545 31.4338L73.0753 30.6413C73.1885 30.5847 73.3583 30.6413 73.3583 30.8112C73.4149 30.9244 73.3583 31.0942 73.1885 31.0942L70.8677 31.8866H70.8111Z" fill="black"/><path d="M70.8115 31.8867L73.1323 32.6792L70.8115 31.8867Z" fill="#EF5D52"/><path d="M73.1321 32.9054H73.0755L70.7548 32.113C70.7004 32.0895 70.6548 32.0496 70.6243 31.9988C70.5939 31.948 70.5801 31.889 70.5849 31.83C70.6415 31.7168 70.7547 31.6602 70.868 31.6602L73.1887 32.4526C73.3019 32.5092 73.3585 32.6224 73.3585 32.7356C73.3585 32.8488 73.2453 32.9054 73.1321 32.9054Z" fill="black"/><path d="M77.1511 21.2454L79.4152 21.8114C78.8492 21.2454 78.3963 20.2265 78.0567 19.3209C79.868 20.1699 81.3397 20.2831 81.3397 20.2831C81.3397 20.2831 79.4718 18.585 78.8492 17.5095L81.3397 17.6227C79.868 16.7171 79.9813 13.2643 79.9813 13.2643C79.1888 6.64161 72.736 7.09444 72.736 7.09444L72.6228 7.49067C72.2265 9.01897 70.9812 14.8492 72.9624 18.868C75.2831 23.5095 78.1699 23.5095 78.1699 23.5095L77.1511 21.2454Z" fill="#44403D"/><path d="M78.1134 23.7922C77.887 23.7922 75.0002 23.7356 72.6795 19.0374C70.6417 14.962 71.887 9.18839 72.3399 7.49027L72.4531 7.09405C72.5097 6.98084 72.5663 6.92424 72.6795 6.92424C72.7361 6.92424 74.3776 6.81103 76.1323 7.54688C77.7738 8.22612 79.8116 9.75442 80.2078 13.3205V13.3771C80.2078 14.2827 80.3776 16.7733 81.4531 17.4525C81.5663 17.5091 81.6229 17.679 81.5663 17.7922C81.5097 17.9054 81.3965 18.0186 81.2833 17.962L79.3587 17.8488C80.0946 18.8676 81.4531 20.1129 81.5097 20.1129C81.6229 20.1695 81.6229 20.3393 81.5663 20.4525C81.5097 20.5657 81.3965 20.6224 81.2833 20.6224C81.2267 20.6224 80.038 20.5657 78.5097 19.8865C78.7406 20.5406 79.1071 21.1386 79.5851 21.6412C79.6984 21.7544 79.6983 21.8676 79.6417 21.9808C79.5851 22.094 79.4719 22.1507 79.3021 22.094L77.604 21.6412L78.3399 23.3393V23.6224C78.3399 23.7356 78.2267 23.7922 78.1134 23.7922ZM72.9059 7.43367L72.8493 7.60348C72.6795 8.28273 72.2267 10.1507 72.1134 12.3016C71.8991 14.5042 72.2498 16.725 73.1323 18.7544C74.7738 22.094 76.6984 22.9431 77.604 23.1695L76.8682 21.3582C76.8116 21.245 76.8682 21.1318 76.9248 21.0752C76.9814 21.0186 77.0946 20.962 77.2078 21.0186L78.6229 21.4148C78.2833 20.9054 78.0002 20.2827 77.7172 19.4903C77.6606 19.3771 77.7172 19.2639 77.7738 19.2073C77.887 19.1507 78.0002 19.094 78.0568 19.1507C78.9625 19.6035 79.8116 19.8299 80.3776 19.9431C79.6621 19.2701 79.0345 18.5093 78.5097 17.679V17.3959C78.5663 17.2827 78.6795 17.2827 78.7927 17.2827L80.5474 17.3959C79.5851 16.094 79.6417 13.6601 79.6417 13.3771C79.3587 10.7733 78.0568 8.96197 75.9059 8.05631C74.9784 7.5876 73.9433 7.37278 72.9059 7.43367Z" fill="black"/><path d="M61.8112 21.0188L59.5471 21.5849C60.1131 21.0188 60.566 20 60.9056 19.0943C59.0943 19.9434 57.6226 20.0566 57.6226 20.0566C57.6226 20.0566 59.4905 18.3584 60.1131 17.283L57.6226 17.3962C59.0943 16.4905 58.981 13.0377 58.981 13.0377C59.7735 6.41505 66.2263 6.86788 66.2263 6.86788L66.3395 7.26411C66.7358 8.79241 67.981 14.6226 65.9999 18.6415C63.6792 23.283 60.7924 23.283 60.7924 23.283C60.7924 23.283 61.3584 22.2075 61.8112 21.0188Z" fill="#44403D"/><path d="M60.8488 23.509L60.6224 23.3958V23.1128L61.3583 21.4147L59.6602 21.8675C59.5469 21.9241 59.4337 21.8675 59.3205 21.7543C59.2639 21.6411 59.2639 21.5279 59.3771 21.4147C59.7168 21.075 60.113 20.4524 60.4526 19.6599C58.9243 20.2826 57.7356 20.3392 57.679 20.3958C57.62 20.4006 57.561 20.3869 57.5102 20.3564C57.4594 20.3259 57.4195 20.2803 57.396 20.226C57.3394 20.1128 57.396 19.9996 57.4526 19.8864C57.4526 19.8864 58.8111 18.5845 59.6036 17.6222L57.679 17.7354C57.62 17.7403 57.561 17.7265 57.5102 17.696C57.4594 17.6656 57.4195 17.62 57.396 17.5656C57.3394 17.4524 57.396 17.2826 57.5092 17.226C58.5847 16.5467 58.7545 14.0562 58.7545 13.1505V13.0939C59.1507 9.52786 61.1885 7.99956 62.83 7.32032C64.5847 6.58447 66.2262 6.69767 66.2828 6.69767C66.396 6.69767 66.5092 6.81088 66.5092 6.86749L66.6224 7.26371C67.0752 8.96182 68.2639 14.7354 66.2828 18.8109C63.962 23.4524 61.0752 23.509 60.8488 23.509ZM61.8111 20.7354L62.0375 20.8486C62.0941 20.9052 62.1507 21.0184 62.0941 21.1316L61.3583 22.943C62.2639 22.7165 64.1885 21.8675 65.83 18.5845C66.7378 16.5625 67.0895 14.3349 66.8488 12.1316C66.7356 9.98069 66.2828 8.11277 66.113 7.43352L66.0564 7.26371C65.6035 7.26371 64.3017 7.32032 62.9998 7.82975C60.8488 8.73541 59.6035 10.5467 59.2639 13.1505C59.2639 13.4335 59.2639 15.8675 58.3583 17.1694L60.113 17.0562L60.396 17.1694V17.4524C59.9998 18.1316 59.0941 19.0939 58.5281 19.7165C59.0941 19.6033 59.9432 19.3769 60.8488 18.9241C60.962 18.8675 61.0752 18.8675 61.1319 18.9807C61.2451 19.0373 61.2451 19.1505 61.1885 19.2637C60.9054 20.0562 60.6224 20.6788 60.2828 21.1882L61.6979 20.792L61.8111 20.7354Z" fill="black"/><path d="M61.9246 17.17L61.6416 16.8304C61.0756 16.1512 59.9435 16.4342 59.7737 17.2833V17.4531C59.7171 17.8493 59.7737 18.2455 59.8869 18.5851L59.9435 18.755L60.3397 19.4342L60.6793 20.2833L60.9623 21.2455L61.019 21.5285V21.8116L61.1888 22.1512C61.4152 22.4342 61.868 22.4908 62.2076 22.2078L62.5473 21.9248" fill="#FFF6D6"/><path d="M61.6414 22.7733C61.3584 22.7733 61.0753 22.6601 60.9055 22.4337C60.7357 22.2639 60.6791 22.0941 60.6791 21.8677V21.5846L60.6225 21.4148L60.3395 20.4526C60.2829 20.1695 60.1697 19.8865 59.9999 19.6601L59.6036 18.9243L59.547 18.6978C59.4338 18.3016 59.3772 17.9054 59.4338 17.4526V17.2261C59.547 16.7167 59.8867 16.3205 60.4527 16.2073C60.9621 16.0941 61.5282 16.2639 61.8112 16.6601L62.0942 16.9997L61.6414 17.3394L61.3584 16.9997C61.1319 16.7167 60.7923 16.6601 60.5659 16.7167C60.2829 16.7733 60.0565 16.9997 59.9999 17.2828V17.4526C59.9433 17.7922 59.9999 18.1318 60.0565 18.4714L60.1131 18.6412L60.4527 19.3205L60.8489 20.2261L61.1319 21.1884L61.1885 21.528V21.8111L61.2451 21.9809C61.415 22.1507 61.698 22.1507 61.8678 22.0375L62.2074 21.7545L62.547 22.2073L62.264 22.5469C62.0942 22.7167 61.8678 22.7733 61.6414 22.7733Z" fill="black"/><path d="M61.0187 21.6415H60.9055C60.8489 21.5848 60.7923 21.4716 60.8489 21.415C61.1319 20.9622 61.0753 20.3962 60.9621 19.9433C60.8489 19.3773 60.6225 18.9245 60.3961 18.5282C60.3395 18.4716 60.3395 18.3584 60.4527 18.3018C60.5093 18.2452 60.6225 18.2452 60.6791 18.3584C60.9621 18.7547 61.1885 19.2641 61.3017 19.8867C61.4715 20.6226 61.4149 21.1886 61.1319 21.5848L61.0187 21.6415Z" fill="black"/><path d="M76.8111 17.17L77.0941 16.8304C77.6602 16.1512 78.7922 16.4342 78.9621 17.2833V17.4531C79.0187 17.8493 78.9621 18.2455 78.8489 18.5851L78.7922 18.755L78.396 19.4342L78.0564 20.2833L77.7734 21.2455L77.7168 21.5285V21.8116L77.547 22.1512C77.3205 22.4342 76.8677 22.4908 76.5281 22.2078L76.1885 21.9248" fill="#FFF6D6"/><path d="M77.0941 22.7733C76.8677 22.7733 76.6413 22.7167 76.4715 22.5469L76.1318 22.2639L76.4715 21.8111L76.8111 22.0941C76.9809 22.2639 77.2639 22.2073 77.4337 22.0375L77.4903 21.8677V21.5846L77.5469 21.245L77.8299 20.2828L78.2262 19.3771L78.5658 18.6978L78.6224 18.528C78.7356 18.1884 78.7356 17.8488 78.679 17.5092V17.3394C78.6224 17.0563 78.396 16.8299 78.113 16.7733C77.8866 16.7167 77.5469 16.7733 77.3205 16.9997L77.0375 17.3394L76.5847 16.9997L76.8677 16.6601C77.2073 16.2639 77.7167 16.0941 78.2262 16.2073C78.7356 16.3205 79.1318 16.7167 79.245 17.2261V17.396C79.3016 17.8488 79.245 18.245 79.1318 18.6412L79.0752 18.8677V18.9243L78.679 19.6035L78.3394 20.396L78.0564 21.3582L77.9998 21.528V21.8111C77.9998 21.9809 77.9432 22.2073 77.7733 22.3771C77.6035 22.6601 77.3771 22.7733 77.0941 22.7733Z" fill="black"/><path d="M78.1134 14.0564C78.1061 12.7539 77.8089 11.4694 77.2434 10.2961C76.6778 9.12273 75.8581 8.09004 74.8437 7.27296C73.8293 6.45588 72.6457 5.87491 71.3789 5.57222C70.112 5.26953 68.7936 5.25272 67.5194 5.523C66.2453 5.79328 65.0472 6.34387 64.0124 7.13481C62.9775 7.92575 62.1317 8.9372 61.5364 10.0957C60.9411 11.2543 60.6112 12.5308 60.5707 13.8327C60.5301 15.1346 60.78 16.4292 61.3021 17.6225C61.8682 18.8112 62.0946 20.1131 62.0946 21.4715V21.5281C62.0946 26.3395 65.321 29.7357 69.2833 29.7357C73.2455 29.7357 76.4719 26.3961 76.4719 21.5281V21.4149C76.4719 20.1131 76.7549 18.8678 77.2644 17.6791C77.887 16.547 78.1134 15.3017 78.1134 14.0564Z" fill="#FFEED4"/><path d="M69.3963 29.9626C65.151 29.9626 61.9246 26.34 61.9246 21.4721V21.4155C61.9246 20.1136 61.6415 18.8683 61.1321 17.6796C60.3569 16.0145 60.1203 14.1491 60.4551 12.3432C60.7899 10.5373 61.6795 8.88072 63 7.60415C64.6982 5.90603 66.9057 4.94377 69.2831 4.94377C71.717 4.88717 74.0378 5.84943 75.7359 7.54754C77.0754 8.83544 77.9805 10.5086 78.3254 12.3345C78.6703 14.1604 78.4379 16.0485 77.6604 17.7362C77.1492 18.8762 76.8794 20.1096 76.868 21.3589V21.4721C76.868 26.2834 73.6415 29.9626 69.3963 29.9626ZM69.3963 5.56641H69.2831C67.0749 5.60987 64.9692 6.50643 63.4075 8.06817C61.8457 9.62991 60.9492 11.7356 60.9057 13.9438C60.9057 15.1891 61.1321 16.3777 61.6415 17.5098C62.2026 18.7553 62.492 20.106 62.4906 21.4721V21.5287C62.4906 23.7362 63.2265 25.774 64.5283 27.2457C65.1341 27.9418 65.882 28.4999 66.7218 28.8823C67.5615 29.2647 68.4735 29.4626 69.3963 29.4626C70.319 29.4626 71.231 29.2647 72.0708 28.8823C72.9105 28.4999 73.6585 27.9418 74.2642 27.2457C75.5661 25.774 76.3019 23.7362 76.3019 21.5287V21.4155C76.3019 20.1136 76.5849 18.8117 77.151 17.5664C77.8538 15.9856 78.057 14.2278 77.7333 12.5283C77.4096 10.8288 76.5744 9.26874 75.3397 8.05698C74.5683 7.26233 73.644 6.63202 72.6226 6.204C71.6012 5.77597 70.5037 5.55909 69.3963 5.56641Z" fill="black"/><path d="M77.7169 21.6414L77.6037 21.5848C77.3207 21.1886 77.2641 20.5659 77.4339 19.8867C77.5471 19.3206 77.7735 18.7546 78.0565 18.3584C78.1131 18.3018 78.2263 18.2452 78.283 18.3018C78.3396 18.3584 78.3962 18.4716 78.3396 18.5282C78.1131 18.8678 77.8867 19.3772 77.7735 19.9433C77.6603 20.3961 77.6037 20.9621 77.8867 21.415C77.9433 21.4716 77.9433 21.5848 77.8301 21.6414H77.7169Z" fill="black"/><path d="M72.5094 23.057L71.8302 22.7174C71.6038 22.6042 71.434 22.5476 71.2076 22.5476L70.5283 22.491L69.8491 22.5476H69L68.3208 22.491L67.6415 22.5476C67.4151 22.5476 67.1887 22.6608 67.0189 22.7174L66.3396 23.057C65.5472 23.4533 64.5283 23.2269 63.9623 22.6042L62.2642 20.6797V21.4721C62.2642 26.2835 65.4906 29.6797 69.4528 29.6797C73.4151 29.6797 76.6415 26.3401 76.6415 21.4721V20.6797L74.9434 22.6042C74.6385 22.9286 74.2382 23.1473 73.8005 23.2288C73.3628 23.3102 72.9106 23.25 72.5094 23.057Z" fill="#9B8578"/><path d="M69.0568 25.3771L67.9247 25.3205C67.8115 25.3205 67.7549 25.2073 67.7549 25.0941C67.7549 24.9809 67.8681 24.9243 67.9813 24.9243C67.9813 24.9243 70.6983 25.1507 72.5096 24.4714C72.6228 24.4148 72.736 24.4714 72.7926 24.5846C72.8492 24.6978 72.7926 24.811 72.6794 24.8676C71.4907 25.3205 70.0756 25.3771 69.0568 25.3771Z" fill="black"/><path d="M73.3584 23.4532C73.0188 23.4532 72.7358 23.3966 72.3961 23.2268L71.7169 22.8872C71.5466 22.7814 71.3512 22.7228 71.1508 22.7173L70.4716 22.6607H69.849C69.5659 22.7173 69.2263 22.7173 68.9433 22.6607C68.7398 22.6025 68.5241 22.6025 68.3207 22.6607L67.6414 22.7173C67.415 22.7173 67.2452 22.774 67.0754 22.8872L66.6225 23.1136L66.5659 23.1702C66.3961 23.2834 64.8678 23.906 63.7924 22.7173L62.0942 20.7928L62.3207 20.5664L64.0188 22.4909C64.8112 23.3966 65.8867 23.057 66.2263 22.9438L66.9056 22.6041L67.5848 22.3777L68.2641 22.3211C68.4905 22.2645 68.7735 22.3211 68.9999 22.3777H69.7924L70.5282 22.3211L71.2074 22.3777L71.8867 22.6041L72.5659 22.9438C73.3018 23.2834 74.2075 23.1136 74.7735 22.4909L76.4716 20.5664L76.698 20.7928L74.9999 22.7173C74.5471 23.2268 73.9244 23.4532 73.3584 23.4532Z" fill="#332E2B"/><path opacity="0.3" d="M78.1697 13.8302C78.1697 12.3019 77.7735 10.8302 77.0943 9.58496C77.7597 11.7217 77.6597 14.0235 76.8112 16.0944C76.3121 17.2958 76.0618 18.586 76.0754 19.8868V20.0001C76.0754 24.4718 73.5848 28.8869 70.3018 29.6227C73.8678 29.1699 76.5848 25.8868 76.5848 21.4152V21.3019C76.5848 20.0001 76.8678 18.6982 77.3773 17.5095C77.9433 16.3774 78.1697 15.1321 78.1697 13.8302ZM62.6603 19.9435C62.6603 18.585 62.3773 17.2831 61.9244 16.0378C61.4716 14.9057 61.1886 13.6604 61.2452 12.3585C61.2452 11.3963 61.415 10.4906 61.698 9.58496C61.0003 10.851 60.6306 12.2715 60.6226 13.717C60.6226 15.0189 60.9056 16.2642 61.3584 17.3963C61.9244 18.6416 62.2075 19.9435 62.2075 21.2453V21.3019C62.2075 25.8302 64.9811 29.0567 68.4905 29.5095C65.2075 28.8302 62.6603 24.4152 62.6603 19.9435ZM68.4339 29.5661L69.3395 29.6793L70.2452 29.5661L69.3395 29.6227L68.4339 29.5661Z" fill="black"/><path d="M68.4339 20.2829C68.5471 20.1131 68.717 19.9999 68.8868 19.9433C69.0676 19.8735 69.259 19.8352 69.4528 19.8301L70.0188 19.9433C70.1887 19.9999 70.3585 20.1131 70.4717 20.2829C70.5283 20.3395 70.5283 20.4527 70.4717 20.5093H70.3019L69.9056 20.3395L69.5094 20.2829L69.1132 20.3395L68.717 20.5093C68.6604 20.5659 68.5471 20.5093 68.4905 20.4527C68.3773 20.3961 68.3773 20.3395 68.4339 20.2829ZM70.2453 21.698H71.3207C71.3773 21.5282 71.2641 21.3584 71.1509 21.2452H70.6415L70.1887 21.5282L70.0754 21.6414L70.2453 21.698ZM68.6604 21.698H67.5849C67.5283 21.5282 67.6415 21.3584 67.7547 21.2452H68.2641L68.717 21.5282L68.8302 21.6414L68.6604 21.698Z" fill="black"/><path d="M61.1323 16.1507C61.1889 16.0375 61.4153 16.0375 61.5285 16.0375L63.1134 15.6978C63.9625 15.528 64.7549 15.528 65.604 15.5846C66.6795 15.6412 67.7549 15.8677 68.7738 16.0375C69.2832 16.1507 69.7361 16.0941 70.2455 15.9809C71.6208 15.6813 73.0271 15.5482 74.4342 15.5846C75.2266 15.5846 75.9625 15.7544 76.6983 15.9243L77.321 16.0375C77.4908 16.0941 77.5474 16.1507 77.5474 16.3205C77.5474 16.4903 77.4342 16.6601 77.2644 16.7733C77.027 16.9362 76.835 17.1566 76.7063 17.4141C76.5776 17.6715 76.5164 17.9574 76.5285 18.245L76.4153 19.2073C76.3211 19.6063 76.1177 19.9713 75.8277 20.2612C75.5378 20.5512 75.1729 20.7546 74.7738 20.8488C73.8115 21.1318 72.8493 21.1318 71.887 20.9054C70.9247 20.679 70.3587 19.9997 70.1889 19.0375L70.0191 17.7922L69.9625 17.6224C69.8493 17.1695 69.3398 16.9431 68.9436 17.2261C68.8304 17.2827 68.7172 17.4526 68.6606 17.6224C68.5996 17.9802 68.543 18.3387 68.4908 18.6978L68.2644 19.5469C68.1319 19.8919 67.919 20.2003 67.6434 20.4465C67.3677 20.6926 67.0372 20.8694 66.6795 20.962C65.7172 21.1884 64.7549 21.1884 63.7927 20.9054C62.7738 20.6224 62.2078 19.9431 62.0945 18.8677L62.0379 18.1318C62.0379 17.6224 61.8115 17.2261 61.4153 16.8865C61.2455 16.7733 61.1323 16.6035 61.0757 16.3771L61.1323 16.1507ZM73.5851 16.2639H72.6795C72.2832 16.2639 71.887 16.3771 71.5474 16.5469C71.3826 16.6274 71.2398 16.7467 71.1313 16.8946C71.0229 17.0425 70.952 17.2146 70.9247 17.396C70.8115 17.962 70.8681 18.528 71.0379 19.0375C71.2644 19.6601 71.6606 20.0563 72.2832 20.1695C72.7361 20.2827 73.1889 20.2827 73.6417 20.2827C74.1766 20.2369 74.6965 20.0828 75.17 19.8299C75.5662 19.5469 75.8493 19.2073 75.9059 18.7544V17.1695C75.9059 16.8865 75.7361 16.7167 75.5096 16.5469L75.0002 16.3205L73.5851 16.2639ZM65.2078 16.2639H64.8115L63.6229 16.4337C63.0568 16.5469 62.8304 16.8865 62.8304 17.5092V18.5846L62.887 19.0375C63.0568 19.6035 63.453 19.9431 64.0191 20.1695C64.7549 20.4526 65.5474 20.4526 66.3398 20.3394C67.0757 20.2261 67.5285 19.7733 67.7549 19.0941C67.9247 18.5846 67.9247 18.0752 67.8681 17.5658C67.8115 17.1695 67.6417 16.8865 67.3021 16.7167L66.7361 16.4903C66.2266 16.2639 65.2078 16.2073 65.2078 16.2639Z" fill="black"/><path d="M73.5848 16.2646H72.6791C72.2829 16.2646 71.8867 16.3778 71.5471 16.5476C71.3823 16.6281 71.2395 16.7474 71.131 16.8953C71.0226 17.0432 70.9517 17.2153 70.9244 17.3966C70.8112 17.9627 70.8678 18.5287 71.0376 19.0381C71.264 19.6608 71.6603 20.057 72.2829 20.1702C72.7357 20.2834 73.1886 20.2834 73.6414 20.2834C74.1763 20.2376 74.6962 20.0835 75.1697 19.8306C75.5659 19.5476 75.849 19.208 75.9056 18.7551V17.1702C75.9056 16.8872 75.7357 16.7174 75.5093 16.5476L74.9999 16.3212L73.5848 16.2646ZM65.2074 16.2646H64.8112L63.6225 16.4344C63.0565 16.5476 62.8301 16.8872 62.8301 17.5098V18.5853L62.8867 19.0381C63.0565 19.6042 63.4527 19.9438 64.0188 20.1702C64.7546 20.4532 65.5471 20.4532 66.3395 20.34C67.0754 20.2268 67.5282 19.774 67.7546 19.0947C67.9244 18.5853 67.9244 18.0759 67.8678 17.5664C67.8112 17.1702 67.6414 16.8872 67.3018 16.7174L66.7357 16.491C66.2263 16.2646 65.2074 16.208 65.2074 16.2646Z" fill="#A8E8FF"/><g opacity="0.5"><path d="M66.1133 11.5094H73.1321C73.1321 11.5094 68.0944 10.9433 66.1133 11.5094Z" fill="#D6BC9A"/></g><g opacity="0.5"><path d="M67.8115 12.3587H71.321C71.321 12.3587 68.7738 11.9625 67.8115 12.3587Z" fill="#D6BC9A"/></g><g opacity="0.2"><path d="M69.2265 8.50934C70.9459 8.50934 72.3397 8.02784 72.3397 7.43387C72.3397 6.8399 70.9459 6.3584 69.2265 6.3584C67.5071 6.3584 66.1133 6.8399 66.1133 7.43387C66.1133 8.02784 67.5071 8.50934 69.2265 8.50934Z" fill="white"/></g><g opacity="0.2"><path d="M66.7923 9.30229C67.355 9.30229 67.8112 9.15024 67.8112 8.96267C67.8112 8.7751 67.355 8.62305 66.7923 8.62305C66.2296 8.62305 65.7734 8.7751 65.7734 8.96267C65.7734 9.15024 66.2296 9.30229 66.7923 9.30229Z" fill="white"/></g><g opacity="0.67"><path d="M63.5658 15.245C64.0753 15.1884 65.3772 15.0185 66.6791 15.245C66.7357 15.245 66.7923 15.1884 66.7357 15.1317C66.2471 14.874 65.7031 14.7393 65.1508 14.7393C64.5984 14.7393 64.0544 14.874 63.5658 15.1317C63.4526 15.1884 63.5092 15.245 63.5658 15.245Z" fill="#443934"/></g><g opacity="0.67"><path d="M75.2265 15.245C74.717 15.1884 73.4151 15.0185 72.1133 15.245C72.0566 15.245 72 15.1884 72.0566 15.1317C72.5452 14.874 73.0892 14.7393 73.6416 14.7393C74.1939 14.7393 74.7379 14.874 75.2265 15.1317C75.2831 15.1884 75.2831 15.245 75.2265 15.245Z" fill="#443934"/></g><path d="M94.0186 23.9052C93.7922 24.4147 93.396 24.7543 92.9432 24.7543C92.4337 24.7543 92.0375 24.4713 91.8677 23.9052L90.1696 19.6034L90.113 19.5468L90.0564 19.6034L88.3583 23.9618C88.1885 24.4713 87.7356 24.8109 87.2828 24.8109C86.7734 24.8109 86.3771 24.5279 86.2073 23.9618L82.9809 15.5845C83.6601 15.3015 84.396 15.6411 84.679 16.3203L87.2828 23.1128L89.3205 17.792C89.4337 17.509 89.7734 17.3392 90.1696 17.3392C90.5658 17.3392 90.9054 17.5656 91.0186 17.8486L93.0564 23.1128L95.6601 16.3203C95.8866 15.6977 96.679 15.3581 97.3583 15.5845L94.0186 23.9052ZM98.9998 24.7543C98.2639 24.7543 97.6413 24.1883 97.6413 23.4524V15.4147C98.3771 15.4147 98.9998 15.9807 98.9998 16.7166V24.7543ZM107.038 24.0751C106.11 24.5488 105.079 24.7823 104.038 24.7543C102.905 24.7543 101.887 24.5279 101.038 24.0751C100.245 23.6788 99.7356 23.0562 99.6224 22.4335C100.132 22.1505 100.754 22.1505 101.207 22.5468C102.029 23.1383 103.026 23.4372 104.038 23.3958C105.736 23.3958 106.924 22.7732 107.094 22.2637C107.151 22.0373 107.094 21.6411 106.924 21.4713C106.528 20.9052 105.566 20.6788 103.754 20.4524C102.792 20.3392 101.83 20.226 101.094 19.8864C99.8488 19.3769 99.5658 18.4713 99.5658 17.792C99.5658 17.0562 100.075 16.3769 101.038 15.9241C101.964 15.5186 102.97 15.3252 103.981 15.3581C105.056 15.3581 106.132 15.5279 106.924 15.9241C107.66 16.2637 108.17 16.7166 108.339 17.2826C107.887 17.6222 107.264 17.7354 106.754 17.3958C105.889 16.9189 104.912 16.6843 103.924 16.7166C102 16.7166 100.924 17.3958 100.811 17.7354C100.754 17.9618 100.868 18.1883 101.038 18.3581C101.434 18.7543 102.283 18.9241 103.868 19.0939C104.887 19.2071 105.905 19.3203 106.754 19.7166C107.83 20.1694 108.396 20.9618 108.396 22.0939C108.509 22.8864 107.943 23.6222 107.038 24.0751ZM116.434 24.0751C115.506 24.5488 114.475 24.7823 113.434 24.7543C112.302 24.7543 111.283 24.5279 110.434 24.0751C109.641 23.6788 109.132 23.0562 109.019 22.4335C109.528 22.1505 110.151 22.1505 110.604 22.5468C111.425 23.1383 112.422 23.4372 113.434 23.3958C115.132 23.3958 116.321 22.7732 116.49 22.2637C116.547 22.0373 116.49 21.6411 116.321 21.4713C115.924 20.9052 114.962 20.6788 113.151 20.4524C112.188 20.3392 111.226 20.226 110.49 19.8864C109.245 19.3769 108.962 18.4713 108.962 17.792C108.962 17.0562 109.471 16.3769 110.434 15.9241C111.36 15.5186 112.366 15.3252 113.377 15.3581C114.453 15.3581 115.528 15.5279 116.321 15.9241C117.056 16.2637 117.566 16.7166 117.736 17.2826C117.283 17.6222 116.66 17.7354 116.151 17.3958C115.286 16.9189 114.308 16.6843 113.321 16.7166C111.396 16.7166 110.321 17.3958 110.207 17.7354C110.151 17.9618 110.264 18.1883 110.434 18.3581C110.83 18.7543 111.679 18.9241 113.264 19.0939C114.283 19.2071 115.302 19.3203 116.151 19.7166C117.226 20.1694 117.792 20.9618 117.792 22.0939C117.905 22.8864 117.396 23.6222 116.434 24.0751ZM126 16.7732H120.339C120.283 16.7732 120.17 16.8298 120.17 16.943V19.2071H126.283C126.283 19.8864 125.717 20.509 124.981 20.509H120.17V23.1694C120.17 23.226 120.226 23.3392 120.339 23.3392H125.773C126.509 23.3392 127.075 23.9052 127.132 24.6411H120.226C119.49 24.6411 118.868 24.0751 118.868 23.3392V16.7732C118.868 16.0373 119.49 15.4713 120.17 15.4713H127.245C127.245 16.2071 126.679 16.7732 126 16.7732ZM135.17 24.3581L132.509 21.1317H129.792V20.9618C129.82 20.6461 129.961 20.3511 130.19 20.1323C130.42 19.9135 130.721 19.7858 131.038 19.7732H132.849C133.698 19.7732 134.377 19.66 134.83 19.3769C135.283 19.1505 135.453 18.7543 135.453 18.2449C135.453 17.9052 135.453 16.7732 132.849 16.7732H129.566C129.509 16.7732 129.396 16.8298 129.396 16.943V23.3958C129.396 24.1317 128.773 24.6977 128.037 24.6977V16.7166C128.037 16.0373 128.604 15.4713 129.283 15.4713H132.792C136.188 15.4713 136.754 17.226 136.754 18.2449C136.754 19.2637 136.302 20.0562 135.453 20.509C135.056 20.7354 134.604 20.9052 134.094 20.9618L136.924 24.3581C136.415 24.8675 135.622 24.8675 135.17 24.3581ZM8.43373 17.9618C8.05648 17.5613 7.59992 17.2437 7.09316 17.0293C6.58639 16.8149 6.04053 16.7084 5.49034 16.7166C3.396 16.7166 1.69788 18.2449 1.69788 20.0562C1.69788 21.9241 3.396 23.4524 5.49034 23.4524C6.5092 23.4524 7.41486 23.0562 8.15071 22.4901C8.66015 22.0939 9.33939 22.0939 9.84883 22.4901C9.4903 23.0823 8.98289 23.5702 8.37713 23.9052C7.51938 24.4662 6.51518 24.7615 5.49034 24.7543C2.66015 24.7543 0.395996 22.66 0.395996 20.0562C0.395996 17.4524 2.66015 15.3581 5.49034 15.3581C7.47147 15.3581 9.28279 16.4335 10.1318 18.1317C9.56581 18.5279 8.88656 18.4713 8.43373 17.9618ZM17.83 24.3581L15.1696 21.1317H12.4526V20.9618C12.4799 20.6461 12.6215 20.3511 12.8507 20.1323C13.08 19.9135 13.3812 19.7858 13.6979 19.7732H15.5092C16.3583 19.7732 17.0375 19.66 17.4903 19.3769C17.9432 19.1505 18.113 18.7543 18.113 18.2449C18.113 17.9052 18.113 16.7732 15.5092 16.7732H12.2262C12.1696 16.7732 12.0564 16.8298 12.0564 16.943V23.3958C12.0564 24.1317 11.4337 24.6977 10.6979 24.6977V16.7166C10.6979 16.0373 11.2639 15.4713 11.9432 15.4713H15.4526C18.8488 15.4713 19.4149 17.226 19.4149 18.2449C19.4149 19.2637 18.962 20.0562 18.113 20.509C17.7167 20.7354 17.2639 20.9052 16.7545 20.9618L19.3583 24.3581C18.8488 24.8675 18.2262 24.8675 17.83 24.3581ZM25.0752 21.6977V24.7543H25.0186C24.3394 24.7543 23.7168 24.1883 23.7168 23.509V21.6977L19.0186 15.7543C19.5847 15.3015 20.3771 15.3581 20.83 15.8675L24.396 20.3958L27.962 15.9241C28.4149 15.3581 29.2073 15.3581 29.7734 15.8109L25.0752 21.6977ZM37.0186 20.5656C36.3394 20.9618 35.4903 21.1317 34.3583 21.1317H31.6979C31.6979 20.3958 32.2639 19.7732 32.9998 19.7732H34.4149C35.2639 19.7732 35.9432 19.66 36.396 19.3769C36.8488 19.1505 37.0186 18.7543 37.0186 18.2449C37.0186 17.9052 37.0186 16.7732 34.4149 16.7732H31.5281C31.4149 16.7732 31.3583 16.8298 31.3583 16.943V23.3958C31.3583 24.1317 30.7356 24.6977 29.9998 24.6977V16.7166C29.9998 16.0373 30.5658 15.4713 31.2451 15.4713H34.3583C37.8111 15.4713 38.3205 17.226 38.3205 18.2449C38.3205 19.2637 37.8677 20.0562 37.0186 20.5656Z" fill="white"/><path d="M44.887 16.8301H42.6794V24.7546H42.6228C42.447 24.7548 42.273 24.7193 42.1112 24.6504C41.9494 24.5814 41.8033 24.4804 41.6817 24.3535C41.56 24.2265 41.4653 24.0763 41.4033 23.9117C41.3413 23.7472 41.3133 23.5718 41.321 23.3961V16.8301H39.1134C38.7681 16.8301 38.437 16.6929 38.1928 16.4487C37.9487 16.2046 37.8115 15.8735 37.8115 15.5282H46.2455C46.2455 16.2074 45.6794 16.8301 44.887 16.8301ZM50.5474 24.8112C47.7172 24.8112 45.3398 22.6602 45.3398 20.0565C45.3398 17.3961 47.6606 15.3018 50.5474 15.3018C53.4342 15.3018 55.7549 17.4527 55.7549 20.0565C55.7549 22.6602 53.4342 24.8112 50.5474 24.8112ZM50.5474 16.6036C48.3964 16.6036 46.6983 18.1319 46.6983 20.0565C46.6983 21.9244 48.3964 23.5093 50.5474 23.5093C52.6983 23.5093 54.3964 21.981 54.3964 20.0565C54.3964 18.1319 52.6983 16.6036 50.5474 16.6036Z" fill="white"/></g><defs><clipPath id="clip0_3310_253"><rect width="136.981" height="30" fill="white" transform="translate(0 5)"/></clipPath></defs></svg>