<svg width="181" height="48" viewBox="0 0 181 48" fill="none" xmlns="http://www.w3.org/2000/svg"><g clip-path="url(#clip0_2231_1691)"><path fill-rule="evenodd" clip-rule="evenodd" d="M136.543 17.5153H140.508V13.5502H136.543V17.5153ZM115.467 24.122C116.226 22.1115 118.164 20.6818 120.437 20.6818C122.71 20.6818 124.653 22.1115 125.407 24.122H115.467ZM120.437 16.9904C115.467 16.9904 111.435 21.0225 111.435 25.9928C111.435 30.9631 115.467 34.9953 120.437 34.9953C123.849 34.9953 126.815 33.0965 128.339 30.3042L125.016 28.6902C124.089 30.2595 122.386 31.3094 120.437 31.3094C117.974 31.3094 115.902 29.634 115.299 27.3555H125.575V27.3611H129.339C129.406 26.9143 129.44 26.4563 129.44 25.9928C129.44 21.0225 125.413 16.9904 120.437 16.9904ZM130.489 34.515H134.455V30.5499H130.489V34.515ZM136.543 34.515H140.508V19.2577H136.543V34.515ZM151.571 31.3094C148.634 31.3094 146.255 28.9303 146.255 25.9928C146.255 23.0553 148.634 20.6762 151.571 20.6762C154.509 20.6762 156.888 23.0553 156.888 25.9928C156.888 28.9303 154.509 31.3094 151.571 31.3094ZM151.571 16.9904C146.601 16.9904 142.569 21.0225 142.569 25.9928C142.569 30.9631 146.601 34.9953 151.571 34.9953C156.542 34.9953 160.574 30.9631 160.574 25.9928C160.574 21.0225 156.542 16.9904 151.571 16.9904ZM68.673 22.6755V26.7747H74.2186C73.9282 27.9474 73.3585 28.9974 72.5376 29.835C71.2978 31.1028 69.5833 31.7953 67.7069 31.7953C63.8088 31.7953 60.6367 28.6232 60.6367 24.7195C60.6367 20.8214 63.8088 17.6438 67.7069 17.6438C69.7955 17.6438 71.7167 18.5373 73.0458 20.0787L76.2179 17.4818C74.1125 15.0134 70.9907 13.5391 67.7069 13.5391C61.547 13.5391 56.5376 18.5541 56.5376 24.7139C56.5376 30.8738 61.547 35.8888 67.7069 35.8888C70.7003 35.8888 73.4535 34.811 75.4695 32.7502C77.1617 31.019 78.2842 28.6064 78.4964 26.1939C78.6025 25.0155 78.6137 23.8427 78.5467 22.6644L68.673 22.6755ZM88.8671 31.3094C85.9352 31.3094 83.5505 28.9303 83.5505 25.9928C83.5505 23.0553 85.9296 20.6762 88.8671 20.6762C91.8046 20.6762 94.1837 23.0553 94.1837 25.9928C94.1837 28.9303 91.8046 31.3094 88.8671 31.3094ZM94.1837 18.7439C92.6926 17.6494 90.8552 17.0071 88.8671 17.0071C83.8968 17.0071 79.8702 21.0392 79.8702 26.0096C79.8702 30.9799 83.9023 35.012 88.8671 35.012C90.8552 35.012 92.6926 34.3642 94.1837 33.2752V34.5206H97.8695V17.4986H94.1837V18.7439ZM105.777 13.5502H102.092V17.5153H99.8856V20.9946H102.092V30.0975C102.092 31.0357 102.209 31.8288 102.443 32.4487C102.672 33.063 103.03 33.5433 103.449 33.9174C103.873 34.2972 104.37 34.5932 104.962 34.7663C105.565 34.9338 106.224 35.0008 106.928 35.0008C107.654 35.0008 108.302 34.9282 108.849 34.7775C109.363 34.6378 109.854 34.4424 110.307 34.1967V31.3932C109.581 31.7059 108.899 31.8232 108.123 31.8567C107.302 31.8958 106.822 31.6612 106.42 31.2759C105.995 30.8738 105.772 30.3488 105.772 29.472V20.9946H110.307V17.5153H105.772V13.5502H105.777Z" fill="white"></path><path fill-rule="evenodd" clip-rule="evenodd" d="M36.9413 32.7898C32.0882 32.7898 28.151 28.8526 28.151 23.9996C28.151 19.1465 32.0882 15.2093 36.9413 15.2093V8.01074C28.1119 8.01074 20.958 15.1703 20.958 23.9996C20.958 32.8289 28.1119 39.9828 36.9413 39.9828C45.765 39.9828 52.9245 32.8233 52.9245 23.9996H45.7315C45.7315 28.8582 41.7943 32.7898 36.9413 32.7898Z" fill="#2354E6"></path><path fill-rule="evenodd" clip-rule="evenodd" d="M36.9414 23.9992H45.7316V15.209H36.9414V23.9992Z" fill="#17E6A1"></path></g><defs><clipPath id="clip0_2231_1691"><rect width="139.616" height="32" fill="white" transform="translate(20.958 8)"></rect></clipPath></defs></svg>