<svg width="120" height="120" viewBox="0 0 120 120" fill="none" xmlns="http://www.w3.org/2000/svg">
<g id="ghost 1" clip-path="url(#clip0_662_10589)">
<g id="Group">
<path id="Vector" d="M39.789 68.072C46.6472 69.6774 53.5081 65.419 55.1134 58.5609L30.2779 52.7474C28.6728 59.6058 32.9309 66.4667 39.789 68.072Z" fill="#02C076"/>
<path id="Vector_2" d="M64.877 58.5609C66.4823 65.419 73.3432 69.6774 80.2013 68.072C87.0595 66.4667 91.3178 59.6058 89.7125 52.7477L64.877 58.5609Z" fill="#02C076"/>
<path id="Vector_3" d="M110.053 54.4378C110.053 39.4781 104.896 25.6753 95.5326 15.5717C86.2266 5.53002 73.6564 0 60.138 0L59.9563 0.000248619L59.7743 0C46.2569 0 33.6872 5.53027 24.3807 15.5722C15.0165 25.6763 9.85938 39.4791 9.85938 54.4378V119.284L28.8215 110.228L44.5255 120L59.9938 110.374L75.4629 120L91.1674 110.228L110.139 119.288L110.053 54.4378ZM90.695 101.736L75.4626 111.215L59.9936 101.59L44.5253 111.215L29.2931 101.736L17.3179 107.456V54.4378C17.3182 27.6553 35.5703 7.45856 59.7743 7.45856L59.956 7.45906L60.138 7.45856C84.342 7.45856 102.594 27.6553 102.594 54.4428L102.665 107.453L90.695 101.736Z" fill="#02C076"/>
</g>
</g>
<defs>
<clipPath id="clip0_662_10589">
<rect width="120" height="120" fill="white"/>
</clipPath>
</defs>
</svg>
