<svg width="162" height="48" viewBox="0 0 162 48" fill="none" xmlns="http://www.w3.org/2000/svg">
<path d="M156 0.96C157.337 0.96 158.619 1.491 159.564 2.43618C160.509 3.38137 161.04 4.66331 161.04 6V42C161.04 43.3367 160.509 44.6186 159.564 45.5638C158.619 46.509 157.337 47.04 156 47.04H6C4.66331 47.04 3.38137 46.509 2.43618 45.5638C1.491 44.6186 0.96 43.3367 0.96 42V6C0.96 4.66331 1.491 3.38137 2.43618 2.43618C3.38137 1.491 4.66331 0.96 6 0.96H156ZM156 0H6C4.4087 0 2.88258 0.632141 1.75736 1.75736C0.632141 2.88258 0 4.4087 0 6V42C0 43.5913 0.632141 45.1174 1.75736 46.2426C2.88258 47.3679 4.4087 48 6 48H156C157.591 48 159.117 47.3679 160.243 46.2426C161.368 45.1174 162 43.5913 162 42V6C162 4.4087 161.368 2.88258 160.243 1.75736C159.117 0.632141 157.591 0 156 0Z" fill="#A6A6A6"/>
<path d="M56.9116 12.2863C56.9313 12.7264 56.8618 13.1659 56.7071 13.5783C56.5524 13.9908 56.3159 14.3677 56.0116 14.6863C55.6707 15.0383 55.2594 15.3143 54.8044 15.4962C54.3495 15.6782 53.8612 15.7621 53.3716 15.7423C52.8792 15.7533 52.3898 15.6631 51.9336 15.4773C51.4775 15.2916 51.0643 15.0142 50.7196 14.6623C50.0204 13.9471 49.6289 12.9865 49.6289 11.9863C49.6289 10.9861 50.0204 10.0255 50.7196 9.3103C51.2542 8.78792 51.9313 8.43518 52.6658 8.2964C53.4002 8.15763 54.1593 8.239 54.8476 8.5303C55.2804 8.70817 55.6663 8.98328 55.9756 9.3343L55.3396 9.9703C55.1013 9.68322 54.7994 9.45566 54.4578 9.30568C54.1161 9.1557 53.7443 9.08743 53.3716 9.1063C52.9013 9.10955 52.4389 9.22797 52.0248 9.4512C51.6108 9.67442 51.2577 9.99567 50.9965 10.3869C50.7353 10.778 50.5738 11.2272 50.5263 11.6952C50.4788 12.1632 50.5466 12.6357 50.7238 13.0714C50.9011 13.5071 51.1823 13.8928 51.543 14.1947C51.9038 14.4966 52.3329 14.7056 52.793 14.8033C53.2531 14.9011 53.7302 14.8847 54.1825 14.7555C54.6348 14.6263 55.0486 14.3883 55.3877 14.0623C55.7542 13.6604 55.9667 13.1418 55.9877 12.5983H53.3716V11.7343H56.8637C56.891 11.9171 56.907 12.1015 56.9116 12.2863Z" fill="white" stroke="white" stroke-width="0.2" stroke-miterlimit="10"/>
<path d="M62.4026 9.28839H59.1626V11.5684H62.1146V12.4324H59.1626V14.7124H62.4026V15.6004H58.2266V8.40039H62.4026V9.28839Z" fill="white" stroke="white" stroke-width="0.2" stroke-miterlimit="10"/>
<path d="M66.3423 15.6004H65.4183V9.28839H63.4023V8.40039H68.4063V9.28839H66.3423V15.6004Z" fill="white" stroke="white" stroke-width="0.2" stroke-miterlimit="10"/>
<path d="M71.9336 15.6004V8.40039H72.8576V15.6004H71.9336Z" fill="white" stroke="white" stroke-width="0.2" stroke-miterlimit="10"/>
<path d="M76.9556 15.6004H76.0316V9.28839H74.0156V8.40039H78.9596V9.28839H76.9556V15.6004Z" fill="white" stroke="white" stroke-width="0.2" stroke-miterlimit="10"/>
<path d="M88.3244 14.6634C87.9778 15.0103 87.5662 15.2854 87.1133 15.4732C86.6603 15.6609 86.1747 15.7575 85.6844 15.7575C85.194 15.7575 84.7085 15.6609 84.2555 15.4732C83.8025 15.2854 83.391 15.0103 83.0444 14.6634C82.366 13.9422 81.9883 12.9895 81.9883 11.9994C81.9883 11.0093 82.366 10.0565 83.0444 9.33539C83.3835 8.97875 83.7937 8.69727 84.2485 8.50916C84.7032 8.32106 85.1924 8.23051 85.6844 8.24339C86.1757 8.23562 86.6633 8.32849 87.1173 8.5163C87.5714 8.7041 87.9821 8.98285 88.3244 9.33539C88.6694 9.68638 88.9407 10.1029 89.122 10.5605C89.3034 11.0181 89.3912 11.5073 89.3804 11.9994C89.3961 12.4921 89.3105 12.9827 89.1289 13.441C88.9472 13.8992 88.6734 14.3153 88.3244 14.6634ZM83.7284 14.0634C83.984 14.3224 84.2886 14.5281 84.6243 14.6685C84.9601 14.8089 85.3204 14.8812 85.6844 14.8812C86.0483 14.8812 86.4087 14.8089 86.7444 14.6685C87.0802 14.5281 87.3848 14.3224 87.6404 14.0634C88.1582 13.5007 88.4456 12.764 88.4456 11.9994C88.4456 11.2347 88.1582 10.498 87.6404 9.93539C87.3848 9.67634 87.0802 9.47064 86.7444 9.33025C86.4087 9.18986 86.0483 9.11756 85.6844 9.11756C85.3204 9.11756 84.9601 9.18986 84.6243 9.33025C84.2886 9.47064 83.984 9.67634 83.7284 9.93539C83.2106 10.498 82.9232 11.2347 82.9232 11.9994C82.9232 12.764 83.2106 13.5007 83.7284 14.0634Z" fill="white" stroke="white" stroke-width="0.2" stroke-miterlimit="10"/>
<path d="M90.7031 15.6004V8.40039H91.8191L95.3231 14.0044V12.6124V8.40039H96.2471V15.6004H95.2871L91.6271 9.73239V11.1124V15.6004H90.7031Z" fill="white" stroke="white" stroke-width="0.2" stroke-miterlimit="10"/>
<path d="M81.7712 26.0991C80.7602 26.1015 79.7725 26.4036 78.9332 26.9673C78.0939 27.531 77.4405 28.3309 77.0558 29.2659C76.6711 30.2009 76.5723 31.229 76.7718 32.2202C76.9714 33.2114 77.4604 34.1211 78.177 34.8343C78.8936 35.5476 79.8056 36.0323 80.7977 36.2272C81.7898 36.4221 82.8174 36.3185 83.7506 35.9294C84.6838 35.5403 85.4806 34.8832 86.0404 34.0412C86.6001 33.1992 86.8976 32.2102 86.8952 31.1991C86.905 30.5247 86.779 29.8551 86.5247 29.2303C86.2703 28.6056 85.8928 28.0384 85.4147 27.5625C84.9366 27.0867 84.3677 26.7119 83.7417 26.4605C83.1158 26.2091 82.4457 26.0862 81.7712 26.0991ZM81.7712 34.2951C81.1515 34.3385 80.5331 34.1944 79.9964 33.8816C79.4597 33.5688 79.0295 33.1018 78.7617 32.5413C78.4939 31.9807 78.4009 31.3526 78.4949 30.7385C78.5888 30.1244 78.8653 29.5528 79.2884 29.098C79.7115 28.6431 80.2617 28.3261 80.8674 28.1881C81.4731 28.05 82.1063 28.0974 82.6847 28.324C83.2631 28.5507 83.7599 28.946 84.1107 29.4588C84.4614 29.9715 84.6497 30.5779 84.6512 31.1991C84.6706 31.5928 84.6109 31.9863 84.4757 32.3564C84.3405 32.7266 84.1326 33.066 83.8642 33.3545C83.5958 33.6431 83.2723 33.875 82.9129 34.0365C82.5534 34.1981 82.1652 34.286 81.7712 34.2951ZM70.5872 26.0991C69.5762 26.1015 68.5885 26.4036 67.7492 26.9673C66.9099 27.531 66.2565 28.3309 65.8718 29.2659C65.4871 30.2009 65.3883 31.229 65.5878 32.2202C65.7874 33.2114 66.2764 34.1211 66.993 34.8343C67.7096 35.5476 68.6216 36.0323 69.6137 36.2272C70.6058 36.4221 71.6334 36.3185 72.5666 35.9294C73.4998 35.5403 74.2966 34.8832 74.8564 34.0412C75.4161 33.1992 75.7136 32.2102 75.7112 31.1991C75.721 30.5247 75.595 29.8551 75.3407 29.2303C75.0863 28.6056 74.7088 28.0384 74.2307 27.5625C73.7527 27.0867 73.1837 26.7119 72.5578 26.4605C71.9318 26.2091 71.2617 26.0862 70.5872 26.0991ZM70.5872 34.2951C69.9675 34.3385 69.3491 34.1944 68.8124 33.8816C68.2757 33.5688 67.8455 33.1018 67.5777 32.5413C67.3099 31.9807 67.2169 31.3526 67.3109 30.7385C67.4048 30.1244 67.6813 29.5528 68.1044 29.098C68.5275 28.6431 69.0777 28.3261 69.6834 28.1881C70.2891 28.05 70.9223 28.0974 71.5007 28.324C72.0791 28.5507 72.5759 28.946 72.9267 29.4588C73.2774 29.9715 73.4657 30.5779 73.4672 31.1991C73.4866 31.5928 73.4269 31.9863 73.2917 32.3564C73.1565 32.7266 72.9486 33.066 72.6802 33.3545C72.4118 33.6431 72.0883 33.875 71.7289 34.0365C71.3694 34.1981 70.9812 34.286 70.5872 34.2951ZM57.2912 27.6711V29.8311H62.4752C62.394 30.8485 61.9711 31.8085 61.2752 32.5551C60.7552 33.085 60.1298 33.4997 59.4394 33.7726C58.749 34.0454 58.009 34.1703 57.2672 34.1391C55.7396 34.1391 54.2745 33.5323 53.1943 32.4521C52.1141 31.3719 51.5072 29.9068 51.5072 28.3791C51.5072 26.8515 52.1141 25.3864 53.1943 24.3062C54.2745 23.226 55.7396 22.6191 57.2672 22.6191C58.7318 22.5973 60.1459 23.1535 61.2032 24.1671L62.7272 22.6431C62.012 21.9357 61.1628 21.3782 60.2294 21.0032C59.296 20.6282 58.2971 20.4432 57.2912 20.4591C56.2244 20.4176 55.1602 20.5919 54.1624 20.9715C53.1645 21.3511 52.2536 21.9282 51.4842 22.6683C50.7147 23.4084 50.1026 24.2962 49.6844 25.2786C49.2663 26.2609 49.0508 27.3175 49.0508 28.3851C49.0508 29.4527 49.2663 30.5094 49.6844 31.4917C50.1026 32.474 50.7147 33.3618 51.4842 34.1019C52.2536 34.842 53.1645 35.4192 54.1624 35.7988C55.1602 36.1784 56.2244 36.3527 57.2912 36.3111C58.3177 36.3521 59.3413 36.1755 60.2947 35.7929C61.2481 35.4103 62.1098 34.8304 62.8232 34.0911C64.0834 32.7068 64.7548 30.8862 64.6952 29.0151C64.6995 28.5648 64.6634 28.115 64.5872 27.6711H57.2912ZM111.663 29.3511C111.35 28.4304 110.765 27.6265 109.985 27.0457C109.205 26.465 108.267 26.1349 107.295 26.0991C106.639 26.0978 105.989 26.2312 105.386 26.491C104.784 26.7507 104.24 27.1314 103.79 27.6094C103.341 28.0874 102.994 28.6526 102.771 29.27C102.548 29.8874 102.454 30.544 102.495 31.1991C102.485 32.2946 102.829 33.3639 103.477 34.2475C104.125 35.131 105.041 35.7813 106.088 36.1013C107.136 36.4213 108.259 36.3937 109.29 36.0228C110.321 35.6518 111.204 34.9574 111.807 34.0431L110.067 32.8431C109.808 33.2755 109.44 33.6325 109 33.8788C108.56 34.125 108.063 34.252 107.559 34.2471C107.039 34.2686 106.525 34.1323 106.083 33.856C105.642 33.5797 105.295 33.1764 105.087 32.6991L111.915 29.8791L111.663 29.3511ZM104.703 31.0551C104.679 30.6824 104.729 30.3085 104.851 29.9555C104.973 29.6024 105.164 29.2772 105.414 28.999C105.663 28.7207 105.965 28.495 106.302 28.335C106.64 28.175 107.006 28.0839 107.379 28.0671C107.766 28.0435 108.151 28.1346 108.486 28.3288C108.821 28.5231 109.092 28.8119 109.263 29.1591L104.703 31.0551ZM99.1592 35.9991H101.403V20.9991H99.1592V35.9991ZM95.4872 27.2391H95.4032C95.068 26.8574 94.6543 26.5525 94.1904 26.3454C93.7265 26.1383 93.2233 26.0338 92.7152 26.0391C91.4039 26.1027 90.1672 26.6684 89.2616 27.619C88.356 28.5696 87.8508 29.8322 87.8508 31.1451C87.8508 32.4581 88.356 33.7206 89.2616 34.6712C90.1672 35.6218 91.4039 36.1875 92.7152 36.2511C93.224 36.2613 93.7287 36.1591 94.1934 35.9516C94.6581 35.7442 95.0712 35.4367 95.4032 35.0511H95.4872V35.7831C95.4872 37.7391 94.4432 38.7831 92.7632 38.7831C92.202 38.7708 91.6571 38.592 91.1978 38.2694C90.7384 37.9467 90.3853 37.4949 90.1832 36.9711L88.2392 37.7751C88.5987 38.6778 89.2235 39.4502 90.0313 39.9902C90.8391 40.5301 91.7917 40.8122 92.7632 40.7991C95.3912 40.7991 97.5632 39.2511 97.5632 35.4831V26.3991H95.4872V27.2391ZM92.9072 34.2951C92.121 34.2461 91.383 33.8992 90.8436 33.3251C90.3042 32.751 90.0039 31.9929 90.0039 31.2051C90.0039 30.4174 90.3042 29.6592 90.8436 29.0851C91.383 28.511 92.121 28.1642 92.9072 28.1151C93.2915 28.1317 93.6686 28.2254 94.0159 28.3907C94.3632 28.556 94.6737 28.7894 94.929 29.0771C95.1843 29.3649 95.379 29.701 95.5017 30.0656C95.6244 30.4301 95.6726 30.8156 95.6432 31.1991C95.676 31.584 95.6303 31.9714 95.509 32.3381C95.3878 32.7048 95.1934 33.0431 94.9376 33.3325C94.6819 33.6219 94.3701 33.8564 94.0211 34.0219C93.6721 34.1873 93.2932 34.2803 92.9072 34.2951ZM122.175 20.9991H116.799V35.9991H119.043V30.3111H122.175C122.815 30.3571 123.457 30.2708 124.062 30.0576C124.666 29.8444 125.221 29.509 125.69 29.0721C126.159 28.6353 126.534 28.1064 126.79 27.5185C127.046 26.9306 127.178 26.2963 127.178 25.6551C127.178 25.0139 127.046 24.3796 126.79 23.7917C126.534 23.2038 126.159 22.675 125.69 22.2381C125.221 21.8013 124.666 21.4658 124.062 21.2527C123.457 21.0395 122.815 20.9532 122.175 20.9991ZM122.175 28.1991H119.043V23.0871H122.223C122.56 23.0871 122.894 23.1536 123.206 23.2826C123.518 23.4117 123.801 23.6008 124.039 23.8393C124.278 24.0777 124.467 24.3608 124.596 24.6724C124.725 24.984 124.791 25.3179 124.791 25.6551C124.791 25.9924 124.725 26.3263 124.596 26.6379C124.467 26.9494 124.278 27.2325 124.039 27.471C123.801 27.7094 123.518 27.8986 123.206 28.0277C122.894 28.1567 122.56 28.2231 122.223 28.2231L122.175 28.1991ZM136.023 26.0511C135.206 26.0007 134.392 26.191 133.682 26.5983C132.972 27.0057 132.396 27.6123 132.027 28.3431L134.007 29.1711C134.207 28.8104 134.508 28.5153 134.872 28.3216C135.236 28.1278 135.648 28.0436 136.059 28.0791C136.344 28.0459 136.633 28.0697 136.908 28.1491C137.184 28.2286 137.441 28.3621 137.664 28.542C137.888 28.7218 138.073 28.9444 138.21 29.1966C138.346 29.4488 138.431 29.7257 138.459 30.0111V30.1551C137.738 29.7758 136.934 29.5781 136.119 29.5791C133.983 29.5791 131.799 30.7791 131.799 32.9631C131.82 33.4274 131.935 33.8826 132.135 34.3018C132.336 34.721 132.618 35.0957 132.966 35.4035C133.315 35.7113 133.721 35.946 134.162 36.0937C134.602 36.2414 135.068 36.299 135.531 36.2631C136.094 36.2943 136.656 36.1751 137.157 35.9179C137.659 35.6606 138.084 35.2745 138.387 34.7991H138.459V35.9991H140.619V30.2271C140.619 27.5991 138.627 26.0751 136.071 26.0751L136.023 26.0511ZM135.747 34.2711C135.015 34.2711 133.995 33.8991 133.995 32.9991C133.995 31.7991 135.267 31.3911 136.395 31.3911C137.108 31.3735 137.813 31.5476 138.435 31.8951C138.36 32.5468 138.051 33.1491 137.565 33.5904C137.08 34.0317 136.451 34.2821 135.795 34.2951L135.747 34.2711ZM148.491 26.3991L145.923 32.9031H145.851L143.187 26.3991H140.787L144.783 35.4951L142.503 40.5471H144.843L150.987 26.3991H148.491ZM128.331 35.9991H130.563V20.9991H128.331V35.9991Z" fill="white"/>
<path d="M12.5223 9.04885C12.1269 9.51639 11.9251 10.1174 11.9583 10.7288V37.2728C11.9175 37.8853 12.1202 38.4891 12.5223 38.9528L12.6063 39.0488L27.4743 24.1808V23.8208L12.6063 8.96484L12.5223 9.04885Z" fill="url(#paint0_linear_662_16960)"/>
<path d="M32.4044 29.1372L27.4844 24.1812V23.8212L32.4044 18.8652L32.5124 18.9372L38.4044 22.2732C40.0844 23.2212 40.0844 24.7812 38.4044 25.7412L32.5364 29.0772L32.4044 29.1372Z" fill="url(#paint1_linear_662_16960)"/>
<path d="M32.5355 29.064L27.4715 24L12.5195 38.952C12.8586 39.2538 13.2926 39.4275 13.7464 39.4428C14.2001 39.4582 14.6448 39.3142 15.0035 39.036L32.5355 29.064Z" fill="url(#paint2_linear_662_16960)"/>
<path d="M32.5355 18.9358L15.0035 8.97577C14.6472 8.69366 14.2027 8.54624 13.7484 8.55941C13.2941 8.57257 12.859 8.7455 12.5195 9.04777L27.4715 23.9998L32.5355 18.9358Z" fill="url(#paint3_linear_662_16960)"/>
<path opacity="0.2" d="M32.3915 28.957L15.0035 38.857C14.6579 39.1179 14.2366 39.259 13.8035 39.259C13.3705 39.259 12.9492 39.1179 12.6035 38.857L12.5195 38.941L12.6035 39.037C12.9492 39.2979 13.3705 39.439 13.8035 39.439C14.2366 39.439 14.6579 39.2979 15.0035 39.037L32.5355 29.065L32.3915 28.957Z" fill="black"/>
<path opacity="0.12" d="M12.5251 38.7838C12.1397 38.3078 11.9508 37.7025 11.9971 37.0918V37.2718C11.9563 37.8843 12.159 38.488 12.5611 38.9518L12.6451 38.8678L12.5251 38.7838Z" fill="black"/>
<path opacity="0.12" d="M38.3906 25.56L32.3906 28.956L32.4986 29.064L38.3906 25.728C38.7384 25.5809 39.0401 25.3428 39.264 25.0387C39.4878 24.7346 39.6256 24.3758 39.6626 24C39.5876 24.3415 39.4334 24.6606 39.2125 24.9315C38.9915 25.2025 38.71 25.4178 38.3906 25.56Z" fill="black"/>
<path opacity="0.25" d="M15.005 9.14476L38.393 22.4408C38.7124 22.583 38.9939 22.7983 39.2149 23.0692C39.4358 23.3402 39.59 23.6593 39.665 24.0008C39.628 23.625 39.4902 23.2661 39.2664 22.962C39.0425 22.6579 38.7408 22.4198 38.393 22.2728L15.005 8.97675C13.337 8.01675 11.957 8.80876 11.957 10.7288V10.9088C11.993 8.98876 13.337 8.19676 15.005 9.14476Z" fill="white"/>
<defs>
<linearGradient id="paint0_linear_662_16960" x1="26.1543" y1="10.4528" x2="6.0183" y2="30.5888" gradientUnits="userSpaceOnUse">
<stop stop-color="#00A0FF"/>
<stop offset="0.01" stop-color="#00A1FF"/>
<stop offset="0.26" stop-color="#00BEFF"/>
<stop offset="0.51" stop-color="#00D2FF"/>
<stop offset="0.76" stop-color="#00DFFF"/>
<stop offset="1" stop-color="#00E3FF"/>
</linearGradient>
<linearGradient id="paint1_linear_662_16960" x1="40.6004" y1="24.0012" x2="11.5724" y2="24.0012" gradientUnits="userSpaceOnUse">
<stop stop-color="#FFE000"/>
<stop offset="0.41" stop-color="#FFBD00"/>
<stop offset="0.78" stop-color="#FFA500"/>
<stop offset="1" stop-color="#FF9C00"/>
</linearGradient>
<linearGradient id="paint2_linear_662_16960" x1="29.7875" y1="26.76" x2="2.47553" y2="54.06" gradientUnits="userSpaceOnUse">
<stop stop-color="#FF3A44"/>
<stop offset="1" stop-color="#C31162"/>
</linearGradient>
<linearGradient id="paint3_linear_662_16960" x1="8.75153" y1="0.21577" x2="20.9435" y2="12.4078" gradientUnits="userSpaceOnUse">
<stop stop-color="#32A071"/>
<stop offset="0.07" stop-color="#2DA771"/>
<stop offset="0.48" stop-color="#15CF74"/>
<stop offset="0.8" stop-color="#06E775"/>
<stop offset="1" stop-color="#00F076"/>
</linearGradient>
</defs>
</svg>
