<svg width="139" height="48" viewBox="0 0 139 48" fill="none" xmlns="http://www.w3.org/2000/svg"><g clip-path="url(#clip0_2231_1661)"><path d="M25.7882 32.3246C25.863 25.4177 33.2053 23.9578 32.3832 16.4111C32.1462 14.2385 31.0978 11.6634 28.9702 9.60293C28.8591 9.49515 28.6743 9.58491 28.6883 9.73908C29.33 16.6717 24.4391 19.9582 22.2401 22.8472C17.364 29.2537 20.9481 37.4683 28.1764 38.5558C28.3362 38.5798 28.434 38.386 28.3192 38.2722C26.8353 36.8013 25.7882 34.9343 25.7882 32.3246Z" fill="#F0F1F4"></path><path d="M35.2455 21.2684C35.1481 21.1856 34.9983 21.2387 34.9739 21.3641C34.7987 22.2598 34.2412 23.7387 32.4519 26.331C27.8187 33.0431 30.0574 36.0259 32.0802 38.269C32.5263 38.7998 32.3036 38.1511 33.2519 37.4941C34.5255 36.6119 35.0658 36.5005 36.2729 35.427C37.6497 34.0475 38.7669 31.8756 38.875 29.6759C39.1103 24.8949 36.2979 22.1617 35.2455 21.2684Z" fill="#008CD6"></path><path fill-rule="evenodd" clip-rule="evenodd" d="M56.126 24.0084V15.5693H58.8599C59.4437 15.5693 59.9171 16.0554 59.9171 16.6552V36.7661H57.1827C56.599 36.7661 56.126 36.2798 56.126 35.6803V27.4124H48.0245V36.7661H45.2902C44.7067 36.7661 44.2334 36.2798 44.2334 35.6803V15.5693H46.9676C47.5514 15.5693 48.0245 16.0554 48.0245 16.6552V24.0084H56.126ZM72.3525 30.6159V20.5599L75.1538 20.5595C75.7492 20.5595 76.2318 21.0462 76.2318 21.6467V30.792C76.2318 34.0843 73.5599 36.7779 70.2942 36.7779H68.7062C65.4407 36.7779 62.7685 34.0843 62.7685 30.7922V20.5595H65.5701C66.1657 20.5595 66.6484 21.0462 66.6484 21.6467V30.4335C66.6484 32.5352 68.9148 34.1289 71.1055 32.8529C71.8899 32.3959 72.3525 31.5298 72.3525 30.6159ZM115.395 36.7657H118.137V22.5033C118.137 21.902 117.663 21.4147 117.078 21.4147H114.335V35.6767C114.335 36.278 114.81 36.7657 115.395 36.7657ZM118.375 17.6843C118.375 18.8524 117.428 19.7992 116.26 19.7992C115.091 19.7992 114.145 18.8524 114.145 17.6843C114.145 16.5161 115.091 15.5693 116.26 15.5693C117.428 15.5693 118.375 16.5161 118.375 17.6843ZM89.8514 30.0414C89.8514 31.9735 88.2937 33.2598 86.3898 33.2598C84.4858 33.2598 82.9282 31.9735 82.9282 30.0414V27.2842C82.9282 25.3521 84.4858 24.0658 86.3898 24.0658C88.2937 24.0658 89.8514 25.3521 89.8514 27.2842V30.0414ZM86.3898 20.5595C82.3645 20.5595 79.0706 23.4818 79.0706 27.5667V29.7761C79.0706 33.8612 82.3645 36.7661 86.3898 36.7661C90.4154 36.7661 93.7087 33.8612 93.7087 29.7761V27.5667C93.7087 23.4818 90.4154 20.5595 86.3898 20.5595ZM103.925 33.2622C105.841 33.2622 107.41 31.9768 107.41 30.046V27.2907C107.41 25.3598 105.841 24.0744 103.925 24.0744C102.009 24.0744 100.441 25.3598 100.441 27.2907V30.046C100.441 31.9768 102.009 33.2622 103.925 33.2622ZM100.421 21.3725C101.465 20.8557 102.659 20.5705 103.925 20.5705C107.977 20.5705 111.292 23.4908 111.292 27.5729V29.7809C111.292 33.8632 107.977 36.7661 103.925 36.7661C99.8737 36.7661 96.5586 33.8632 96.5586 29.7809V15.5693H99.3445C99.9389 15.5693 100.421 16.055 100.421 16.6539V21.3725Z" fill="#F0F1F4"></path></g><defs><clipPath id="clip0_2231_1661"><rect width="98.8889" height="30" fill="white" transform="translate(20 9)"></rect></clipPath></defs></svg>