<svg width="172" height="48" viewBox="0 0 172 48" fill="none" xmlns="http://www.w3.org/2000/svg"><g clip-path="url(#clip0_2231_1666)"><path d="M123.033 23.9857C123.033 23.2206 123.033 22.5008 123.008 21.8361C122.991 21.2091 122.929 20.5841 122.822 19.966C122.723 19.4015 122.546 18.8534 122.298 18.3366C122.036 17.8038 121.686 17.319 121.263 16.9027C120.663 16.2877 119.949 15.7955 119.161 15.4536C118.308 15.1081 117.394 14.9369 116.474 14.9499C115.551 14.938 114.634 15.1092 113.777 15.4536C112.984 15.7908 112.265 16.2809 111.662 16.8958C111.24 17.3119 110.891 17.7968 110.631 18.3297C110.385 18.8466 110.212 19.3949 110.115 19.9591C110.011 20.5774 109.951 21.2024 109.936 21.8293C109.92 22.4939 109.911 23.2137 109.916 23.9788C109.92 24.7439 109.916 25.4582 109.936 26.127C109.951 26.7539 110.011 27.3789 110.115 27.9972C110.212 28.5614 110.385 29.1096 110.631 29.6265C110.892 30.1589 111.24 30.6436 111.662 31.0605C112.265 31.6758 112.984 32.1652 113.777 32.4999C114.633 32.8466 115.55 33.0188 116.474 33.0063C117.395 33.0199 118.308 32.8477 119.161 32.4999C119.949 32.1625 120.663 31.6734 121.263 31.0605C121.686 30.6433 122.035 30.1587 122.298 29.6265C122.546 29.1097 122.723 28.5616 122.822 27.9972C122.928 27.3808 122.989 26.7576 123.006 26.1325C123.026 25.4637 123.036 24.7481 123.03 23.9843L123.033 23.9857ZM119.565 23.9857C119.565 24.8334 119.553 25.5394 119.524 26.1008C119.508 26.562 119.462 27.0217 119.386 27.477C119.335 27.7803 119.242 28.0752 119.111 28.3536C119.005 28.5779 118.866 28.7853 118.698 28.9687C118.44 29.2644 118.119 29.4994 117.76 29.6568C117.355 29.83 116.919 29.9181 116.478 29.9156C116.036 29.9175 115.598 29.8294 115.19 29.6568C114.822 29.5023 114.493 29.2672 114.227 28.9687C114.059 28.7861 113.919 28.5786 113.814 28.3536C113.687 28.0749 113.599 27.7799 113.553 27.477C113.479 27.0214 113.433 26.5619 113.415 26.1008C113.39 25.5394 113.378 24.8343 113.378 23.9857C113.378 23.138 113.39 22.4306 113.415 21.8692C113.433 21.4081 113.479 20.9486 113.553 20.493C113.599 20.1901 113.687 19.8951 113.814 19.6164C113.92 19.3916 114.059 19.1842 114.227 19.0013C114.493 18.7032 114.822 18.4682 115.19 18.3132C115.597 18.1386 116.036 18.0505 116.478 18.0545C116.919 18.0499 117.355 18.1381 117.76 18.3132C118.119 18.4711 118.439 18.706 118.698 19.0013C118.865 19.185 119.004 19.3922 119.111 19.6164C119.242 19.8948 119.335 20.1897 119.386 20.493C119.462 20.9483 119.508 21.408 119.524 21.8692C119.554 22.4293 119.565 23.1366 119.565 23.9857Z" fill="#23AF91"></path><path d="M150.666 15.4096C150.665 15.2423 150.529 15.107 150.362 15.1055H147.501C147.333 15.1062 147.198 15.2419 147.197 15.4096V25.9784L140.22 15.1908C140.173 15.1179 140.132 15.1055 140.029 15.1055H137.375C137.208 15.1077 137.074 15.2426 137.071 15.4096V32.5591C137.074 32.7259 137.209 32.8604 137.375 32.8619H140.235C140.402 32.8611 140.537 32.726 140.538 32.5591V21.9628L147.516 32.7752C147.564 32.8481 147.603 32.8605 147.708 32.8605H150.359C150.526 32.8598 150.662 32.7249 150.663 32.5578L150.666 15.4096Z" fill="#23AF91"></path><path d="M131.488 15.4096C131.487 15.2419 131.352 15.1062 131.184 15.1055H128.326C128.158 15.1062 128.022 15.2419 128.021 15.4096V32.5578C128.022 32.7254 128.158 32.8611 128.326 32.8619H131.184C131.352 32.8611 131.487 32.7254 131.488 32.5578V15.4096Z" fill="#23AF91"></path><path d="M97.2718 23.986C97.2718 23.1328 97.2815 22.4227 97.3062 21.8571C97.3231 21.3959 97.369 20.9363 97.4438 20.4809C97.7081 18.9534 98.8778 18.052 100.371 18.052C101.345 18.0603 102.229 18.4208 102.793 19.241C103.048 19.6239 103.235 20.0487 103.343 20.4961C103.352 20.5432 103.395 20.5761 103.442 20.5717H106.807C106.855 20.5717 106.873 20.5387 106.865 20.4919C106.498 18.4098 105.387 16.5396 103.425 15.6135C102.46 15.1669 101.407 14.9435 100.345 14.9598C98.4503 14.9598 96.8544 15.6084 95.5572 16.9057C94.8165 17.6275 94.311 18.5561 94.1067 19.5699C93.9085 20.5681 93.8085 22.0396 93.8067 23.9846C93.8049 25.9295 93.9049 27.4006 94.1067 28.3979C94.3093 29.413 94.8133 30.3434 95.553 31.0676C96.8494 32.3639 98.4452 33.0121 100.341 33.0121C101.403 33.0282 102.456 32.8053 103.42 32.3598C105.383 31.4337 106.493 29.5635 106.861 27.4814C106.869 27.4332 106.851 27.4016 106.803 27.4016H103.437C103.389 27.3966 103.346 27.4298 103.338 27.4772C103.229 27.9241 103.043 28.3484 102.787 28.7309C102.223 29.5566 101.34 29.913 100.365 29.9199C98.8723 29.9199 97.7026 29.0199 97.4383 27.4924C97.3636 27.037 97.3176 26.5774 97.3007 26.1162C97.2815 25.5479 97.2718 24.8364 97.2718 23.986Z" fill="#23AF91"></path><path d="M61.7341 15.4096C61.7333 15.2419 61.5976 15.1062 61.43 15.1055H58.5717C58.4041 15.1062 58.2683 15.2419 58.2676 15.4096V32.5591C58.2691 32.7263 58.4046 32.8611 58.5717 32.862H61.43C61.5971 32.8611 61.7326 32.7263 61.7341 32.5591V27.5252L64.0281 24.7825L68.7401 32.7711C68.7763 32.83 68.8416 32.8647 68.9107 32.862H72.3841C72.5437 32.862 72.5726 32.7628 72.4928 32.6266L66.3235 22.1679L71.9836 15.3779C72.0979 15.2403 72.0497 15.1096 71.8708 15.1096H68.074C68.0278 15.1069 67.9833 15.1276 67.9556 15.1646L61.7341 22.6261V15.4096Z" fill="#23AF91"></path><path d="M82.5579 29.9197C80.9492 29.9197 79.4904 28.4307 79.4904 26.6527V15.4096C79.4897 15.2419 79.354 15.1062 79.1863 15.1055H76.3281C76.1604 15.1062 76.0247 15.2419 76.0239 15.4096V26.6087C76.0239 30.5238 78.9524 33.0119 82.5579 33.0119C86.1634 33.0119 89.0918 30.5238 89.0918 26.6087V15.4096C89.0903 15.2423 88.955 15.107 88.7877 15.1055H85.9281C85.7609 15.107 85.626 15.2425 85.6253 15.4096V26.6527C85.6253 28.4293 84.1652 29.9197 82.5579 29.9197Z" fill="#23AF91"></path><path fill-rule="evenodd" clip-rule="evenodd" d="M29.5364 23.9858L38.4098 32.8606L44.0107 27.2596C45.0122 26.3579 46.5444 26.398 47.4974 27.3509C48.4503 28.3039 48.4905 29.8361 47.5887 30.8376L40.1974 38.2303C39.2046 39.2067 37.6122 39.2067 36.6194 38.2303L25.9556 27.5638V33.9037C25.9556 35.3029 24.8214 36.4372 23.4222 36.4372C22.023 36.4372 20.8887 35.3029 20.8887 33.9037V14.0596C20.8887 12.6604 22.023 11.5262 23.4222 11.5262C24.8214 11.5262 25.9556 12.6604 25.9556 14.0596V20.3995L36.618 9.73579C37.6105 8.75864 39.2035 8.75864 40.196 9.73579L47.5928 17.1271C48.4946 18.1286 48.4545 19.6608 47.5015 20.6138C46.5486 21.5667 45.0163 21.6068 44.0148 20.7051L38.4139 15.1041L29.5364 23.9858ZM38.4139 21.4495C37.388 21.449 36.4627 22.0666 36.0697 23.0143C35.6767 23.9619 35.8934 25.053 36.6186 25.7787C37.3439 26.5043 38.4349 26.7216 39.3828 26.3291C40.3307 25.9366 40.9488 25.0117 40.9488 23.9858C40.9491 23.3131 40.6823 22.6679 40.2069 22.192C39.7315 21.7161 39.0866 21.4485 38.4139 21.4482V21.4495Z" fill="#23AF91"></path></g><defs><clipPath id="clip0_2231_1666"><rect width="130.714" height="30" fill="white" transform="translate(20.8887 9)"></rect></clipPath></defs></svg>