<svg width="32" height="32" viewBox="0 0 32 32" fill="none" xmlns="http://www.w3.org/2000/svg"><g clip-path="url(#clip0_286_1403)"><path d="M26.668 5.33301H5.33464C3.86797 5.33301 2.6813 6.53301 2.6813 7.99967L2.66797 23.9997C2.66797 25.4663 3.86797 26.6663 5.33464 26.6663H26.668C28.1346 26.6663 29.3346 25.4663 29.3346 23.9997V7.99967C29.3346 6.53301 28.1346 5.33301 26.668 5.33301ZM25.3346 23.9997H6.66797C5.93464 23.9997 5.33464 23.3997 5.33464 22.6663V10.6663L14.588 16.453C15.4546 16.9997 16.548 16.9997 17.4146 16.453L26.668 10.6663V22.6663C26.668 23.3997 26.068 23.9997 25.3346 23.9997ZM16.0013 14.6663L5.33464 7.99967H26.668L16.0013 14.6663Z" fill="#02C076"/></g><defs><clipPath id="clip0_286_1403"><rect width="32" height="32" fill="white"/></clipPath></defs></svg>