<svg width="174" height="48" viewBox="0 0 174 48" fill="none" xmlns="http://www.w3.org/2000/svg"><path d="M71.6426 22.6055V23.8184C71.6426 25.7637 71.3789 27.5098 70.8516 29.0566C70.3242 30.6035 69.5801 31.9219 68.6191 33.0117C67.6582 34.0898 66.5098 34.916 65.1738 35.4902C63.8496 36.0645 62.3789 36.3516 60.7617 36.3516C59.1562 36.3516 57.6855 36.0645 56.3496 35.4902C55.0254 34.916 53.877 34.0898 52.9043 33.0117C51.9316 31.9219 51.1758 30.6035 50.6367 29.0566C50.1094 27.5098 49.8457 25.7637 49.8457 23.8184V22.6055C49.8457 20.6484 50.1094 18.9023 50.6367 17.3672C51.1641 15.8203 51.9082 14.502 52.8691 13.4121C53.8418 12.3223 54.9902 11.4902 56.3145 10.916C57.6504 10.3418 59.1211 10.0547 60.7266 10.0547C62.3438 10.0547 63.8145 10.3418 65.1387 10.916C66.4746 11.4902 67.623 12.3223 68.584 13.4121C69.5566 14.502 70.3066 15.8203 70.834 17.3672C71.373 18.9023 71.6426 20.6484 71.6426 22.6055ZM66.3164 23.8184V22.5703C66.3164 21.2109 66.1934 20.0156 65.9473 18.9844C65.7012 17.9531 65.3379 17.0859 64.8574 16.3828C64.377 15.6797 63.791 15.1523 63.0996 14.8008C62.4082 14.4375 61.6172 14.2559 60.7266 14.2559C59.8359 14.2559 59.0449 14.4375 58.3535 14.8008C57.6738 15.1523 57.0938 15.6797 56.6133 16.3828C56.1445 17.0859 55.7871 17.9531 55.541 18.9844C55.2949 20.0156 55.1719 21.2109 55.1719 22.5703V23.8184C55.1719 25.166 55.2949 26.3613 55.541 27.4043C55.7871 28.4355 56.1504 29.3086 56.6309 30.0234C57.1113 30.7266 57.6973 31.2598 58.3887 31.623C59.0801 31.9863 59.8711 32.168 60.7617 32.168C61.6523 32.168 62.4434 31.9863 63.1348 31.623C63.8262 31.2598 64.4062 30.7266 64.875 30.0234C65.3438 29.3086 65.7012 28.4355 65.9473 27.4043C66.1934 26.3613 66.3164 25.166 66.3164 23.8184ZM77.8477 10.4062H82.3125L88.8867 29.1973L95.4609 10.4062H99.9258L90.6797 36H87.0938L77.8477 10.4062ZM75.4395 10.4062H79.8867L80.6953 28.7227V36H75.4395V10.4062ZM97.8867 10.4062H102.352V36H97.0781V28.7227L97.8867 10.4062ZM124.148 31.8867V36H110.525V31.8867H124.148ZM112.248 10.4062V36H106.975V10.4062H112.248ZM122.373 20.8301V24.8379H110.525V20.8301H122.373ZM124.131 10.4062V14.5371H110.525V10.4062H124.131ZM147.51 22.623V32.7656C147.111 33.2461 146.496 33.7676 145.664 34.3301C144.832 34.8809 143.76 35.3555 142.447 35.7539C141.135 36.1523 139.547 36.3516 137.684 36.3516C136.031 36.3516 134.525 36.082 133.166 35.543C131.807 34.9922 130.635 34.1895 129.65 33.1348C128.678 32.0801 127.928 30.791 127.4 29.2676C126.873 27.7324 126.609 25.9805 126.609 24.0117V22.4121C126.609 20.4434 126.861 18.6914 127.365 17.1562C127.881 15.6211 128.613 14.3262 129.562 13.2715C130.512 12.2168 131.643 11.4141 132.955 10.8633C134.268 10.3125 135.727 10.0371 137.332 10.0371C139.559 10.0371 141.387 10.4004 142.816 11.127C144.246 11.8418 145.336 12.8379 146.086 14.1152C146.848 15.3809 147.316 16.834 147.492 18.4746H142.377C142.248 17.6074 142.002 16.8516 141.639 16.207C141.275 15.5625 140.754 15.0586 140.074 14.6953C139.406 14.332 138.539 14.1504 137.473 14.1504C136.594 14.1504 135.809 14.332 135.117 14.6953C134.438 15.0469 133.863 15.5684 133.395 16.2598C132.926 16.9512 132.568 17.8066 132.322 18.8262C132.076 19.8457 131.953 21.0293 131.953 22.377V24.0117C131.953 25.3477 132.082 26.5312 132.34 27.5625C132.598 28.582 132.979 29.4434 133.482 30.1465C133.998 30.8379 134.631 31.3594 135.381 31.7109C136.131 32.0625 137.004 32.2383 138 32.2383C138.832 32.2383 139.523 32.168 140.074 32.0273C140.637 31.8867 141.088 31.7168 141.428 31.5176C141.779 31.3066 142.049 31.1074 142.236 30.9199V26.3848H137.42V22.623H147.51ZM162.17 14.7832L155.209 36H149.602L159.111 10.4062H162.68L162.17 14.7832ZM167.953 36L160.975 14.7832L160.412 10.4062H164.016L173.578 36H167.953ZM167.637 26.4727V30.6035H154.119V26.4727H167.637Z" fill="white"/><path d="M17.4797 5.75746C11.1053 6.50852 5.05831 10.803 2.1311 16.6381C0.513439 19.8927 -0.160587 23.0703 0.0319915 26.7678C0.128281 28.7899 0.667503 31.6015 1.11043 32.4874C1.20672 32.6607 1.64966 33.5658 2.07333 34.5095C2.51626 35.4339 3.38287 36.8589 4.01838 37.687C5.09682 39.1314 6.92632 40.9994 7.23445 40.9994C7.36926 40.9994 16.3627 33.5273 17.0945 32.8148C17.3063 32.603 17.2486 32.5067 16.6708 32.2371C16.3049 32.0637 15.6502 31.6208 15.2265 31.2549L14.4369 30.6001L13.3199 31.5053C12.7037 31.9867 12.1645 32.4489 12.1067 32.5259C11.606 33.1422 7.44629 36.3775 7.27297 36.2812C6.81078 35.9731 5.1546 33.1807 4.59612 31.6978C3.61396 29.1943 3.38287 27.7692 3.49842 25.0153C3.61396 22.2615 4.01838 20.5668 5.09682 18.4099C7.31148 14.0191 10.7394 11.1304 15.5154 9.66681C17.0175 9.22388 17.5182 9.16611 20.0024 9.16611C22.4867 9.16611 22.9874 9.22388 24.4895 9.66681C29.2655 11.1304 32.6934 14.0191 34.9081 18.4099C36.1598 20.9134 36.468 22.3963 36.4487 25.7857C36.4487 28.5203 36.4102 28.9054 35.9095 30.4076C35.6014 31.3127 35.1392 32.4681 34.8696 33.0074C34.3303 34.1051 33.0015 36.1079 32.7127 36.2812C32.5586 36.3775 28.5337 33.2385 27.8982 32.5452C27.8404 32.4681 27.3012 32.006 26.6849 31.486L25.568 30.5424L24.8554 31.2356C24.4703 31.6015 23.8155 32.0637 23.4111 32.2756L22.66 32.6415L27.4167 36.6279C30.0166 38.8233 32.3083 40.7298 32.5201 40.8453C32.8475 41.0572 33.0208 40.9801 33.8874 40.1328C35.3895 38.6499 37.0457 36.3582 37.9316 34.5095C38.3552 33.5658 38.7982 32.6607 38.8945 32.4681C39.3374 31.6401 39.8573 28.7706 39.9729 26.7293C40.6084 14.2116 29.978 4.31311 17.4797 5.75746Z" fill="white"/><path d="M17.3454 10.3797C11.6643 11.4197 6.9654 15.5986 5.17442 21.2605C4.57742 23.167 4.42336 26.9223 4.86629 28.9444C5.05887 29.7339 5.28996 30.4465 5.40551 30.5235C5.5018 30.5813 5.8677 30.3887 6.19508 30.0806C6.54173 29.7532 7.11946 29.2718 7.50462 28.9829L8.19791 28.4822L8.10162 26.2097C7.96681 22.3582 8.91045 19.9124 11.6258 17.2163C13.3975 15.4446 14.8226 14.5972 17.0373 14.0387C19.8489 13.3069 23.065 13.6921 25.6456 15.0402C27.321 15.9068 29.7475 18.3718 30.6334 20.105C31.8081 22.3967 32.2318 24.7269 31.9044 27.3267L31.7696 28.3859L33.0984 29.5028C33.8302 30.1191 34.5235 30.5813 34.6198 30.5235C34.716 30.4465 34.9471 29.7339 35.1397 28.9444C35.5827 26.9223 35.4286 23.167 34.8316 21.2605C33.2139 16.1186 29.2661 12.2478 24.1435 10.7456C22.5836 10.3027 18.9438 10.1101 17.3454 10.3797Z" fill="white"/><path d="M17.3061 15.1183C13.5893 16.1004 10.4118 19.2394 9.52592 22.8213C9.1215 24.4197 9.04447 26.2301 9.31408 27.5589L9.56443 28.6951L8.48599 29.6002C7.88899 30.1009 7.0609 30.8326 6.63723 31.2178L5.84766 31.9304L6.38688 32.951C6.67575 33.5095 7.08016 34.1835 7.25348 34.4146L7.61938 34.8769L9.14076 33.5866C13.493 29.9469 13.6664 29.7735 13.5316 29.4654C12.7612 27.6166 12.6457 27.1352 12.6264 25.6909C12.6264 23.0333 13.8012 20.8379 15.9773 19.432C17.4024 18.5077 18.6542 18.1994 20.58 18.315C23.9693 18.5076 26.6655 20.9534 27.3202 24.4198C27.5513 25.6909 27.301 27.6552 26.7617 28.6951C26.5306 29.1188 26.3573 29.5232 26.3573 29.6195C26.3573 29.7735 27.1084 30.4283 30.8637 33.5866L32.3851 34.8769L32.751 34.4146C32.9243 34.1835 33.3287 33.5095 33.6176 32.951L34.1568 31.9304L32.905 30.7942C32.2117 30.1587 31.3644 29.446 31.0177 29.215C30.6133 28.9261 30.44 28.6758 30.517 28.4833C30.5748 28.3292 30.7289 27.5781 30.8252 26.8463C30.9792 25.7871 30.96 25.1516 30.7096 23.8614C29.9008 19.5283 26.8003 16.1773 22.602 15.0989C21.177 14.733 18.7119 14.7524 17.3061 15.1183Z" fill="white"/></svg>