<svg width="201" height="68" viewBox="0 0 201 68" fill="none" xmlns="http://www.w3.org/2000/svg"><path d="M69.1046 24.1211C70.7495 24.1211 72.2482 24.379 73.6007 24.8949C74.9531 25.4107 76.1137 26.1496 77.0827 27.1116C78.0517 28.0736 78.8045 29.2412 79.3413 30.6144C79.878 31.9876 80.1465 33.5317 80.1465 35.2465C80.1465 36.9754 79.878 38.5335 79.3413 39.9207C78.8045 41.308 78.0517 42.4858 77.0827 43.4548C76.1137 44.4238 74.9531 45.1697 73.6007 45.6926C72.2482 46.2153 70.7495 46.4768 69.1046 46.4768C67.4453 46.4768 65.9361 46.2153 64.5769 45.6926C63.2174 45.1697 62.0463 44.4238 61.0636 43.4548C60.0805 42.4858 59.3207 41.308 58.7839 39.9207C58.2472 38.5335 57.979 36.9754 57.979 35.2465C57.979 33.5317 58.2472 31.9876 58.7839 30.6144C59.3207 29.2412 60.0805 28.0736 61.0636 27.1116C62.0463 26.1496 63.2174 25.4107 64.5769 24.8949C65.9361 24.379 67.4453 24.1211 69.1046 24.1211ZM69.1046 41.2143C70.5962 41.2143 71.6942 41.1407 72.3982 40.088C73.1023 39.0354 73.4544 37.4355 73.4544 35.2883C73.4544 33.1415 73.1023 31.5451 72.3982 30.4995C71.6942 29.4538 71.446 29.3397 69.1046 29.3397C66.7629 29.3397 66.4485 29.4538 65.7375 30.4995C65.0264 31.5451 64.6711 33.1415 64.6711 35.2883C64.6711 37.4355 65.0264 39.0354 65.7375 40.088C66.4485 41.1407 67.5708 41.2143 69.1046 41.2143Z" fill="white"/><path d="M89.3897 27.0937C89.808 26.7034 90.24 26.3409 90.6863 26.0063C91.1324 25.6717 91.6097 25.3894 92.1186 25.1593C92.6276 24.9293 93.1783 24.7481 93.7709 24.6156C94.3634 24.4832 95.0081 24.417 95.7054 24.417C96.8902 24.417 97.9394 24.6226 98.8525 25.0339C99.7657 25.4452 100.536 26.0168 101.163 26.7487C101.791 27.4806 102.265 28.3519 102.586 29.3628C102.906 30.3736 103.066 31.4716 103.066 32.6565V45.6285C103.066 46.0757 102.704 46.4381 102.257 46.4381H97.3932C96.9461 46.4381 96.5837 46.0757 96.5837 45.6285V32.6565C96.5837 31.5971 96.3395 30.7708 95.8516 30.1785C95.3637 29.5859 94.6457 29.2896 93.6975 29.2896C92.9867 29.2896 92.3207 29.4394 91.7004 29.7392C91.08 30.039 90.4772 30.4467 89.8916 30.9627V45.6285C89.8916 46.0757 89.529 46.4381 89.0821 46.4381H84.2182C83.7711 46.4381 83.4087 46.0757 83.4087 45.6285V26.857C83.409 26.1355 83.8202 25.4772 84.4686 25.1609C84.4694 25.1603 84.4705 25.1599 84.4716 25.1593C86.2785 24.2714 87.2877 23.5778 87.9685 23.6189C89.2664 23.6973 89.3897 25.0339 89.3897 25.7914V27.0937Z" fill="white"/><path d="M87.5651 23.3665C87.7837 23.26 88.0236 23.2048 88.2665 23.2051C89.1321 23.2061 89.8361 23.8968 89.8591 24.7567L89.8596 24.8022L89.8488 33.6502C89.8237 34.8933 87.6769 35.3267 83.4085 34.9503L83.3807 27.7903V26.9008C83.3804 26.8971 83.381 26.8871 83.3807 26.8834C83.344 26.0273 83.7482 25.2521 84.5089 24.8579L84.558 24.8332L87.5651 23.3665Z" fill="white"/><path d="M120.738 32.6952C120.738 32.1795 120.671 31.6776 120.539 31.1895C120.406 30.7016 120.19 30.2661 119.89 29.8826C119.591 29.4992 119.197 29.1888 118.709 28.9519C118.221 28.715 117.628 28.5963 116.931 28.5963C115.704 28.5963 114.742 28.9484 114.045 29.6524C113.348 30.3565 112.888 31.3708 112.665 32.6952H120.738ZM112.582 36.4595C112.791 38.272 113.341 39.5861 114.234 40.4016C115.126 41.2173 116.276 41.625 117.684 41.625C118.437 41.625 119.086 41.5344 119.629 41.353C120.173 41.172 120.657 40.9698 121.083 40.7467C121.508 40.5235 121.898 40.3214 122.254 40.1401C122.609 39.959 122.982 39.8684 123.373 39.8684C123.888 39.8684 124.279 40.0567 124.544 40.4329L126.426 42.7543C125.757 43.5212 125.035 44.1451 124.261 44.6259C123.487 45.1071 122.693 45.4835 121.877 45.7552C121.062 46.0272 120.246 46.2153 119.43 46.32C118.615 46.4244 117.838 46.4768 117.099 46.4768C115.579 46.4768 114.153 46.2293 112.822 45.7344C111.491 45.2395 110.327 44.504 109.33 43.5279C108.333 42.5522 107.545 41.3393 106.966 39.8891C106.388 38.4393 106.099 36.7522 106.099 34.8283C106.099 33.3784 106.346 32.0052 106.841 30.7086C107.336 29.412 108.047 28.2757 108.974 27.2997C109.901 26.3239 111.024 25.5501 112.341 24.9785C113.659 24.4069 115.147 24.1211 116.806 24.1211C118.242 24.1211 119.556 24.3442 120.748 24.7903C121.94 25.2364 122.965 25.8847 123.822 26.7352C124.68 27.5857 125.349 28.6278 125.83 29.8616C126.311 31.0955 126.551 32.4931 126.551 34.0546C126.551 34.5425 126.53 34.94 126.489 35.2465C126.447 35.5533 126.37 35.7973 126.258 35.9786C126.147 36.1599 125.997 36.2854 125.809 36.355C125.621 36.4246 125.38 36.4595 125.087 36.4595H112.582Z" fill="white"/><path d="M145.917 27.0501C145.917 27.4964 145.84 27.9284 145.687 28.3467C145.533 28.7649 145.331 29.1065 145.08 29.3715L136.025 41.3336H144.008V46.1435H129.369C128.921 46.1435 128.559 45.7811 128.559 45.334V43.5085C128.559 43.2435 128.629 42.9089 128.768 42.5047C128.908 42.1005 129.117 41.724 129.396 41.3754L138.535 29.2668H130.177L130.96 24.457H145.107C145.554 24.457 145.917 24.8195 145.917 25.2666V27.0501Z" fill="white"/><path d="M128.432 27.5595C128.353 27.7228 128.311 27.902 128.312 28.0833C128.312 28.7301 128.828 29.256 129.471 29.2733L129.505 29.2736L136.115 29.2655C137.044 29.2469 137.367 27.6429 137.086 24.454L131.737 24.4333H131.073C131.07 24.4332 131.062 24.4335 131.06 24.4333C130.42 24.406 129.841 24.708 129.546 25.2763L129.528 25.313L128.432 27.5595Z" fill="white"/><path d="M146.682 44.4384C146.761 44.6016 146.803 44.7808 146.802 44.9621C146.801 45.609 146.286 46.1349 145.643 46.1521L145.609 46.1524L138.999 46.1443C138.07 46.1257 137.746 44.5218 138.028 41.3328L143.377 41.3123H144.041C144.044 41.312 144.052 41.3123 144.054 41.3123C144.694 41.2848 145.273 41.587 145.567 42.155L145.586 42.1917L146.682 44.4384Z" fill="white"/><path d="M149.886 43.1097C149.886 42.6496 149.973 42.2141 150.148 41.8029C150.322 41.3916 150.562 41.036 150.869 40.7362C151.176 40.4364 151.535 40.1995 151.946 40.0251C152.357 39.8508 152.807 39.7637 153.295 39.7637C153.769 39.7637 154.215 39.8508 154.634 40.0251C155.052 40.1995 155.414 40.4364 155.721 40.7362C156.028 41.036 156.268 41.3916 156.443 41.8029C156.617 42.2141 156.704 42.6496 156.704 43.1097C156.704 43.5838 156.617 44.0231 156.443 44.4273C156.268 44.8316 156.028 45.1837 155.721 45.4835C155.414 45.7833 155.052 46.0167 154.634 46.184C154.215 46.3513 153.769 46.435 153.295 46.435C152.807 46.435 152.357 46.3513 151.946 46.184C151.535 46.0167 151.176 45.7833 150.869 45.4835C150.562 45.1837 150.322 44.8316 150.148 44.4273C149.973 44.0231 149.886 43.5838 149.886 43.1097Z" fill="white"/><path d="M166.986 27.3106L166.942 46.4672H160.519V28.0206L166.986 27.3106ZM164.703 23.9078C164.922 23.8013 165.161 23.7461 165.404 23.7464C166.27 23.7475 166.974 24.4379 166.996 25.2977L166.997 25.3431L166.986 34.1889C166.961 35.4318 164.806 35.8651 160.52 35.4887V27.4412C160.519 27.4374 160.52 27.4275 160.52 27.424C160.483 26.5679 160.887 25.7929 161.648 25.3988L161.697 25.3741L164.703 23.9078ZM167.285 18.7243C167.285 19.2122 167.188 19.6653 166.993 20.0836C166.798 20.5018 166.536 20.8713 166.209 21.192C165.881 21.5126 165.497 21.7636 165.058 21.9448C164.619 22.1261 164.149 22.2167 163.647 22.2167C163.173 22.2167 162.723 22.1261 162.298 21.9448C161.873 21.7636 161.5 21.5126 161.179 21.192C160.858 20.8713 160.604 20.5018 160.416 20.0836C160.227 19.6653 160.133 19.2122 160.133 18.7243C160.133 18.2363 160.227 17.7797 160.416 17.3545C160.604 16.9293 160.858 16.5563 161.179 16.2357C161.5 15.915 161.873 15.6641 162.298 15.4828C162.723 15.3016 163.173 15.2109 163.647 15.2109C164.149 15.2109 164.619 15.3016 165.058 15.4828C165.497 15.6641 165.881 15.915 166.209 16.2357C166.536 16.5563 166.798 16.9293 166.993 17.3545C167.188 17.7797 167.285 18.2363 167.285 18.7243Z" fill="white"/><path d="M181.396 24.0156C183.041 24.0156 184.539 24.2735 185.892 24.7894C187.244 25.3053 188.405 26.0442 189.374 27.006C190.343 27.968 191.096 29.1359 191.632 30.5091C192.169 31.8823 192.437 33.4263 192.437 35.1412C192.437 36.8701 192.169 38.4278 191.632 39.8151C191.096 41.2024 190.343 42.3805 189.374 43.3495C188.405 44.3185 187.244 45.0643 185.892 45.587C184.539 46.11 183.041 46.3714 181.396 46.3714C179.737 46.3714 178.227 46.11 176.868 45.587C175.509 45.0643 174.338 44.3185 173.355 43.3495C172.372 42.3805 171.612 41.2024 171.075 39.8151C170.539 38.4278 170.27 36.8701 170.27 35.1412C170.27 33.4263 170.539 31.8823 171.075 30.5091C171.612 29.1359 172.372 27.968 173.355 27.006C174.338 26.0442 175.509 25.3053 176.868 24.7894C178.227 24.2735 179.737 24.0156 181.396 24.0156ZM181.396 41.1087C182.887 41.1087 183.985 41.0351 184.689 39.9824C185.393 38.9298 185.745 37.3301 185.745 35.183C185.745 33.0359 185.393 31.4395 184.689 30.3939C183.985 29.3482 183.737 29.2344 181.396 29.2344C179.054 29.2344 178.74 29.3482 178.029 30.3939C177.318 31.4395 176.962 33.0359 176.962 35.183C176.962 37.3301 177.318 38.9298 178.029 39.9824C178.74 41.0351 179.862 41.1087 181.396 41.1087Z" fill="white"/><path d="M12.7179 13.9925C13.567 13.5604 14.7022 12.9834 16.1236 12.2617C17.4506 11.5885 19.0738 12.1149 19.7492 13.4375C19.9427 13.8163 20.0432 14.2354 20.042 14.6605L19.9951 43.3087L31.9494 52.2639C33.1394 53.1557 33.3792 54.8401 32.4845 56.0266C32.2378 56.3536 31.9194 56.6202 31.5532 56.8062L26.5149 59.3648C25.1866 60.0386 23.5894 59.8996 22.3983 59.0067L11.5417 50.8799C9.90516 49.6551 8.94302 47.7336 8.94483 45.6936L8.99615 20.0533C8.99558 17.4966 10.4332 15.1553 12.7179 13.9925Z" fill="url(#paint0_linear_3267_200)"/><path d="M8.99615 20.4258C8.98816 35.2069 11.5493 36.997 20.0049 43.3272L31.9461 52.2636C33.1367 53.1549 33.3771 54.8392 32.4831 56.026C32.2365 56.3536 31.9175 56.6207 31.5513 56.8066L26.5149 59.3642C25.1866 60.038 23.5894 59.899 22.3983 59.0061L11.5417 50.8793C9.90516 49.6545 8.94302 47.7329 8.94483 45.6929L8.99615 20.4258Z" fill="url(#paint1_linear_3267_200)"/><path opacity="0.32" d="M8.94483 45.6942L8.9594 37.3184C10.6653 41.247 13.3684 44.2441 17.4137 47.2742L30.7162 57.2318L26.5149 59.3655C25.1866 60.0393 23.5894 59.9003 22.3983 59.0074L11.5416 50.8806C9.90514 49.6558 8.94299 47.7342 8.94483 45.6942Z" fill="url(#paint2_linear_3267_200)"/><path d="M45.1451 54.5473C44.296 54.9796 43.1607 55.5565 41.7392 56.2783C40.4124 56.9513 38.789 56.4249 38.1136 55.1024C37.9201 54.7235 37.8198 54.3045 37.8208 53.8795L37.8678 25.2312L25.9137 16.2759C24.7235 15.3842 24.4838 13.6997 25.3784 12.5134C25.6252 12.1862 25.9437 11.9195 26.3096 11.7337L31.3479 9.17501C32.6763 8.50143 34.2735 8.6404 35.4646 9.53323L46.3214 17.66C47.9577 18.8849 48.92 20.8065 48.9181 22.8463L48.8668 48.4867C48.8673 51.0434 47.4296 53.3846 45.1451 54.5473Z" fill="url(#paint3_linear_3267_200)"/><path d="M48.8666 48.1135C48.8747 33.3324 46.3137 31.5423 37.8579 25.212L25.9167 16.2756C24.7261 15.3845 24.4856 13.7001 25.3796 12.5134C25.6265 12.1857 25.9452 11.9187 26.3116 11.7326L31.3477 9.17501C32.6762 8.50143 34.2734 8.6404 35.4644 9.53323L46.3212 17.66C47.9575 18.8849 48.9198 20.8065 48.9179 22.8463L48.8666 48.1135Z" fill="url(#paint4_linear_3267_200)"/><path opacity="0.32" d="M48.9178 22.8462L48.9032 31.2222C47.1973 27.2936 44.4943 24.2966 40.4488 21.2664L27.1465 11.3086L31.3476 9.17501C32.6761 8.50143 34.2733 8.6404 35.4643 9.53323L46.3211 17.66C47.9574 18.8849 48.9197 20.8065 48.9178 22.8462Z" fill="url(#paint5_linear_3267_200)"/><defs><linearGradient id="paint0_linear_3267_200" x1="10.9288" y1="36.5924" x2="26.8133" y2="20.9725" gradientUnits="userSpaceOnUse"><stop offset="0.03151" stop-color="#35155C"/><stop offset="0.269051" stop-color="#742085"/><stop offset="0.676679" stop-color="#DE436F"/><stop offset="1" stop-color="#FE7478"/></linearGradient><linearGradient id="paint1_linear_3267_200" x1="8.90494" y1="36.1883" x2="32.5732" y2="56.2537" gradientUnits="userSpaceOnUse"><stop stop-color="#9644FF"/><stop offset="0.505208" stop-color="#F33462"/><stop offset="1" stop-color="#FF7A7A"/></linearGradient><linearGradient id="paint2_linear_3267_200" x1="18.8981" y1="39.4787" x2="11.7027" y2="49.125" gradientUnits="userSpaceOnUse"><stop stop-color="#E4377C"/><stop offset="1" stop-color="#5B1835" stop-opacity="0"/></linearGradient><linearGradient id="paint3_linear_3267_200" x1="46.9342" y1="31.9476" x2="31.0497" y2="47.5673" gradientUnits="userSpaceOnUse"><stop offset="0.03151" stop-color="#35155C"/><stop offset="0.269051" stop-color="#742085"/><stop offset="0.676679" stop-color="#DE436F"/><stop offset="1" stop-color="#FE7478"/></linearGradient><linearGradient id="paint4_linear_3267_200" x1="48.9578" y1="32.351" x2="25.2896" y2="12.2856" gradientUnits="userSpaceOnUse"><stop stop-color="#9644FF"/><stop offset="0.505208" stop-color="#F33462"/><stop offset="1" stop-color="#FF7A7A"/></linearGradient><linearGradient id="paint5_linear_3267_200" x1="38.9645" y1="29.0619" x2="46.16" y2="19.4157" gradientUnits="userSpaceOnUse"><stop stop-color="#E4377C"/><stop offset="1" stop-color="#5B1835" stop-opacity="0"/></linearGradient></defs></svg>