<svg width="147" height="48" viewBox="0 0 147 48" fill="none" xmlns="http://www.w3.org/2000/svg"><path d="M3.62562 6.68164C3.48883 6.8645 3.4082 7.09056 3.4082 7.33389V30.8033C3.4082 36.3035 14.9284 42.1205 20.1838 44.2485C20.4444 44.3537 20.7367 44.3551 20.9973 44.25C23.9994 43.0405 29.0345 40.6302 32.7954 37.7635C33.0877 37.5346 33.4001 37.3056 33.6708 37.0753C34.6628 36.2661 35.5296 35.4238 36.2092 34.5627C20.6215 32.5858 7.89907 21.4299 3.62562 6.68164Z" fill="url(#paint0_linear_2602_1895)"/><path d="M37.0586 33.3085C37.24 32.9803 37.3912 32.6505 37.5064 32.3194C37.636 31.9479 37.7209 31.5735 37.7569 31.2006C37.7684 31.0754 37.7742 30.9515 37.7742 30.8263V7.33381C37.7742 7.26613 37.7684 7.20134 37.7569 7.13655C37.7339 7.0084 37.6878 6.88745 37.623 6.77947C37.5913 6.72475 37.5539 6.67292 37.5136 6.6254C37.3494 6.4339 37.1205 6.29856 36.8556 6.25536L35.9197 6.10562L20.7725 3.68237C20.7149 3.67373 20.6573 3.66797 20.5998 3.66797C20.5422 3.66797 20.4846 3.67229 20.427 3.68237L5.88457 6.00771L4.32523 6.2568C4.03582 6.30288 3.78817 6.46126 3.62402 6.68156C7.89747 21.4284 20.6199 32.5857 36.2076 34.5641C36.2566 34.5022 36.307 34.4403 36.3531 34.3784C36.5676 34.1005 36.9607 33.4842 37.0586 33.3085Z" fill="url(#paint1_linear_2602_1895)"/><path d="M38.5158 2.82785L21.1024 0.0403155C20.9368 0.0143984 20.7698 0 20.6013 0C20.5985 0 20.5941 0 20.5884 0V1.98554C20.5927 1.98554 20.597 1.98554 20.6013 1.98554C20.6633 1.98554 20.7266 1.98986 20.7885 1.99994L38.202 4.78747C38.775 4.87962 39.1969 5.37349 39.1969 5.95375V31.3914C39.1969 31.9314 39.0947 32.4713 38.9075 33.0084C38.7822 33.3669 38.6195 33.7254 38.4223 34.0796C38.3171 34.2711 37.8895 34.9378 37.6606 35.2401C36.9032 36.2408 35.904 37.2213 34.7535 38.1601C34.4598 38.4078 34.1214 38.6569 33.8061 38.9045C29.7343 42.0088 24.2816 44.6193 21.0304 45.9281C20.8893 45.9842 20.7396 46.013 20.5913 46.013C20.5898 46.013 20.5898 46.013 20.5884 46.013V47.9971C20.5898 47.9971 20.5898 47.9971 20.5913 47.9971C20.9973 47.9971 21.3947 47.9208 21.7719 47.7682C25.5414 46.2506 30.9984 43.5394 35.0084 40.4826C35.0156 40.4768 35.0242 40.4711 35.0314 40.4653C35.1308 40.3876 35.233 40.3098 35.3338 40.2306C35.5599 40.0578 35.7931 39.8779 36.0206 39.6864C37.3438 38.605 38.428 37.5122 39.243 36.4366C39.5309 36.0565 40.0104 35.3078 40.1587 35.0385C40.4121 34.5807 40.6209 34.117 40.7807 33.6606C41.0456 32.8989 41.181 32.1358 41.181 31.39V5.95375C41.181 4.39008 40.0608 3.0755 38.5158 2.82785Z" fill="url(#paint2_linear_2602_1895)"/><path d="M20.4774 46.0092C20.3666 45.9977 20.2557 45.9718 20.1506 45.9286C14.4589 43.6248 1.9841 37.3255 1.9841 31.3703V5.9557C1.9841 5.37544 2.40598 4.88014 2.97903 4.78943L4.66653 4.52018L20.4155 2.00045C20.4342 1.99757 20.5408 1.98749 20.5897 1.98606V0.00195312C20.5163 0.00483281 20.2183 0.0235507 20.1031 0.0408288L4.35408 2.55911L2.66659 2.82836C1.12164 3.07602 0 4.39059 0 5.9557V31.3703C0 33.2465 0.846627 35.183 2.51684 37.1268C3.78822 38.607 5.57219 40.1318 7.81546 41.6595C12.5813 44.9034 17.8915 47.1553 19.4047 47.7687C19.7474 47.9069 20.1074 47.9832 20.476 47.9976C20.5134 47.9991 20.5509 48.0005 20.5883 48.0005V46.0164C20.5523 46.015 20.5149 46.0121 20.4774 46.0092Z" fill="url(#paint3_linear_2602_1895)"/><path d="M39.1966 5.95453C39.1966 5.37428 38.7747 4.87897 38.2017 4.78826L20.7882 2.00073C20.7263 1.99065 20.6644 1.98633 20.6011 1.98633C20.5982 1.98633 20.5924 1.98633 20.5881 1.98633C20.5392 1.98777 20.4326 1.99785 20.4139 2.00073L4.66778 4.51901L2.98028 4.78826C2.40723 4.88041 1.98535 5.37428 1.98535 5.95453V31.3692C1.98535 37.3258 14.4601 43.6237 20.1518 45.9274C20.2569 45.9706 20.3678 45.9965 20.4787 46.008C20.5161 46.0124 20.5536 46.0138 20.591 46.0138C20.5924 46.0138 20.5924 46.0138 20.5939 46.0138C20.7436 46.0138 20.8919 45.985 21.033 45.9289C24.2842 44.62 29.7354 42.0096 33.8087 38.9053C34.1241 38.6577 34.4624 38.4086 34.7561 38.1609C35.9066 37.2221 36.9058 36.2416 37.6632 35.2409C37.8921 34.9385 38.3183 34.2719 38.4249 34.0804C38.6207 33.7248 38.7848 33.3677 38.9101 33.0092C39.0973 32.4721 39.1995 31.9322 39.1995 31.3922V5.95453H39.1966ZM37.7726 30.8264C37.7726 30.9516 37.7669 31.0754 37.7553 31.2007C37.7208 31.5751 37.6358 31.948 37.5048 32.3195C37.3896 32.6506 37.2384 32.9818 37.057 33.3086C36.9591 33.4857 36.566 34.1006 36.3544 34.3799C35.6546 35.3043 34.7331 36.2099 33.6691 37.0767C33.3984 37.3056 33.0859 37.5346 32.7936 37.765C29.0328 40.6317 23.9991 43.042 20.9956 44.2514C20.866 44.3033 20.7278 44.3306 20.5895 44.3306C20.4513 44.3306 20.3131 44.3047 20.1821 44.2514C14.9266 42.1234 3.40648 36.3064 3.40648 30.8062V7.33678C3.40648 6.80116 3.79667 6.34329 4.32509 6.25978L5.88444 6.01069L20.4268 3.68534C20.4844 3.6767 20.542 3.67094 20.5996 3.67094C20.6572 3.67094 20.7148 3.67526 20.7724 3.68534L35.9181 6.11003L36.854 6.25978C37.1189 6.30153 37.3479 6.43688 37.512 6.62982C37.5523 6.67733 37.5898 6.72917 37.6214 6.78388C37.6862 6.89331 37.7309 7.01282 37.7553 7.14096C37.7669 7.20431 37.7726 7.27055 37.7726 7.33822V30.8264Z" fill="white"/><path d="M21.8783 18.9734C22.5478 18.972 23.0892 18.4292 23.0892 17.7596C23.0892 17.0887 22.5464 16.5458 21.8754 16.5458L12.4804 16.543C12.3854 16.543 12.3091 16.6193 12.3091 16.7143C12.3091 17.0498 12.3091 17.7568 12.3091 17.7625C12.3091 18.4133 12.8202 18.9475 13.461 18.9849C13.4667 18.9849 21.8768 18.9734 21.8783 18.9734Z" fill="white"/><path d="M24.188 9.44038C24.116 9.43894 14.2387 9.4375 14.2387 9.4375C14.1437 9.4375 14.0674 9.51381 14.0674 9.60884C14.0674 9.94432 14.0674 10.6513 14.0674 10.657C14.0674 11.3079 14.5785 11.842 15.2207 11.8795C15.2279 11.8795 23.6726 11.8608 23.6726 11.8608C23.9879 11.8608 24.2787 11.8752 24.2787 11.8752C27.3931 12.0263 29.8725 14.6109 29.8725 17.7627C29.8725 20.9447 27.3456 23.5235 24.188 23.6286V23.6271C24.106 23.63 15.2912 23.6243 15.2912 23.6243C15.2308 23.6243 15.1717 23.6286 15.1127 23.6372C14.554 23.7193 14.1192 24.1815 14.0803 24.7531V36.7671C14.0803 36.8622 14.1567 36.9385 14.2517 36.9385C14.5872 36.9385 15.2941 36.9385 15.2999 36.9385C15.9507 36.9385 16.4849 36.4273 16.5223 35.7852C16.5223 35.7808 16.5266 26.2318 16.5266 26.2318C16.5266 26.2289 16.5266 26.2275 16.5266 26.2246C16.531 26.1411 16.6015 26.0763 16.685 26.0763C16.6865 26.0763 24.3666 26.0705 24.3666 26.0705C25.0275 26.0403 25.6682 25.9338 26.2801 25.7595C29.7689 24.7646 32.3217 21.571 32.3217 17.7641C32.3231 13.2272 28.6991 9.54549 24.188 9.44038Z" fill="white"/><path d="M62.731 7.86523C69.6538 7.86523 73.6205 11.2877 73.6205 17.3164C73.6205 23.6574 69.6538 27.3132 62.731 27.3132H57.814C57.5433 27.3132 57.3244 27.532 57.3244 27.8027V34.6031C57.3244 34.8738 57.1056 35.0926 56.8349 35.0926H51.6673C51.3966 35.0926 51.1777 34.8738 51.1777 34.6031V8.35478C51.1777 8.08409 51.3966 7.86523 51.6673 7.86523H62.731ZM57.3244 21.6892C57.3244 21.9598 57.5433 22.1787 57.814 22.1787H62.42C65.8425 22.1787 67.7877 20.6222 67.7877 17.5122C67.7877 14.4784 65.844 12.9608 62.42 12.9608H57.814C57.5433 12.9608 57.3244 13.1797 57.3244 13.4504V21.6892Z" fill="white"/><path d="M78.8716 34.6017V8.35478C78.8716 8.08409 79.0904 7.86523 79.3611 7.86523H84.5287C84.7994 7.86523 85.0183 8.08409 85.0183 8.35478V34.6017C85.0183 34.8723 84.7994 35.0912 84.5287 35.0912H79.3611C79.0904 35.0912 78.8716 34.8723 78.8716 34.6017Z" fill="white"/><path d="M145.53 35.0912H139.367C139.208 35.0912 139.058 35.0149 138.968 34.8853L133.099 26.599C132.903 26.3226 132.491 26.324 132.298 26.6019L126.54 34.8824C126.448 35.0134 126.299 35.0926 126.139 35.0926H120.14C119.744 35.0926 119.513 34.6463 119.74 34.3223L128.768 21.4458C128.884 21.2788 128.886 21.0571 128.771 20.8886L120.385 8.63123C120.163 8.30727 120.395 7.86523 120.788 7.86523H126.759C126.921 7.86523 127.072 7.94443 127.164 8.07833L132.294 15.5972C132.488 15.8808 132.906 15.8823 133.102 15.5986L138.269 8.07689C138.36 7.94443 138.511 7.86523 138.672 7.86523H144.753C145.147 7.86523 145.381 8.30871 145.155 8.63411L136.821 20.6165C136.704 20.7835 136.704 21.0067 136.821 21.1751L145.935 34.3252C146.158 34.6477 145.925 35.0912 145.53 35.0912Z" fill="white"/><path d="M116.256 7.86328H110.98C110.774 7.86328 110.591 7.99143 110.521 8.18581L103.631 27.1327C103.474 27.5618 102.866 27.5618 102.711 27.1312L95.8588 8.18868C95.7882 7.99431 95.6054 7.86616 95.398 7.86616H89.846C89.5019 7.86616 89.2643 8.21316 89.391 8.53425C90.0317 10.1656 99.061 33.1138 99.7233 34.7811C99.7967 34.9669 99.9782 35.0892 100.178 35.0892C101.658 35.0892 104.403 35.0892 105.831 35.0892C106.031 35.0892 106.211 34.9669 106.286 34.7811C107.424 31.9173 115.37 11.9078 116.711 8.53425C116.837 8.21172 116.601 7.86328 116.256 7.86328Z" fill="white"/><defs><linearGradient id="paint0_linear_2602_1895" x1="3.4079" y1="25.5056" x2="37.7736" y2="25.5056" gradientUnits="userSpaceOnUse"><stop stop-color="#2A1B42"/><stop offset="1" stop-color="#4D3077"/></linearGradient><linearGradient id="paint1_linear_2602_1895" x1="3.62526" y1="19.1169" x2="37.7735" y2="19.1169" gradientUnits="userSpaceOnUse"><stop stop-color="#4D3077"/><stop offset="1" stop-color="#662D91"/></linearGradient><linearGradient id="paint2_linear_2602_1895" x1="20.5893" y1="23.9997" x2="41.1816" y2="23.9997" gradientUnits="userSpaceOnUse"><stop stop-color="#4D3077"/><stop offset="1" stop-color="#662D91"/></linearGradient><linearGradient id="paint3_linear_2602_1895" x1="-0.000172781" y1="24.0003" x2="20.5892" y2="24.0003" gradientUnits="userSpaceOnUse"><stop stop-color="#2A1B42"/><stop offset="1" stop-color="#4D3077"/></linearGradient></defs></svg>