<svg width="228" height="56" viewBox="0 0 228 56" fill="none" xmlns="http://www.w3.org/2000/svg"><path d="M227.011 19.0674H219.129L219.861 38.8851H226.279L227.011 19.0674ZM223.07 48.3435C225.139 48.3435 226.983 46.5982 227.011 44.4025C226.983 42.2631 225.139 40.5178 223.07 40.5178C220.889 40.5178 219.101 42.2631 219.129 44.4025C219.101 46.5982 220.889 48.3435 223.07 48.3435Z" fill="#02C076"/><path d="M84.2813 28.075H91.7693C91.7411 22.4168 87.3778 18.6729 80.3966 18.6729C73.5421 18.6729 68.7002 22.3605 68.7425 27.8498C68.7284 32.3538 71.853 34.8592 76.9623 35.957L79.8336 36.5763C83.0427 37.2801 84.1406 38.0824 84.1687 39.3913C84.1406 40.8129 82.8457 41.8122 80.3403 41.8122C77.3423 41.8122 75.5689 40.4047 75.4422 37.7586H68.8363C68.8644 44.9932 72.9368 48.2305 80.4529 48.2305C87.7579 48.2305 92.1352 45.0777 92.1634 39.3913C92.1352 34.9999 89.5172 31.9175 83.1553 30.5522L80.7907 30.0455C78.0601 29.4684 76.8356 28.6661 76.906 27.2868C76.9201 26.02 77.9757 25.0911 80.3966 25.0911C82.9301 25.0911 84.1265 26.203 84.2813 28.075Z" fill="#1B1A1C"/><path d="M97.9252 47.8927H106.314L109.354 36.2948H109.579L112.62 47.8927H121.008L126.413 26.2734H118.644L116.279 39.335H116.11L113.239 26.2734H105.695L102.936 39.4476H102.767L100.29 26.2734H92.5204L97.9252 47.8927Z" fill="#1B1A1C"/><path d="M132.82 48.2305C135.635 48.2305 137.76 47.2734 139.069 44.8525H139.238V47.8927H146.501V33.0857C146.501 29.0884 142.715 25.9919 136.536 25.9919C130.075 25.9919 126.894 29.3699 126.627 33.3109H133.777C133.96 31.9738 134.945 31.3404 136.423 31.3404C137.775 31.3404 138.732 31.9597 138.732 33.0857V33.142C138.732 34.3947 137.352 34.7888 133.721 35.0562C129.259 35.3799 125.783 37.1816 125.783 41.9248C125.783 46.2318 128.682 48.2305 132.82 48.2305ZM135.354 43.3324C134.031 43.3324 133.102 42.6849 133.102 41.4744C133.102 40.3625 133.89 39.5039 135.691 39.2224C136.93 39.0254 137.972 38.772 138.788 38.4342V40.2358C138.788 42.2063 137.113 43.3324 135.354 43.3324Z" fill="#1B1A1C"/><path d="M148.232 55.9999H156.001V44.3458H156.114C157.014 46.5415 159.098 48.1742 162.138 48.1742C166.754 48.1742 170.639 44.571 170.639 37.083C170.639 29.2573 166.473 25.9919 162.194 25.9919C158.985 25.9919 156.958 27.8498 156.114 30.0455H155.945V26.2734H148.232V55.9999ZM155.832 37.083C155.832 33.8739 157.127 31.9597 159.266 31.9597C161.406 31.9597 162.644 33.8739 162.644 37.083C162.644 40.2921 161.406 42.2063 159.266 42.2063C157.127 42.2063 155.832 40.2358 155.832 37.083Z" fill="#1B1A1C"/><path d="M185.931 38.4342C185.945 40.5736 184.706 41.8685 182.778 41.8685C180.822 41.8685 179.696 40.5736 179.682 38.4342V26.2734H171.912V40.0669C171.926 44.7962 174.91 48.1742 179.456 48.1742C182.68 48.1742 185.157 46.5415 186.1 43.7828H186.325V47.8927H193.7V26.2734H185.931V38.4342Z" fill="#1B1A1C"/><path d="M195.895 47.8927H214.869V41.9811H205.917V41.8685L214.531 31.0026V26.2734H196.233V32.1849H205.354V32.2975L195.895 43.6139V47.8927Z" fill="#1B1A1C"/><path fill-rule="evenodd" clip-rule="evenodd" d="M37.1507 0.362323C38.7815 -0.626074 40.8707 0.521586 40.9113 2.42811L41.1572 13.9837L53.1293 16.0476C55.0085 16.3715 55.8323 18.6083 54.6122 20.0738L46.6455 29.6421L52.6955 34.5031C54.1821 35.6975 53.8182 38.0533 52.0405 38.7435L41.1079 42.9881L42.448 49.7445C42.819 51.6151 41.026 53.1858 39.2206 52.5718L31.422 49.9199C22.5275 54.2394 11.8712 51.9998 5.44571 44.6711C14.9628 47.4187 22.5907 44.5466 26.2114 41.578C27.0931 40.8551 27.2218 39.5544 26.4989 38.6727C25.776 37.7911 24.4753 37.6624 23.5936 38.3853C20.5882 40.8495 12.3794 44.0887 1.75321 38.8054C-2.4648 28.9446 1.10711 17.2296 10.5435 11.5104C14.6957 8.99385 19.3517 8.02106 23.8427 8.428L37.1507 0.362323ZM19.4563 25.4197C17.5063 26.6016 14.9674 25.9789 13.7856 24.0289C12.6037 22.0789 13.2264 19.54 15.1765 18.3581C17.1265 17.1763 19.6654 17.799 20.8472 19.749C22.0291 21.699 21.4064 24.2379 19.4563 25.4197Z" fill="#02C076"/></svg>