<svg width="56" height="56" viewBox="0 0 56 56" fill="none" xmlns="http://www.w3.org/2000/svg">
<path d="M30.7422 51.3333V47.8333C32.1033 47.6 33.445 47.2208 34.7672 46.6958C36.0894 46.1708 37.3727 45.4417 38.6172 44.5083L41.1255 47.075C39.57 48.2417 37.9172 49.175 36.1672 49.875C34.4172 50.575 32.6089 51.0611 30.7422 51.3333ZM25.4922 51.3333C20.1644 50.5167 15.77 48.1444 12.3089 44.2167C8.84774 40.2889 7.11719 35.6028 7.11719 30.1583C7.11719 27.2417 7.66163 24.5097 8.75052 21.9625C9.83941 19.4153 11.3366 17.1889 13.2422 15.2833C15.1477 13.3778 17.3741 11.8806 19.9214 10.7917C22.4686 9.70277 25.2005 9.15833 28.1172 9.15833H29.2839L24.6755 4.55L27.2422 1.98333L36.1672 10.9083L27.2422 19.8333L24.6755 17.2667L29.2839 12.6583H28.1172C23.1783 12.6583 19.0269 14.3403 15.663 17.7042C12.2991 21.0681 10.6172 25.2194 10.6172 30.1583C10.6172 34.7083 12.0269 38.5875 14.8464 41.7958C17.6658 45.0042 21.2144 47.0167 25.4922 47.8333V51.3333ZM44.8005 43.4L42.2339 40.8333C43.1283 39.6667 43.838 38.4028 44.363 37.0417C44.888 35.6805 45.2477 34.2611 45.4422 32.7833H49.0005C48.7283 34.7667 48.2325 36.6625 47.513 38.4708C46.7936 40.2792 45.8894 41.9222 44.8005 43.4ZM49.0005 27.5333H45.4422C45.2477 26.1722 44.888 24.8111 44.363 23.45C43.838 22.0889 43.1283 20.7667 42.2339 19.4833L44.8005 16.975C45.9283 18.5306 46.8422 20.1931 47.5422 21.9625C48.2422 23.7319 48.7283 25.5889 49.0005 27.5333Z" fill="#29282A"/>
</svg>
