<svg width="146" height="36" viewBox="0 0 146 36" fill="none" xmlns="http://www.w3.org/2000/svg">
<path d="M145.934 12.2574H140.867L141.338 24.9973H145.464L145.934 12.2574ZM143.401 31.0777C144.731 31.0777 145.916 29.9557 145.934 28.5442C145.916 27.1689 144.731 26.0469 143.401 26.0469C141.998 26.0469 140.849 27.1689 140.867 28.5442C140.849 29.9557 141.998 31.0777 143.401 31.0777Z" fill="#02C076"/>
<path d="M54.1848 18.0483H58.9984C58.9803 14.4109 56.1754 12.004 51.6874 12.004C47.2809 12.004 44.1683 14.3747 44.1955 17.9035C44.1864 20.7989 46.1952 22.4095 49.4797 23.1153L51.3255 23.5134C53.3885 23.9658 54.0943 24.4816 54.1124 25.3231C54.0943 26.2369 53.2618 26.8793 51.6512 26.8793C49.724 26.8793 48.5839 25.9745 48.5025 24.2735H44.2558C44.2739 28.9243 46.8919 31.0054 51.7236 31.0054C56.4197 31.0054 59.2337 28.9785 59.2518 25.3231C59.2337 22.5 57.5507 20.5184 53.4609 19.6408L51.9408 19.315C50.1854 18.944 49.3982 18.4283 49.4435 17.5416C49.4525 16.7272 50.1311 16.13 51.6874 16.13C53.3161 16.13 54.0852 16.8448 54.1848 18.0483Z" fill="white"/>
<path d="M62.9558 30.7882H68.3486L70.303 23.3324H70.4478L72.4022 30.7882H77.7949L81.2695 16.8901H76.2748L74.7547 25.2869H74.6462L72.8003 16.8901H67.9504L66.177 25.3592H66.0684L64.4759 16.8901H59.4813L62.9558 30.7882Z" fill="white"/>
<path d="M85.3882 31.0054C87.1979 31.0054 88.5642 30.3901 89.4056 28.8338H89.5142V30.7882H94.1831V21.2694C94.1831 18.6997 91.7491 16.7091 87.777 16.7091C83.6238 16.7091 81.5789 18.8807 81.407 21.4142H86.0035C86.1211 20.5546 86.7545 20.1475 87.7046 20.1475C88.5732 20.1475 89.1885 20.5456 89.1885 21.2694V21.3056C89.1885 22.1109 88.3018 22.3643 85.9673 22.5362C83.099 22.7443 80.8641 23.9025 80.8641 26.9517C80.8641 29.7205 82.728 31.0054 85.3882 31.0054ZM87.0169 27.8566C86.1664 27.8566 85.5692 27.4403 85.5692 26.6622C85.5692 25.9474 86.0759 25.3954 87.2341 25.2145C88.0303 25.0878 88.6999 24.9249 89.2247 24.7078V25.8659C89.2247 27.1327 88.1479 27.8566 87.0169 27.8566Z" fill="white"/>
<path d="M95.2956 36H100.29V28.508H100.363C100.942 29.9196 102.281 30.9692 104.235 30.9692C107.203 30.9692 109.7 28.6528 109.7 23.8391C109.7 18.8083 107.022 16.7091 104.271 16.7091C102.208 16.7091 100.906 17.9035 100.363 19.315H100.254V16.8901H95.2956V36ZM100.182 23.8391C100.182 21.7761 101.014 20.5456 102.389 20.5456C103.765 20.5456 104.561 21.7761 104.561 23.8391C104.561 25.9021 103.765 27.1327 102.389 27.1327C101.014 27.1327 100.182 25.8659 100.182 23.8391Z" fill="white"/>
<path d="M119.531 24.7078C119.54 26.0831 118.744 26.9155 117.504 26.9155C116.246 26.9155 115.523 26.0831 115.513 24.7078V16.8901H110.519V25.7574C110.528 28.7976 112.446 30.9692 115.369 30.9692C117.441 30.9692 119.033 29.9196 119.639 28.1461H119.784V30.7882H124.526V16.8901H119.531V24.7078Z" fill="white"/>
<path d="M125.937 30.7882H138.134V26.9879H132.379V26.9155L137.916 19.9303V16.8901H126.154V20.6903H132.017V20.7627L125.937 28.0375V30.7882Z" fill="white"/>
<path fill-rule="evenodd" clip-rule="evenodd" d="M23.8826 0.232922C24.931 -0.402476 26.274 0.335305 26.3001 1.56093L26.4582 8.98953L34.1545 10.3163C35.3626 10.5245 35.8922 11.9625 35.1078 12.9046L29.9864 19.0556L33.8757 22.1806C34.8313 22.9484 34.5974 24.4628 33.4546 24.9065L26.4265 27.6352L27.288 31.9786C27.5265 33.1811 26.3739 34.1908 25.2132 33.7962L20.1998 32.0913C14.482 34.8681 7.63146 33.4284 3.50081 28.7171C9.61893 30.4834 14.5226 28.6371 16.8502 26.7287C17.417 26.264 17.4997 25.4278 17.035 24.861C16.5703 24.2943 15.7341 24.2115 15.1673 24.6762C13.2352 26.2604 7.95816 28.3428 1.12706 24.9463C-1.58451 18.6073 0.711714 11.0762 6.77798 7.39955C9.44726 5.78176 12.4404 5.15639 15.3274 5.418L23.8826 0.232922ZM12.5076 16.3413C11.2541 17.101 9.62192 16.7007 8.86216 15.4471C8.10239 14.1935 8.50271 12.5614 9.75629 11.8016C11.0099 11.0419 12.642 11.4422 13.4018 12.6958C14.1615 13.9494 13.7612 15.5815 12.5076 16.3413Z" fill="#02C076"/>
</svg>
