<svg width="200" height="52" viewBox="0 0 200 52" fill="none" xmlns="http://www.w3.org/2000/svg"><path d="M51.7507 12.7586C51.7507 5.73336 45.9739 0 38.8952 0C35.2338 0 31.8979 1.53422 29.6197 3.95679L0.572643 22.1257C0.00309574 22.4487 -0.159555 23.2563 0.165882 23.8215C0.409993 24.2253 0.816754 24.3868 1.22365 24.3868C1.46763 24.3868 1.63041 24.306 1.87452 24.2253L26.6906 8.64037C26.2024 9.93237 25.9583 11.3052 25.9583 12.8394C25.9583 16.0694 27.1787 18.9765 29.1315 21.2375L9.60408 40.5369C9.11585 41.0215 9.11585 41.7483 9.60408 42.2327C9.84819 42.4749 10.1736 42.5557 10.4991 42.5557C10.8246 42.5557 11.1501 42.4749 11.3942 42.2327L30.9216 22.9333C33.1183 24.629 35.8847 25.6788 38.8139 25.6788C40.5226 25.6788 42.1497 25.3558 43.6144 24.7905L28.0738 49.8233C27.7483 50.3885 27.9111 51.1153 28.4806 51.5191C28.6434 51.6805 28.8874 51.6805 29.1315 51.6805C29.5384 51.6805 29.9451 51.4383 30.1892 51.1153L48.903 20.8337C50.6931 18.5727 51.7507 15.8272 51.7507 12.7586ZM32.7115 21.1567L38.407 15.5849C38.8952 15.1004 38.8952 14.3736 38.407 13.8892C37.9188 13.4046 37.1866 13.4046 36.6984 13.8892L30.9216 19.5417C29.3756 17.7652 28.3993 15.4234 28.3993 12.8394C28.4806 7.10601 33.1183 2.42257 38.8952 2.42257C44.672 2.42257 49.3099 7.10601 49.3099 12.7586C49.3099 18.492 44.5907 23.0947 38.8952 23.0947C36.6171 23.1755 34.4202 22.368 32.7115 21.1567Z" fill="#25B7EB"/><path d="M38.8947 4.36084C34.1757 4.36084 30.3515 8.15606 30.3515 12.8396C30.3515 13.4856 30.9211 14.0509 31.5721 14.0509C32.223 14.0509 32.7925 13.4856 32.7925 12.8396C32.7925 9.52885 35.4775 6.78328 38.8947 6.78328C39.5458 6.78328 40.1153 6.21806 40.1153 5.57206C40.1153 4.92606 39.5458 4.36084 38.8947 4.36084Z" fill="#25B7EB"/><path d="M70.1755 37.6461C75.5085 37.6461 78.175 35.6246 78.175 31.5815C78.175 27.8273 75.9754 25.9502 71.5762 25.9502H68.9193C66.378 25.9502 65.1073 24.8432 65.1073 22.6291C65.1073 20.1263 66.9844 18.8749 70.7387 18.8749C73.1452 18.8749 75.3833 19.2599 77.453 20.03V17.5753C75.3833 16.9978 73.1452 16.709 70.7387 16.709C65.2036 16.709 62.436 18.6824 62.436 22.6291C62.436 26.3834 64.5971 28.2605 68.9193 28.2605H71.5762C74.1945 28.2605 75.5037 29.3675 75.5037 31.5815C75.5037 34.1806 73.7276 35.4802 70.1755 35.4802C67.6631 35.4802 65.3239 35.0951 63.158 34.325V36.7797C65.3239 37.3573 67.6631 37.6461 70.1755 37.6461ZM86.4632 37.5017L90.5928 26.1668L94.9391 37.5017H97.3793L101.336 22.3403H98.5056L96.0798 34.2239L91.8635 22.3403H89.4521L85.5102 34.2239L82.8244 22.3403H80.1243L83.9651 37.5017H86.4632ZM116.064 37.5017V27.0476C116.064 23.9094 113.811 22.3403 109.306 22.3403C107.747 22.3403 106.149 22.581 104.512 23.0623V25.2282C106.149 24.7469 107.747 24.5062 109.306 24.5062C112.03 24.5062 113.393 25.3774 113.393 27.1198V28.5493C112.074 28.3567 110.755 28.2605 109.436 28.2605C105.335 28.2605 103.285 29.8151 103.285 32.9244C103.285 35.9759 105.09 37.5017 108.7 37.5017C110.481 37.5017 112.127 37.0011 113.638 36L114.562 37.5017H116.064ZM108.7 35.3358C106.871 35.3358 105.956 34.5175 105.956 32.8811C105.956 31.2446 107.116 30.4264 109.436 30.4264C110.755 30.4264 112.074 30.5227 113.393 30.7152V33.863C112.112 34.8448 110.548 35.3358 108.7 35.3358ZM123.067 42.9886V36.7797C124.203 37.261 125.377 37.5017 126.59 37.5017C131.48 37.5017 133.925 34.8497 133.925 29.5456C133.925 24.7421 131.495 22.3403 126.634 22.3403C124.487 22.3403 122.408 22.5473 120.396 22.9612V42.9886H123.067ZM126.576 35.1914C125.286 35.1914 124.116 34.9315 123.067 34.4117V24.9105C124.078 24.6795 125.257 24.564 126.605 24.564C129.733 24.564 131.297 26.2149 131.297 29.5167C131.297 33.2998 129.724 35.1914 126.576 35.1914ZM148.654 37.5017V35.4802H139.889L148.942 24.5062V22.3403H137.102V24.5062H145.982L136.813 35.4802V37.5017H148.654ZM159.05 37.4872C163.863 37.4872 166.27 34.9652 166.27 29.921C166.27 24.8672 163.863 22.3403 159.05 22.3403C154.237 22.3403 151.83 24.8672 151.83 29.921C151.849 34.9652 154.256 37.4872 159.05 37.4872ZM159.05 35.3358C156.018 35.3358 154.502 33.5116 154.502 29.8633C154.502 26.2919 156.018 24.5062 159.05 24.5062C162.082 24.5062 163.598 26.2919 163.598 29.8633C163.598 33.5116 162.082 35.3358 159.05 35.3358ZM172.551 37.5017V26.4844C173.927 25.2042 175.381 24.564 176.911 24.564C179.154 24.564 180.276 25.6903 180.276 27.9428V37.5017H182.947V27.9861C182.947 24.2223 181.056 22.3403 177.272 22.3403C175.415 22.3403 173.711 22.9853 172.161 24.2752L171.684 22.3403H169.879V37.5017H172.551ZM194.369 37.5017C196.284 37.5017 197.911 37.3092 199.249 36.9241V34.7582C197.911 35.1433 196.381 35.3358 194.657 35.3358C191.038 35.3358 189.228 33.786 189.228 30.6863H199.87C199.957 29.9932 200 29.3434 200 28.737C200 24.4726 197.844 22.3403 193.531 22.3403C188.882 22.3403 186.557 24.8095 186.557 29.7477C186.557 34.917 189.161 37.5017 194.369 37.5017ZM197.43 28.4626H189.228C189.401 25.8058 190.836 24.4774 193.531 24.4774C196.072 24.4774 197.372 25.8058 197.43 28.4626Z" fill="white" fill-opacity="0.64"/><path d="M70.1755 37.6461C75.5085 37.6461 78.175 35.6246 78.175 31.5815C78.175 27.8273 75.9754 25.9502 71.5762 25.9502H68.9193C66.378 25.9502 65.1073 24.8432 65.1073 22.6291C65.1073 20.1263 66.9844 18.8749 70.7387 18.8749C73.1452 18.8749 75.3833 19.2599 77.453 20.03V17.5753C75.3833 16.9978 73.1452 16.709 70.7387 16.709C65.2036 16.709 62.436 18.6824 62.436 22.6291C62.436 26.3834 64.5971 28.2605 68.9193 28.2605H71.5762C74.1945 28.2605 75.5037 29.3675 75.5037 31.5815C75.5037 34.1806 73.7276 35.4802 70.1755 35.4802C67.6631 35.4802 65.3239 35.0951 63.158 34.325V36.7797C65.3239 37.3573 67.6631 37.6461 70.1755 37.6461ZM86.4632 37.5017L90.5928 26.1668L94.9391 37.5017H97.3793L101.336 22.3403H98.5056L96.0798 34.2239L91.8635 22.3403H89.4521L85.5102 34.2239L82.8244 22.3403H80.1243L83.9651 37.5017H86.4632ZM116.064 37.5017V27.0476C116.064 23.9094 113.811 22.3403 109.306 22.3403C107.747 22.3403 106.149 22.581 104.512 23.0623V25.2282C106.149 24.7469 107.747 24.5062 109.306 24.5062C112.03 24.5062 113.393 25.3774 113.393 27.1198V28.5493C112.074 28.3567 110.755 28.2605 109.436 28.2605C105.335 28.2605 103.285 29.8151 103.285 32.9244C103.285 35.9759 105.09 37.5017 108.7 37.5017C110.481 37.5017 112.127 37.0011 113.638 36L114.562 37.5017H116.064ZM108.7 35.3358C106.871 35.3358 105.956 34.5175 105.956 32.8811C105.956 31.2446 107.116 30.4264 109.436 30.4264C110.755 30.4264 112.074 30.5227 113.393 30.7152V33.863C112.112 34.8448 110.548 35.3358 108.7 35.3358ZM123.067 42.9886V36.7797C124.203 37.261 125.377 37.5017 126.59 37.5017C131.48 37.5017 133.925 34.8497 133.925 29.5456C133.925 24.7421 131.495 22.3403 126.634 22.3403C124.487 22.3403 122.408 22.5473 120.396 22.9612V42.9886H123.067ZM126.576 35.1914C125.286 35.1914 124.116 34.9315 123.067 34.4117V24.9105C124.078 24.6795 125.257 24.564 126.605 24.564C129.733 24.564 131.297 26.2149 131.297 29.5167C131.297 33.2998 129.724 35.1914 126.576 35.1914ZM148.654 37.5017V35.4802H139.889L148.942 24.5062V22.3403H137.102V24.5062H145.982L136.813 35.4802V37.5017H148.654ZM159.05 37.4872C163.863 37.4872 166.27 34.9652 166.27 29.921C166.27 24.8672 163.863 22.3403 159.05 22.3403C154.237 22.3403 151.83 24.8672 151.83 29.921C151.849 34.9652 154.256 37.4872 159.05 37.4872ZM159.05 35.3358C156.018 35.3358 154.502 33.5116 154.502 29.8633C154.502 26.2919 156.018 24.5062 159.05 24.5062C162.082 24.5062 163.598 26.2919 163.598 29.8633C163.598 33.5116 162.082 35.3358 159.05 35.3358ZM172.551 37.5017V26.4844C173.927 25.2042 175.381 24.564 176.911 24.564C179.154 24.564 180.276 25.6903 180.276 27.9428V37.5017H182.947V27.9861C182.947 24.2223 181.056 22.3403 177.272 22.3403C175.415 22.3403 173.711 22.9853 172.161 24.2752L171.684 22.3403H169.879V37.5017H172.551ZM194.369 37.5017C196.284 37.5017 197.911 37.3092 199.249 36.9241V34.7582C197.911 35.1433 196.381 35.3358 194.657 35.3358C191.038 35.3358 189.228 33.786 189.228 30.6863H199.87C199.957 29.9932 200 29.3434 200 28.737C200 24.4726 197.844 22.3403 193.531 22.3403C188.882 22.3403 186.557 24.8095 186.557 29.7477C186.557 34.917 189.161 37.5017 194.369 37.5017ZM197.43 28.4626H189.228C189.401 25.8058 190.836 24.4774 193.531 24.4774C196.072 24.4774 197.372 25.8058 197.43 28.4626Z" fill="#E8168D"/></svg>