<svg width="48" height="48" viewBox="0 0 48 48" fill="none" xmlns="http://www.w3.org/2000/svg">
<g id="switch_account_FILL0_wght400_GRAD0_opsz48 1">
<path id="Vector" d="M21 24C19.3667 24 17.975 23.425 16.825 22.275C15.675 21.125 15.1 19.7333 15.1 18.1C15.1 16.4667 15.675 15.075 16.825 13.925C17.975 12.775 19.3667 12.2 21 12.2C22.6333 12.2 24.025 12.775 25.175 13.925C26.325 15.075 26.9 16.4667 26.9 18.1C26.9 19.7333 26.325 21.125 25.175 22.275C24.025 23.425 22.6333 24 21 24ZM35 35.05C33.3 32.8833 31.2333 31.1667 28.8 29.9C26.3667 28.6333 23.7667 28 21 28C18.2333 28 15.6333 28.6333 13.2 29.9C10.7667 31.1667 8.7 32.8833 7 35.05V7H35V35.05ZM35 38C35.8333 38 36.5417 37.7083 37.125 37.125C37.7083 36.5417 38 35.8333 38 35V7C38 6.16667 37.7083 5.45833 37.125 4.875C36.5417 4.29167 35.8333 4 35 4H7C6.16667 4 5.45833 4.29167 4.875 4.875C4.29167 5.45833 4 6.16667 4 7V35C4 35.8333 4.29167 36.5417 4.875 37.125C5.45833 37.7083 6.16667 38 7 38H35ZM41 44C41.8333 44 42.5417 43.7083 43.125 43.125C43.7083 42.5417 44 41.8333 44 41V12.5H41V41H12.5V44H41ZM21 21C21.8 21 22.4833 20.7167 23.05 20.15C23.6167 19.5833 23.9 18.9 23.9 18.1C23.9 17.3 23.6167 16.6167 23.05 16.05C22.4833 15.4833 21.8 15.2 21 15.2C20.2 15.2 19.5167 15.4833 18.95 16.05C18.3833 16.6167 18.1 17.3 18.1 18.1C18.1 18.9 18.3833 19.5833 18.95 20.15C19.5167 20.7167 20.2 21 21 21ZM30.35 35H11.65C12.85 33.7 14.2583 32.7083 15.875 32.025C17.4917 31.3417 19.2 31 21 31C22.8 31 24.5083 31.3417 26.125 32.025C27.7417 32.7083 29.15 33.7 30.35 35Z" fill="#02C076"/>
</g>
</svg>
