<svg width="33" height="32" viewBox="0 0 33 32" fill="none" xmlns="http://www.w3.org/2000/svg"><g clip-path="url(#clip0_286_1401)"><path d="M30.131 1.33595C29.7358 1.3647 29.3479 1.45742 28.9824 1.61048H28.9775C28.6266 1.74958 26.9585 2.45128 24.4226 3.51491L15.335 7.34225C8.81407 10.0875 2.40398 12.7909 2.40398 12.7909L2.48031 12.7613C2.48031 12.7613 2.03836 12.9066 1.57672 13.223C1.29152 13.4045 1.0461 13.6419 0.855319 13.921C0.628805 14.2534 0.44661 14.7618 0.514318 15.2875C0.625112 16.1763 1.20124 16.7093 1.61488 17.0035C2.03344 17.3015 2.4323 17.4406 2.4323 17.4406H2.44215L8.45337 19.4657C8.72297 20.3311 10.2852 25.467 10.6606 26.6501C10.8822 27.3567 11.0977 27.7986 11.3673 28.136C11.4978 28.3083 11.6504 28.4523 11.8338 28.5681C11.9292 28.6235 12.0309 28.6673 12.1367 28.6985L12.0751 28.6838C12.0936 28.6887 12.1084 28.7035 12.1219 28.7084C12.1711 28.7219 12.2044 28.7269 12.2672 28.7367C13.2188 29.0248 13.9833 28.4339 13.9833 28.4339L14.0263 28.3994L17.5755 25.1679L23.5239 29.7314L23.6593 29.7893C24.899 30.3334 26.1547 30.0305 26.8182 29.4963C27.4867 28.9583 27.7464 28.2701 27.7464 28.2701L27.7895 28.1593L32.3863 4.61055C32.5167 4.02949 32.55 3.48537 32.406 2.95725C32.2574 2.42275 31.9145 1.96306 31.4445 1.66833C31.0499 1.42842 30.5922 1.31262 30.131 1.33595ZM30.0066 3.85961C30.0017 3.93716 30.0165 3.92855 29.982 4.0775V4.09105L25.4283 27.3949C25.4087 27.4281 25.3754 27.5007 25.2843 27.5734C25.1883 27.6497 25.112 27.6977 24.7119 27.5389L17.4364 21.961L13.0415 25.9668L13.9648 20.0701L25.8518 8.99063C26.3418 8.53514 26.1781 8.43912 26.1781 8.43912C26.2125 7.88022 25.4382 8.27539 25.4382 8.27539L10.4489 17.5612L10.444 17.5366L3.25956 15.1176V15.1127L3.2411 15.109C3.25369 15.1048 3.26602 15.0998 3.27803 15.0942L3.31742 15.0745L3.35559 15.0609C3.35559 15.0609 9.7706 12.3576 16.2915 9.61231C19.5562 8.23723 22.8456 6.85229 25.3754 5.78374C27.9052 4.72134 29.7752 3.94209 29.8811 3.90023C29.982 3.86084 29.934 3.86084 30.0066 3.86084V3.85961Z" fill="#02C076"/></g><defs><clipPath id="clip0_286_1401"><rect width="32" height="32" fill="white" transform="translate(0.5)"/></clipPath></defs></svg>