<svg width="40" height="40" viewBox="0 0 40 40" fill="none" xmlns="http://www.w3.org/2000/svg">
<rect x="39" y="39" width="38" height="38" rx="7" transform="rotate(-180 39 39)" fill="#02C076" stroke="#02C076" stroke-width="2"/>
<g clip-path="url(#clip0_662_1567)">
<path d="M16.2508 28.1292C23.7984 28.1292 27.9258 21.8762 27.9258 16.4542C27.9258 16.2766 27.9221 16.0997 27.9142 15.9238C28.7153 15.3446 29.4117 14.6217 29.961 13.799C29.2258 14.1258 28.4345 14.3457 27.6046 14.445C28.4517 13.9369 29.1022 13.1334 29.4089 12.1754C28.6161 12.6454 27.7381 12.9869 26.8033 13.1714C26.0546 12.3738 24.9884 11.875 23.808 11.875C21.5421 11.875 19.7045 13.7126 19.7045 15.9778C19.7045 16.2999 19.7405 16.613 19.8108 16.9135C16.4005 16.7418 13.3763 15.1091 11.3527 12.6262C11.0004 13.2326 10.7971 13.9371 10.7971 14.6887C10.7971 16.1122 11.5216 17.3691 12.6231 18.1043C11.9499 18.0835 11.3176 17.8987 10.7648 17.5911C10.7642 17.6083 10.7642 17.6251 10.7642 17.6434C10.7642 19.6308 12.1785 21.29 14.0563 21.666C13.7114 21.7598 13.3485 21.8103 12.9742 21.8103C12.7103 21.8103 12.453 21.7844 12.2029 21.7363C12.7254 23.3667 14.2403 24.5531 16.0362 24.5864C14.6318 25.6871 12.8626 26.3428 10.9398 26.3428C10.609 26.3428 10.2821 26.3239 9.96094 26.286C11.7769 27.45 13.9334 28.1293 16.2509 28.1293" fill="#29282A"/>
</g>
<defs>
<clipPath id="clip0_662_1567">
<rect width="20" height="20" fill="white" transform="translate(10 10)"/>
</clipPath>
</defs>
</svg>
