<svg width="143" height="40" viewBox="0 0 143 40" fill="none" xmlns="http://www.w3.org/2000/svg"><path d="M4.00752 30C4.3553 29.1967 4.69818 28.3836 5.03616 27.5754C5.23699 27.1002 5.44271 26.6202 5.64354 26.1549C5.68762 26.0569 5.68762 25.9443 5.64354 25.8463C4.11039 22.2608 2.58703 18.6753 1.07347 15.0848C1.04408 15.0261 1.01959 14.9673 1 14.9036C1.05388 14.8889 1.10776 14.8889 1.15674 14.9036H5.05575C5.16351 14.8938 5.26148 14.9624 5.29087 15.0701L7.68611 21.1881C7.68611 21.2321 7.68611 21.286 7.75468 21.3595L7.82326 21.2174C8.63637 19.17 9.44458 17.1225 10.2479 15.075C10.3018 14.9477 10.3508 14.9036 10.4879 14.9036H14.4408L14.1224 15.6579L8.22981 29.8335C8.19553 29.8824 8.18083 29.9412 8.17593 30H4.00752Z" fill="#7E1FFF"/><path d="M30.7823 15.9582C30.9488 15.7672 31.1251 15.5859 31.3162 15.4145C32.0999 14.812 33.0942 14.5377 34.0788 14.6602C34.9948 14.7043 35.8519 15.1157 36.4544 15.8064C36.9492 16.3991 37.2724 17.1191 37.3851 17.8832C37.4537 18.3045 37.4831 18.7306 37.4733 19.1568V25.7498C37.4733 25.9017 37.4292 25.931 37.2871 25.931H33.7261C33.589 25.931 33.5596 25.8919 33.5596 25.7645V19.965C33.5694 19.6809 33.5351 19.3968 33.4518 19.1225C33.3342 18.6278 32.913 18.2702 32.4036 18.2261C31.8942 18.1428 31.3847 18.3681 31.1006 18.7992C30.9243 19.0735 30.8214 19.387 30.8019 19.7103V25.74C30.8019 25.8821 30.8019 25.9212 30.6157 25.9212H27.0547C26.9322 25.9212 26.8979 25.9212 26.8979 25.7645V10.1587C26.8979 10.0362 26.8979 10.0068 27.0498 10.0068H30.6255C30.7529 10.0068 30.7921 10.0068 30.7921 10.1636V15.7574L30.7774 15.9582H30.7823Z" fill="#7E1FFF"/><path d="M25.6035 15.0558C25.6035 14.9578 25.6035 14.8843 25.4663 14.8892H21.9592C21.8514 14.8892 21.822 14.8892 21.822 15.0264V15.864C21.7094 15.7562 21.6016 15.6632 21.4889 15.5701C20.573 14.7913 19.3582 14.468 18.1777 14.6835C16.8209 14.85 15.6012 15.5799 14.8077 16.6918C13.7252 18.1319 13.3285 19.9785 13.7252 21.7419C13.9652 23.2163 14.8028 24.529 16.0421 25.3617C17.3254 26.2581 18.9663 26.4589 20.4309 25.9054C20.9795 25.7144 21.4596 25.3617 21.8073 24.8964V25.7535C21.8073 25.876 21.8073 25.9201 21.9641 25.9201H25.4418C25.5692 25.9201 25.5839 25.8809 25.5839 25.7633V24.4408L25.5986 15.0656L25.6035 15.0558ZM19.6423 22.6725C18.3933 22.6725 17.3842 21.6635 17.3842 20.4145C17.3842 19.1654 18.3933 18.1564 19.6423 18.1564C20.8914 18.1564 21.9004 19.1654 21.9004 20.4145C21.9004 21.6635 20.8914 22.6725 19.6423 22.6725Z" fill="#7E1FFF"/><path d="M50.0361 19.5533C49.8352 17.7949 48.7919 16.247 47.2392 15.3996C46.0489 14.7237 44.6627 14.4739 43.3108 14.6943C41.7286 14.8706 40.2983 15.7131 39.3775 17.0063C38.5546 18.1475 38.1823 19.5533 38.3292 20.9493C38.4125 22.1984 38.917 23.3789 39.7595 24.3046C40.8959 25.5439 42.5123 26.2297 44.1924 26.1856H44.6382C44.7802 26.1856 44.986 26.1856 45.1574 26.1317C48.2825 25.7202 50.4769 22.8548 50.0654 19.7297C50.0556 19.6709 50.0508 19.6121 50.041 19.5533H50.0361ZM44.1826 22.6294C42.9336 22.6294 41.9246 21.6204 41.9246 20.3714C41.9246 19.1223 42.9336 18.1133 44.1826 18.1133C45.4317 18.1133 46.4407 19.1223 46.4407 20.3714C46.4897 21.5714 45.5542 22.5805 44.3541 22.6294C44.3002 22.6294 44.2414 22.6294 44.1875 22.6294H44.1826Z" fill="#7E1FFF"/><path d="M62.5365 19.7295C62.419 18.3727 61.792 17.1089 60.783 16.193C59.4164 14.9145 57.5256 14.3561 55.679 14.6892C52.8037 15.0713 50.6828 17.5645 50.7562 20.4593V21.1451C50.9326 22.9281 51.971 24.5102 53.5336 25.3821C54.7483 26.0972 56.1688 26.3617 57.5599 26.1364C59.098 25.9503 60.4891 25.1323 61.3952 23.8783C62.2965 22.693 62.7031 21.2088 62.5316 19.7344L62.5365 19.7295ZM56.6831 22.6342C55.439 22.6587 54.4054 21.6692 54.381 20.4202C54.3565 19.176 55.3459 18.1425 56.595 18.118C57.844 18.0935 58.8726 19.0829 58.8971 20.332C58.8971 20.3663 58.8971 20.3957 58.8971 20.43C58.9118 21.63 57.9518 22.6195 56.7517 22.6342C56.7272 22.6342 56.7076 22.6342 56.6831 22.6342Z" fill="#7E1FFF"/><path d="M64.4712 19.9875L64.961 18.7973L68.5514 10.142C68.5514 10.0588 68.6102 10 68.7327 10H73.2489C73.0627 10.4506 72.8815 10.9013 72.6905 11.347C71.5149 14.1733 70.3442 16.9996 69.1784 19.8259C69.1539 19.9288 69.0511 19.9973 68.9433 19.9826H64.4712V19.9875Z" fill="#7E1FFF"/><path d="M65.5939 26.1111C64.2077 26.1258 63.0713 25.009 63.0566 23.6228C63.0566 23.5983 63.0566 23.5787 63.0566 23.5542C63.0664 22.1141 64.2469 20.9532 65.6919 20.963C65.7017 20.963 65.7066 20.963 65.7164 20.963C67.0977 20.9483 68.2292 22.0504 68.2439 23.4318C68.2439 23.4562 68.2439 23.4807 68.2439 23.5052C68.2439 24.9453 67.0781 26.1111 65.6429 26.1111C65.6282 26.1111 65.6135 26.1111 65.5988 26.1111H65.5939Z" fill="#7E1FFF"/><path d="M106.683 15.8458V14.9543H110.366V24.9173H106.687V24.0993C106.394 24.3198 106.144 24.5206 105.874 24.6969C105.194 25.1476 104.424 25.1672 103.636 25.1623C102.793 25.1623 102.049 24.9222 101.363 24.4569C100.232 23.6879 99.5899 22.6103 99.3058 21.2779C99.0511 20.0828 99.105 18.917 99.5311 17.7855C100.178 16.0711 101.397 14.9445 103.224 14.6751C104.478 14.489 105.698 14.729 106.673 15.8458H106.683ZM104.821 18.0108C103.729 17.9814 102.813 18.8533 102.837 19.926C102.862 21.0134 103.611 21.8755 104.821 21.851C106.051 21.8266 106.751 21.0722 106.79 19.9456C106.825 18.9513 106.07 17.9912 104.821 18.0059V18.0108Z" fill="white"/><path d="M92.1735 24.9212H88.4116V14.9582H92.1686V15.786C92.4037 15.59 92.5996 15.4333 92.7956 15.2716C93.9711 14.3116 96.0627 14.4242 97.204 15.5117C97.8212 16.0946 98.213 16.8734 98.2375 17.7159C98.3061 20.067 98.3012 22.4231 98.3257 24.7742C98.3257 24.8183 98.3159 24.8624 98.3061 24.9261H94.5393V24.5489C94.5393 22.8101 94.5393 21.0712 94.5393 19.3323C94.5393 18.9159 94.3973 18.5486 94.074 18.289C93.5058 17.8285 92.4821 18.0294 92.2616 18.9698C92.2127 19.1853 92.1882 19.4107 92.1882 19.6311C92.1833 21.2622 92.1882 22.8933 92.1882 24.5244V24.9261L92.1735 24.9212Z" fill="white"/><path d="M115.536 14.9559V15.7788C115.796 15.5584 116.011 15.3526 116.256 15.1812C117.598 14.2309 120.013 14.4514 121.047 16.1217C121.395 16.685 121.6 17.307 121.61 17.9732C121.644 20.148 121.664 22.3228 121.684 24.4977C121.684 24.625 121.684 24.7573 121.684 24.914H117.897V24.532C117.897 22.8519 117.902 21.1718 117.897 19.4966C117.897 19.0606 117.814 18.6394 117.461 18.3161C116.971 17.8605 115.962 18.0418 115.722 18.6639C115.615 18.9382 115.551 19.2516 115.551 19.5455C115.536 21.2011 115.541 22.8568 115.541 24.5124V24.9189H111.77V14.9559H115.536Z" fill="white"/><path d="M141.407 20.8661H134.593C134.52 21.3314 134.882 21.88 135.367 22.0809C136.249 22.4482 137.028 22.3405 137.699 21.6253C137.777 21.5421 137.978 21.4882 138.081 21.5274C138.962 21.8555 139.829 22.2278 140.716 22.5462C141.054 22.6687 141.01 22.8107 140.858 23.0262C140.182 23.9814 139.3 24.6867 138.149 24.9463C136.552 25.3088 134.96 25.3578 133.442 24.5888C132.051 23.8834 131.277 22.7274 130.973 21.2188C130.768 20.1999 130.787 19.1909 131.12 18.2064C131.728 16.4038 132.977 15.2625 134.809 14.8021C136.459 14.3906 138.041 14.6453 139.418 15.6642C140.358 16.3597 140.985 17.3247 141.181 18.4953C141.309 19.2595 141.328 20.0383 141.402 20.8661H141.407ZM134.564 18.706H137.679C137.674 18.1084 137.062 17.5549 136.371 17.5108C135.392 17.4422 134.716 17.8782 134.564 18.706Z" fill="white"/><path d="M79.7513 24.9183H75.9601V17.9481H74.6865V14.9406H75.916C75.9993 14.3332 76.0335 13.7356 76.1756 13.1625C76.5821 11.5363 77.6206 10.5517 79.2762 10.204C80.2313 10.0031 81.162 10.0031 82.0731 10.3558C82.1662 10.395 82.2984 10.5125 82.2984 10.5909C82.3131 11.551 82.3082 12.5159 82.3082 13.5054C82.0388 13.4466 81.7988 13.4074 81.5686 13.3437C80.4763 13.0596 79.5848 13.7748 79.7562 14.9161H82.1417V17.9187H79.7464V24.9134L79.7513 24.9183Z" fill="white"/><path d="M130.329 18.5979C130.021 18.4509 129.766 18.3089 129.496 18.2109C128.654 17.9072 127.836 17.9023 127.057 18.4313C126.254 18.9799 126.058 20.2584 126.651 21.0225C127.14 21.6544 127.787 21.816 128.546 21.8111C129.198 21.8111 129.732 21.5319 130.324 21.1989V22.154C130.324 22.8937 130.319 23.6284 130.329 24.368C130.329 24.5591 130.275 24.657 130.094 24.7354C129.531 24.9803 128.963 25.1566 128.34 25.1615C127.351 25.1713 126.367 25.1762 125.441 24.7305C123.991 24.03 123.031 22.9377 122.673 21.3458C122.443 20.3172 122.443 19.2983 122.742 18.2844C123.104 17.0304 123.844 16.0802 124.956 15.4091C126.078 14.7381 127.312 14.547 128.585 14.6695C129.11 14.7185 129.619 14.934 130.128 15.0956C130.217 15.125 130.319 15.272 130.319 15.3699C130.334 16.428 130.329 17.486 130.329 18.6028V18.5979Z" fill="white"/><path d="M87.0106 14.9551V24.9132H83.3369V14.9551H87.0106Z" fill="white"/><path d="M87.2419 12.072C87.2517 13.326 86.2133 14.1587 85.121 14.1244C83.916 14.0852 83.0637 13.3309 83.049 12.0671C83.0343 10.9503 83.8915 10.0099 85.1553 10.0001C86.3308 9.99028 87.2762 10.9454 87.2419 12.072Z" fill="white"/></svg>