<svg width="40" height="40" viewBox="0 0 40 40" fill="none" xmlns="http://www.w3.org/2000/svg">
<rect x="39" y="39" width="38" height="38" rx="7" transform="rotate(-180 39 39)" fill="#02C076" stroke="#02C076" stroke-width="2"/>
<path d="M29.0824 15.3084C28.8643 14.4872 28.2217 13.8405 27.4058 13.621C25.927 13.2222 19.9971 13.2222 19.9971 13.2222C19.9971 13.2222 14.0673 13.2222 12.5884 13.621C11.7725 13.8405 11.13 14.4872 10.9119 15.3084C10.5156 16.7968 10.5156 19.9023 10.5156 19.9023C10.5156 19.9023 10.5156 23.0078 10.9119 24.4962C11.13 25.3174 11.7725 25.9372 12.5884 26.1567C14.0673 26.5555 19.9971 26.5555 19.9971 26.5555C19.9971 26.5555 25.927 26.5555 27.4058 26.1567C28.2217 25.9372 28.8643 25.3174 29.0824 24.4962C29.4786 23.0078 29.4786 19.9023 29.4786 19.9023C29.4786 19.9023 29.4786 16.7968 29.0824 15.3084ZM18.0577 22.7219V17.0828L23.0139 19.9024L18.0577 22.7219Z" fill="#29282A"/>
</svg>
