<svg width="122" height="33" viewBox="0 0 122 33" fill="none" xmlns="http://www.w3.org/2000/svg">
<path opacity="0.12" d="M1 31V4.46062C1 2.9218 2.66516 1.95945 3.99849 2.7277L5.45605 3.56754C6.07409 3.92364 6.835 3.92364 7.45304 3.56754L10.9106 1.57532C11.5286 1.21922 12.2895 1.21922 12.9076 1.57532L17.0926 3.98671C17.2722 4.09018 17.4346 4.22093 17.574 4.37428L21.3383 8.51499C22.1318 9.38786 23.5045 9.38786 24.2981 8.51499L26.5584 6.02867C27.4309 5.06891 28.9721 5.18076 29.6969 6.25644L32.6582 10.6515C33.2562 11.5389 34.4467 11.7985 35.3597 11.2405L37.9036 9.6859C38.6613 9.22288 39.6335 9.31485 40.2909 9.91174L42.7774 12.1693C43.7289 13.0332 45.2365 12.7884 45.8657 11.6678L48.4875 6.99852C49.22 5.69399 51.073 5.62613 51.899 6.87358L55.139 11.7671C55.4014 12.1633 55.7963 12.4532 56.2529 12.5848L60.1674 13.7125C60.6986 13.8656 61.1428 14.2316 61.3945 14.7238L64.9104 21.5994C65.6039 22.9556 67.4985 23.0697 68.3497 21.8064L70.9778 17.906C71.5173 17.1053 72.5517 16.8043 73.4365 17.1906L77.2263 18.8448C77.3177 18.8847 77.4061 18.9314 77.4905 18.9845L81.3891 21.4351C82.2145 21.9539 83.2937 21.802 83.9438 21.0755L87.4609 17.1453C87.9596 16.588 88.7274 16.3555 89.4514 16.5425L93.338 17.5463C93.5949 17.6127 93.8361 17.7296 94.0475 17.8901L99.1818 21.7898L103.427 25.0138C104.142 25.5569 105.131 25.5569 105.846 25.0138L109.555 22.1971C109.903 21.9328 110.327 21.7898 110.764 21.7898H114.872C115.309 21.7898 115.734 21.9328 116.082 22.1971L120.21 25.3324C120.708 25.7105 121 26.2998 121 26.925V31C121 32.1046 120.105 33 119 33H3C1.89543 33 1 32.1046 1 31Z" fill="url(#paint0_linear_662_1097)"/>
<path d="M1 7.33333L2.06307 4.43404C2.47379 3.3139 3.76759 2.80018 4.83483 3.33348L5.49322 3.66248C6.09352 3.96245 6.80425 3.94136 7.38571 3.60633L10.9106 1.57532C11.5286 1.21921 12.2895 1.21922 12.9076 1.57532L17.0926 3.98671C17.2722 4.09018 17.4346 4.22093 17.574 4.37428L21.3383 8.51499C22.1318 9.38786 23.5045 9.38786 24.2981 8.51499L26.5584 6.02867C27.4309 5.06891 28.9721 5.18076 29.6969 6.25644L32.6582 10.6515C33.2562 11.5389 34.4467 11.7985 35.3597 11.2405L37.9036 9.6859C38.6613 9.22288 39.6335 9.31485 40.2909 9.91174L42.7774 12.1693C43.7289 13.0332 45.2365 12.7884 45.8657 11.6678L48.4875 6.99852C49.22 5.69399 51.073 5.62613 51.899 6.87358L55.139 11.7671C55.4014 12.1633 55.7963 12.4532 56.2529 12.5848L60.1675 13.7125C60.6986 13.8656 61.1428 14.2316 61.3945 14.7238L64.9104 21.5994C65.6039 22.9556 67.4985 23.0696 68.3497 21.8064L70.9778 17.906C71.5173 17.1053 72.5517 16.8043 73.4365 17.1906L77.2263 18.8448C77.3177 18.8847 77.4061 18.9314 77.4905 18.9845L81.3891 21.435C82.2145 21.9539 83.2937 21.802 83.9438 21.0755L87.4609 17.1453C87.9596 16.588 88.7274 16.3555 89.4514 16.5425L93.338 17.5463C93.5949 17.6127 93.8361 17.7296 94.0475 17.8901L99.1818 21.7898L103.427 25.0138C104.142 25.5569 105.131 25.5569 105.846 25.0138L109.555 22.1971C109.903 21.9328 110.327 21.7898 110.764 21.7898H114.872C115.309 21.7898 115.734 21.9328 116.082 22.1971L121 25.9326" stroke="#52372E" stroke-width="2"/>
<defs>
<linearGradient id="paint0_linear_662_1097" x1="61" y1="1" x2="61" y2="33" gradientUnits="userSpaceOnUse">
<stop stop-color="#FF783E"/>
<stop offset="1" stop-color="#FF783E" stop-opacity="0"/>
</linearGradient>
</defs>
</svg>
