<svg width="122" height="33" viewBox="0 0 122 33" fill="none" xmlns="http://www.w3.org/2000/svg">
<path opacity="0.12" d="M121 31V4.46062C121 2.9218 119.335 1.95945 118.002 2.7277L116.544 3.56754C115.926 3.92364 115.165 3.92364 114.547 3.56754L111.089 1.57532C110.471 1.21922 109.71 1.21922 109.092 1.57532L104.907 3.98671C104.728 4.09018 104.565 4.22093 104.426 4.37428L100.662 8.51499C99.8682 9.38786 98.4955 9.38786 97.7019 8.51499L95.4416 6.02867C94.5691 5.06891 93.0279 5.18076 92.3031 6.25644L89.3418 10.6515C88.7438 11.5389 87.5533 11.7985 86.6403 11.2405L84.0964 9.6859C83.3387 9.22288 82.3665 9.31485 81.7091 9.91174L79.2226 12.1693C78.2711 13.0332 76.7635 12.7884 76.1343 11.6678L73.5125 6.99852C72.78 5.69399 70.927 5.62613 70.101 6.87358L66.861 11.7671C66.5986 12.1633 66.2037 12.4532 65.7471 12.5848L61.8326 13.7125C61.3014 13.8656 60.8572 14.2316 60.6055 14.7238L55.9103 23.9056C55.6761 24.3635 55.2745 24.7137 54.789 24.8832L51.5047 26.0301C50.6666 26.3228 49.7359 26.028 49.2192 25.3061L45.7326 20.436C45.1168 19.5758 43.9376 19.344 43.042 19.9069L39.1818 22.3333L34.348 25.7937C33.9482 26.0799 33.4571 26.2088 32.9683 26.1558L28.7884 25.7028C28.4502 25.6661 28.1269 25.5438 27.8492 25.3474L24.0152 22.6362C23.3026 22.1323 22.3457 22.1486 21.6507 22.6765L18.5733 25.0138C17.8583 25.5569 16.869 25.5569 16.1539 25.0138L12.4454 22.1971C12.0974 21.9328 11.6726 21.7898 11.2357 21.7898H7.12796C6.69106 21.7898 6.26619 21.9328 5.91827 22.1971L1.79031 25.3324C1.2924 25.7105 1 26.2998 1 26.925V31C1 32.1046 1.89543 33 3 33H119C120.105 33 121 32.1046 121 31Z" fill="url(#paint0_linear_662_983)"/>
<path d="M121 7.33333L119.937 4.43404C119.526 3.3139 118.232 2.80018 117.165 3.33348L116.507 3.66248C115.906 3.96245 115.196 3.94136 114.614 3.60633L111.089 1.57532C110.471 1.21921 109.71 1.21922 109.092 1.57532L104.907 3.98671C104.728 4.09018 104.565 4.22093 104.426 4.37428L100.662 8.51499C99.8682 9.38786 98.4955 9.38786 97.7019 8.51499L95.4416 6.02867C94.5691 5.06891 93.0279 5.18076 92.3031 6.25644L89.3418 10.6515C88.7438 11.5389 87.5533 11.7985 86.6403 11.2405L84.0964 9.6859C83.3387 9.22288 82.3665 9.31485 81.7091 9.91174L79.2226 12.1693C78.2711 13.0332 76.7635 12.7884 76.1343 11.6678L73.5125 6.99852C72.78 5.69399 70.927 5.62613 70.101 6.87358L66.861 11.7671C66.5986 12.1633 66.2037 12.4532 65.7471 12.5848L61.8325 13.7125C61.3014 13.8656 60.8572 14.2316 60.6055 14.7238L55.9103 23.9056C55.6761 24.3635 55.2745 24.7137 54.789 24.8832L51.5047 26.0301C50.6666 26.3228 49.7359 26.028 49.2192 25.3061L45.7326 20.436C45.1168 19.5758 43.9376 19.344 43.042 19.9069L39.1818 22.3333L34.348 25.7937C33.9483 26.0799 33.4571 26.2088 32.9683 26.1558L28.7884 25.7028C28.4502 25.6661 28.1269 25.5438 27.8492 25.3474L24.0152 22.6362C23.3026 22.1323 22.3457 22.1486 21.6507 22.6765L18.5733 25.0138C17.8583 25.5569 16.869 25.5569 16.1539 25.0138L12.4454 22.1971C12.0974 21.9328 11.6726 21.7898 11.2357 21.7898H7.12796C6.69107 21.7898 6.26619 21.9328 5.91827 22.1971L1 25.9326" stroke="#224639" stroke-width="2"/>
<defs>
<linearGradient id="paint0_linear_662_983" x1="61" y1="1" x2="61" y2="33" gradientUnits="userSpaceOnUse">
<stop stop-color="#02C076"/>
<stop offset="1" stop-color="#02C076" stop-opacity="0"/>
</linearGradient>
</defs>
</svg>
