<svg width="122" height="33" viewBox="0 0 122 33" fill="none" xmlns="http://www.w3.org/2000/svg">
<path opacity="0.12" d="M1 31V4.46062C1 2.9218 2.66516 1.95945 3.99849 2.7277L5.45605 3.56754C6.07409 3.92364 6.835 3.92364 7.45304 3.56754L10.9106 1.57532C11.5286 1.21922 12.2895 1.21922 12.9076 1.57532L17.0926 3.98671C17.2722 4.09018 17.4346 4.22093 17.574 4.37428L21.3383 8.51499C22.1318 9.38786 23.5045 9.38786 24.2981 8.51499L26.5584 6.02867C27.4309 5.06891 28.9721 5.18076 29.6969 6.25644L32.6582 10.6515C33.2562 11.5389 34.4467 11.7985 35.3597 11.2405L37.9036 9.6859C38.6613 9.22288 39.6335 9.31485 40.2909 9.91174L44.3776 13.6222C44.5488 13.7777 44.6918 13.9616 44.8001 14.1659L49.3052 22.6612C49.7597 23.5182 50.7637 23.9255 51.6868 23.6273L54.9641 22.5687C55.343 22.4463 55.7499 22.4398 56.1325 22.5501L60.847 23.9083C60.9488 23.9376 61.0528 23.9588 61.158 23.9717L66.241 24.5929C66.3829 24.6103 66.5227 24.6428 66.6577 24.69L70.4953 26.0301C71.3334 26.3228 72.2641 26.028 72.7808 25.3061L76.2674 20.436C76.8832 19.5758 78.0624 19.344 78.958 19.9069L82.8182 22.3333L87.9696 26.0211C88.17 26.1645 88.3951 26.2697 88.6337 26.3313L92.5747 27.3492C93.285 27.5327 94.0386 27.3126 94.5385 26.7758L97.949 23.1135C98.649 22.3619 99.8044 22.2627 100.622 22.8839L103.427 25.0138C104.142 25.5569 105.131 25.5569 105.846 25.0138L109.555 22.1971C109.903 21.9328 110.327 21.7898 110.764 21.7898H114.872C115.309 21.7898 115.734 21.9328 116.082 22.1971L120.21 25.3324C120.708 25.7105 121 26.2998 121 26.925V31C121 32.1046 120.105 33 119 33H3C1.89543 33 1 32.1046 1 31Z" fill="url(#paint0_linear_662_1211)"/>
<path d="M1 7.33333L2.06307 4.43404C2.47379 3.3139 3.76759 2.80018 4.83483 3.33348L5.49322 3.66248C6.09352 3.96245 6.80425 3.94136 7.38571 3.60633L10.9106 1.57532C11.5286 1.21921 12.2895 1.21922 12.9076 1.57532L17.0926 3.98671C17.2722 4.09018 17.4346 4.22093 17.574 4.37428L21.3383 8.51499C22.1318 9.38786 23.5045 9.38786 24.2981 8.51499L26.5584 6.02867C27.4309 5.06891 28.9721 5.18076 29.6969 6.25644L32.6582 10.6515C33.2562 11.5389 34.4467 11.7985 35.3597 11.2405L37.9036 9.6859C38.6613 9.22288 39.6335 9.31485 40.2909 9.91174L44.3776 13.6222C44.5488 13.7777 44.6918 13.9616 44.8001 14.1659L49.3052 22.6612C49.7597 23.5182 50.7637 23.9255 51.6868 23.6273L54.9641 22.5687C55.343 22.4463 55.7499 22.4398 56.1325 22.5501L60.847 23.9083C60.9488 23.9376 61.0528 23.9588 61.158 23.9717L66.241 24.5929C66.3829 24.6103 66.5226 24.6428 66.6577 24.69L70.4953 26.0301C71.3334 26.3228 72.2641 26.028 72.7808 25.3061L76.2674 20.436C76.8832 19.5758 78.0624 19.344 78.958 19.9069L82.8182 22.3333L87.9696 26.0211C88.17 26.1645 88.3951 26.2697 88.6337 26.3313L92.5747 27.3492C93.285 27.5327 94.0386 27.3126 94.5385 26.7758L97.949 23.1135C98.649 22.3619 99.8044 22.2627 100.622 22.8839L103.427 25.0138C104.142 25.5569 105.131 25.5569 105.846 25.0138L109.555 22.1971C109.903 21.9328 110.327 21.7898 110.764 21.7898H114.872C115.309 21.7898 115.734 21.9328 116.082 22.1971L121 25.9326" stroke="#52372E" stroke-width="2"/>
<defs>
<linearGradient id="paint0_linear_662_1211" x1="61" y1="1" x2="61" y2="33" gradientUnits="userSpaceOnUse">
<stop stop-color="#FF783E"/>
<stop offset="1" stop-color="#FF783E" stop-opacity="0"/>
</linearGradient>
</defs>
</svg>
