<svg width="122" height="33" viewBox="0 0 122 33" fill="none" xmlns="http://www.w3.org/2000/svg">
<path opacity="0.12" d="M121 31V4.46062C121 2.9218 119.335 1.95945 118.002 2.7277L116.544 3.56754C115.926 3.92364 115.165 3.92364 114.547 3.56754L111.089 1.57532C110.471 1.21922 109.71 1.21922 109.092 1.57532L105.288 3.7673C104.868 4.00939 104.55 4.39589 104.394 4.85487L100.275 16.9354C99.7839 18.3766 97.9266 18.7621 96.9024 17.6354L95.4416 16.0287C94.5691 15.0689 93.0279 15.1808 92.3031 16.2564L90.3648 19.1331C89.4714 20.459 87.4605 20.2526 86.8551 18.7728L83.8994 11.5478C83.3739 10.2632 81.7316 9.89134 80.7039 10.8244L79.2226 12.1693C78.2711 13.0332 76.7635 12.7884 76.1343 11.6678L73.5125 6.99852C72.78 5.69399 70.927 5.62613 70.101 6.87358L66.861 11.7671C66.5986 12.1633 66.2037 12.4532 65.7471 12.5848L61.8326 13.7125C61.3014 13.8656 60.8572 14.2316 60.6055 14.7238L57.0896 21.5994C56.3961 22.9556 54.5015 23.0696 53.6503 21.8064L51.0222 17.906C50.4827 17.1053 49.4483 16.8043 48.5635 17.1906L44.7737 18.8448C44.6823 18.8847 44.5939 18.9314 44.5095 18.9845L40.6109 21.4351C39.7855 21.9539 38.7063 21.802 38.0562 21.0755L34.5391 17.1453C34.0404 16.588 33.2726 16.3555 32.5486 16.5425L28.662 17.5463C28.4051 17.6127 28.1639 17.7296 27.9525 17.8901L22.8182 21.7898L18.5733 25.0138C17.8583 25.5569 16.869 25.5569 16.1539 25.0138L12.4454 22.1971C12.0974 21.9328 11.6726 21.7898 11.2357 21.7898H7.12796C6.69106 21.7898 6.26619 21.9328 5.91827 22.1971L1.79031 25.3324C1.2924 25.7105 1 26.2998 1 26.925V31C1 32.1046 1.89543 33 3 33H119C120.105 33 121 32.1046 121 31Z" fill="url(#paint0_linear_662_1173)"/>
<path d="M121 7.33333L119.937 4.43404C119.526 3.3139 118.232 2.80018 117.165 3.33348L116.507 3.66248C115.906 3.96245 115.196 3.94136 114.614 3.60633L111.089 1.57532C110.471 1.21921 109.71 1.21922 109.092 1.57532L105.288 3.7673C104.868 4.00939 104.55 4.39589 104.394 4.85487L100.275 16.9354C99.7839 18.3766 97.9266 18.7621 96.9024 17.6354L95.4416 16.0287C94.5691 15.0689 93.0279 15.1808 92.3031 16.2564L90.3648 19.1331C89.4714 20.459 87.4605 20.2526 86.8551 18.7728L83.8994 11.5478C83.3739 10.2632 81.7316 9.89134 80.7039 10.8244L79.2226 12.1693C78.2711 13.0332 76.7635 12.7884 76.1343 11.6678L73.5125 6.99852C72.78 5.69399 70.927 5.62613 70.101 6.87358L66.861 11.7671C66.5986 12.1633 66.2037 12.4532 65.7471 12.5848L61.8325 13.7125C61.3014 13.8656 60.8572 14.2316 60.6055 14.7238L57.0896 21.5994C56.3961 22.9556 54.5015 23.0696 53.6503 21.8064L51.0222 17.906C50.4827 17.1053 49.4483 16.8043 48.5635 17.1906L44.7737 18.8448C44.6823 18.8847 44.5939 18.9314 44.5095 18.9845L40.6109 21.435C39.7855 21.9539 38.7063 21.802 38.0562 21.0755L34.5391 17.1453C34.0404 16.588 33.2726 16.3555 32.5486 16.5425L28.662 17.5463C28.4051 17.6127 28.1639 17.7296 27.9525 17.8901L22.8182 21.7898L18.5733 25.0138C17.8583 25.5569 16.869 25.5569 16.1539 25.0138L12.4454 22.1971C12.0974 21.9328 11.6726 21.7898 11.2357 21.7898H7.12796C6.69107 21.7898 6.26619 21.9328 5.91827 22.1971L1 25.9326" stroke="#224639" stroke-width="2"/>
<defs>
<linearGradient id="paint0_linear_662_1173" x1="61" y1="1" x2="61" y2="33" gradientUnits="userSpaceOnUse">
<stop stop-color="#02C076"/>
<stop offset="1" stop-color="#02C076" stop-opacity="0"/>
</linearGradient>
</defs>
</svg>
