<svg width="20" height="20" viewBox="0 0 20 20" fill="none" xmlns="http://www.w3.org/2000/svg">
<path d="M0.344843 16.5519H19.6552C19.8456 16.5519 20 16.3975 20 16.207V3.79328C20 3.60285 19.8456 3.44844 19.6552 3.44844H0.344843C0.154414 3.44848 0 3.60285 0 3.79328V16.207C0 16.3975 0.154414 16.5519 0.344843 16.5519Z" fill="#C8414B"/>
<path d="M20 6.20721H0V13.7935H20V6.20721Z" fill="#FFD250"/>
<path d="M8.44843 10.0002L8.74081 8.68452C8.76776 8.56335 8.67554 8.44843 8.5514 8.44843H8.34546C8.22136 8.44843 8.12918 8.56335 8.15605 8.68452L8.44843 10.0002Z" fill="#C8414B"/>
<path d="M8.79316 9.31038H8.10352V12.2412H8.79316V9.31038Z" fill="#F5F5F5"/>
<path d="M8.96515 8.96561H7.93066V9.31045H8.96515V8.96561Z" fill="#FAB446"/>
<path d="M8.96592 10H7.2417V10.3449H8.96592V10Z" fill="#C8414B"/>
<path d="M8.96564 11.3797L7.93115 11.0349V10.69L8.96564 11.0349V11.3797Z" fill="#C8414B"/>
<path d="M3.27607 10.0002L3.56845 8.68452C3.59541 8.56335 3.50318 8.44843 3.37904 8.44843H3.1731C3.049 8.44843 2.95681 8.56335 2.98369 8.68452L3.27607 10.0002Z" fill="#C8414B"/>
<path d="M4.48254 8.96545C4.29211 8.96545 4.1377 9.11987 4.1377 9.3103V11.5517C4.1377 11.9706 4.52871 12.7586 5.86183 12.7586C7.19496 12.7586 7.58597 11.9706 7.58597 11.5517V9.3103C7.58597 9.11987 7.43156 8.96545 7.24113 8.96545H4.48254Z" fill="#F5F5F5"/>
<path d="M5.86183 10.6896H4.1377V9.3103C4.1377 9.11987 4.29211 8.96545 4.48254 8.96545H5.86183V10.6896Z" fill="#C8414B"/>
<path d="M5.86182 10.6893H7.58595V11.5514C7.58595 12.0275 7.20002 12.4135 6.72389 12.4135C6.24775 12.4135 5.86182 12.0275 5.86182 11.5514V10.6893Z" fill="#C8414B"/>
<path d="M4.1377 10.6893H5.86183V11.5514C5.86183 12.0275 5.4759 12.4135 4.99976 12.4135C4.52363 12.4135 4.1377 12.0275 4.1377 11.5514V10.6893Z" fill="#FAB446"/>
<path d="M5.51672 12.2372V10.6893H5.17188V12.3961C5.30016 12.3701 5.41605 12.3133 5.51672 12.2372Z" fill="#C8414B"/>
<path d="M4.82726 12.3961V10.6893H4.48242V12.2372C4.58312 12.3133 4.69902 12.3701 4.82726 12.3961Z" fill="#C8414B"/>
<path d="M5.51739 10H4.48291V10.3449H5.51739V10Z" fill="#FFB441"/>
<path d="M5.51739 9.31038H4.48291V9.65522H5.51739V9.31038Z" fill="#FAB446"/>
<path d="M5.34492 9.51546H4.65527V10.1401H5.34492V9.51546Z" fill="#FAB446"/>
<path d="M3.62031 9.31038H2.93066V12.2412H3.62031V9.31038Z" fill="#F5F5F5"/>
<path d="M3.79328 12.0688H2.75879V12.4137H3.79328V12.0688Z" fill="#FAB446"/>
<path d="M3.79328 8.96561H2.75879V9.31045H3.79328V8.96561Z" fill="#FAB446"/>
<path d="M3.96572 12.4137H2.58643V12.7586H3.96572V12.4137Z" fill="#5064AA"/>
<path d="M9.13801 12.069H8.10352V12.4138H9.13801V12.069Z" fill="#FAB446"/>
<path d="M9.13808 12.4137H7.75879V12.7586H9.13808V12.4137Z" fill="#5064AA"/>
<path d="M6.89662 8.62077H4.82764V8.96562H6.89662V8.62077Z" fill="#FAB446"/>
<path d="M6.03478 7.58647H5.68994V8.62096H6.03478V7.58647Z" fill="#FFB441"/>
<path d="M5.51723 8.10367C5.23199 8.10367 5 7.87163 5 7.58644C5 7.30121 5.23203 7.06921 5.51723 7.06921C5.80246 7.06921 6.03445 7.30124 6.03445 7.58644C6.03449 7.87163 5.80246 8.10367 5.51723 8.10367ZM5.51723 7.41402C5.42211 7.41402 5.3448 7.49128 5.3448 7.58644C5.3448 7.68156 5.42207 7.75886 5.51723 7.75886C5.61238 7.75886 5.68965 7.6816 5.68965 7.58644C5.68965 7.49132 5.61238 7.41402 5.51723 7.41402Z" fill="#F5F5F5"/>
<path d="M6.20717 8.10367C5.92193 8.10367 5.68994 7.87163 5.68994 7.58644C5.68994 7.30121 5.92197 7.06921 6.20717 7.06921C6.4924 7.06921 6.72439 7.30124 6.72439 7.58644C6.72439 7.87163 6.49236 8.10367 6.20717 8.10367ZM6.20717 7.41402C6.11205 7.41402 6.03475 7.49128 6.03475 7.58644C6.03475 7.68156 6.11201 7.75886 6.20717 7.75886C6.30228 7.75886 6.37959 7.6816 6.37959 7.58644C6.37955 7.49132 6.30228 7.41402 6.20717 7.41402Z" fill="#F5F5F5"/>
<path d="M6.89662 8.44839C6.61139 8.44839 6.37939 8.21636 6.37939 7.93117C6.37939 7.64593 6.61143 7.41394 6.89662 7.41394C7.18185 7.41394 7.41385 7.64597 7.41385 7.93117C7.41385 8.21636 7.18181 8.44839 6.89662 8.44839ZM6.89662 7.75874C6.8015 7.75874 6.7242 7.83601 6.7242 7.93117C6.7242 8.02628 6.80146 8.10359 6.89662 8.10359C6.99174 8.10359 7.06904 8.02632 7.06904 7.93117C7.06904 7.83601 6.99174 7.75874 6.89662 7.75874Z" fill="#F5F5F5"/>
<path d="M4.82777 8.44839C4.54254 8.44839 4.31055 8.21636 4.31055 7.93117C4.31055 7.64593 4.54258 7.41394 4.82777 7.41394C5.11301 7.41394 5.345 7.64597 5.345 7.93117C5.34504 8.21636 5.11301 8.44839 4.82777 8.44839ZM4.82777 7.75874C4.73266 7.75874 4.65535 7.83601 4.65535 7.93117C4.65535 8.02628 4.73262 8.10359 4.82777 8.10359C4.92293 8.10359 5.00019 8.02628 5.00019 7.93113C5.00019 7.83601 4.92293 7.75874 4.82777 7.75874Z" fill="#F5F5F5"/>
<path d="M6.89672 11.3794V11.5519C6.89672 11.6469 6.81937 11.7243 6.7243 11.7243C6.62922 11.7243 6.55187 11.6469 6.55187 11.5519V11.3794H6.89672ZM7.24152 11.0346H6.20703V11.5519C6.20703 11.8371 6.43906 12.0691 6.72426 12.0691C7.00949 12.0691 7.24148 11.8371 7.24148 11.5519V11.0346H7.24152Z" fill="#FAB446"/>
<path d="M6.72424 10.3446C6.53381 10.3446 6.37939 10.1902 6.37939 9.99981V9.65496C6.37939 9.46453 6.53381 9.31012 6.72424 9.31012C6.91467 9.31012 7.06908 9.46453 7.06908 9.65496V9.99981C7.06908 10.1902 6.91467 10.3446 6.72424 10.3446Z" fill="#FFA0D2"/>
<path d="M5.86195 11.2065C6.14761 11.2065 6.37918 10.975 6.37918 10.6893C6.37918 10.4036 6.14761 10.1721 5.86195 10.1721C5.5763 10.1721 5.34473 10.4036 5.34473 10.6893C5.34473 10.975 5.5763 11.2065 5.86195 11.2065Z" fill="#5064AA"/>
<path d="M6.03478 6.8968H5.68994V7.9313H6.03478V6.8968Z" fill="#FAB446"/>
<path d="M4.82727 8.62067L4.48242 8.27583L4.68441 8.07384C4.99664 7.76161 5.42016 7.58618 5.86176 7.58618C6.30336 7.58618 6.72684 7.76161 7.0391 8.07384L7.2411 8.27583L6.89625 8.62067H4.82727Z" fill="#C8414B"/>
<path d="M5.86236 8.4485C5.95759 8.4485 6.03478 8.3713 6.03478 8.27607C6.03478 8.18085 5.95759 8.10365 5.86236 8.10365C5.76714 8.10365 5.68994 8.18085 5.68994 8.27607C5.68994 8.3713 5.76714 8.4485 5.86236 8.4485Z" fill="#FFD250"/>
<path d="M5.17242 8.4485C5.26765 8.4485 5.34484 8.3713 5.34484 8.27607C5.34484 8.18085 5.26765 8.10365 5.17242 8.10365C5.0772 8.10365 5 8.18085 5 8.27607C5 8.3713 5.0772 8.4485 5.17242 8.4485Z" fill="#FFD250"/>
<path d="M6.55182 8.4485C6.64704 8.4485 6.72424 8.3713 6.72424 8.27607C6.72424 8.18085 6.64704 8.10365 6.55182 8.10365C6.45659 8.10365 6.37939 8.18085 6.37939 8.27607C6.37939 8.3713 6.45659 8.4485 6.55182 8.4485Z" fill="#FFD250"/>
<path d="M4.483 10H2.75879V10.3449H4.483V10Z" fill="#C8414B"/>
<path d="M2.75879 11.3796L3.79324 11.0348V10.6899L2.75879 11.0348V11.3796Z" fill="#C8414B"/>
</svg>